<mxfile host="app.diagrams.net" agent="Mozilla/5.0 (X11; Linux x86_64; rv:137.0) Gecko/20100101 Firefox/137.0" version="26.2.13">
  <diagram name="Page-1" id="4GDkfO3UGv0BYcFYOlsq">
    <mxGraphModel dx="1428" dy="754" grid="1" gridSize="10" guides="1" tooltips="1" connect="1" arrows="1" fold="1" page="1" pageScale="1" pageWidth="850" pageHeight="1100" math="0" shadow="0">
      <root>
        <mxCell id="0" />
        <mxCell id="1" parent="0" />
        <mxCell id="9MfvhquQHnC2zTjQO_8x-1" value="" style="shape=image;verticalLabelPosition=bottom;labelBackgroundColor=default;verticalAlign=top;aspect=fixed;imageAspect=0;image=data:image/png,iVBORw0KGgoAAAANSUhEUgAABTUAAAH9CAAAAADuFseDAACih0lEQVR4nOyddXgbx9bG312xZWZmih1mTpqkSZqmaaCcYsrcW7y9veWvTLcMKXObNmnaJg0zM9hxzMxsMezO94dkjCVLtmxJ9vyePo21ml2NVrvvnjnnzBmGgEKhUCg2wzq7AxQKheJWUNWkUCgUe6CqSaFQKPZAVZNCoVDsgaomhUKh2ANVTQtwet7ZXaBQKK4IVc3uIC37b04auc/Z3aBQKC6I0NkdcEGM1e99Uw0wR0f4OLsrFArF5WBolntXyOHHD3AAgC9voA8VCoXSBTpCv4DzbxwziSZaqGuTQqF0hRpTXeCzX92sMf8tY5zaFQqF4opQ1ewEqfpr3QEVIPSpBzXEKRRKN1Bh6ASf+dqmFkAw4loAoKYmhUK5AGprdkTxzppiAGDv0zu7KxQKxUWhtmZHmj/L5ABm6tErCAAIqLFJoVC6Qm3NDjQ8WA7Ab/rrKXoWADialkWhULpCVbOdmoc2APB84l5PEAIALLU1KRRKV6hqtsJlr/5HB8gXzpUBDAPArJ0UCoXSAaqaZuq2fbNbA4gmPz4eAAjQqp0UCoXSAaqaJvgzL2UAgP/ysQBA6KwgCmWQY2AFvduRqqaJ8i9zATCjn50oAACuAQAkTu0ShULpP7T7flSOebJXu1LVBACUP/OXDsDy54eZUrGUBwAERNG8LAplUMIf/PBwmTH3nl6VNaO6AAAkZ00LIJj0TprpfJCKwwASI+jZoVAGI8ovbv6tQM9nrCztzd7U1gRg3DuXAOzsz6PMG8iZZoBZEOjUXlEolH6BKLf+XxkPwFin6bFxN1DVBF957GYCMKH3RLRuMu7iAO8RHs7sFoVC6Q/4hpyNn1cDAAQhAb05AlVNaD7+pBlA8rWj2iJqykMAEmN6GWGjUCiui/KTz1rH5X4XyXtzBKqaOLG1kQCJT10ha9tUWgwww0JouiaFMsjQn931Rbn5bzZhRq8sI6qaBZ+c5sHEPb+sXTRxXAsIk/yc1ykKhdIvqH78oqV1zp/4hlG9EsChrpp8xjubdYB8/uIOosntJoB/gszybhQKxR1RfL+mhQAseADhl/VO/4a6ahoOr1UA7KonPDtsbD4KIDZuqJ8bCmWQwZ99eXc1gKDhOwFIr+7lcHKIK4N+/aMtANKf63T6imoBJiHKwj4UCsUtMWY+stsIwHvMKQDCrxb3KhY0xLPcSf1v17QATOgPnUST7FMBkthe5SRQKBSXhKjOrRy93Qiw4Vv9agB23nh5L+O9Q9rWVDz8MwGQujS002bdYQMQlCp1TqcoFIrDIS2Ff39dAACI+V72J4DoR+N7myQzpFXz0A49gOGvXSzqtLk+hwPCk4a0GU6hDCr0W187bQAA77HL41drAHZBeq/v8KGsmlmvVALM6OfmdhZNFDUQsOHUrUmhDBYMhz89bQDAhF5xT3LdTwCCZ/d+wvTQVU3jkQ+OcWACr5rbtSDcOQUgiaDZmhTK4ICU//b7PgBM6CVzZkViUyGAiWN7r31DVzU1f/ylBPzvvK5rWqYhWw14xFC3JoUySMh/owoAO+bfU0IFUP2kB3ynR/f+cENWNVWff6UCRDPuD77gnUIt4JNC3ZoUyuAg6/ZKAjCvXB4vApCZzQMp0/tgFg1R1STKb55WAUh56wLRRG4RB8Y/ceA7RaFQHI/qxe8qAEheXeUNAMbfagBBalofjjhEVbPozl0GAAkrwy54S78pHxDE0mAQhTII4Ju+/LwegN9FE02VH/N2qYDIhb0q4m5miKrmwQMGAOk/jLrwreJDzYD3pZ4XvkOhUNyM5jNf/K4EmJBH7jLd0tzGQoBNmd2Xgw5N1cz8jwpgx78z/MK3uENnACZ2/sB3ikKhOBZS+9M7xQDgdeOdZjuoYn8D4L3gQs+cHQxJ1Tz9YjHAhD0yvpviei0nKgHB5aEXvkOhUNwKfv2mDeUAmPibFplTZYx7T/BAyKI+BXuHomrqP9kEIPquaaJu3iw6xQGyZTSCTqG4OfofXs4DAFz0wKLWe71iSxkgnB3fpwMPRdU8vkcNeFx+a1A37xnzsgCMTBnoPlEoFIei3/vV7jIAwLTXx7RaQcajO41AyD3iPh16CKqm5pdiAnb6A91OqGo5Xgfgyr6dVAqF4mw0P/yuBYCUf82Nbxs6lv9WDuCa9L4deuippv7HdSrAf2H3BU+qdnFAMI0FUShujeav/53SAoxg1P91qDPBndnAASF39HEdxSGnmnz55lJANPeObkXTmJcJYFLkAHeKQqE4EKLJ33zUCLCxj93YcX3upn8UAHNrbB8PP9RUU33uf2sABNzcfRVnfbYaYBd2redBoVDcB0PO5o8KCCCcfu1NHe9lkr0OQPCy7sLA9jDEVJPPfmwfAOG0Kd2/rz3DAz7pQ+ysUCiDCG32se/2GwGwyZ8ndHrHuLEKEC6J7euS3UNMHwyHDxkB3HCbhfUnFVkAooJp3hGF4pbwVdmHtx7UAGAkV1wa0vnN2rUAQpf69vVDhphqVn+rBdhVz1pwXJL6cgDJfZmiSqFQnAZ39osDOUoAgHTWIyO7mD9/5AOYktZn0RtiqrnmOIDEG8MtvV/RADApvVy5jkKhOBXj/heOKgkAsKmr5id0EU31N3rAd3bf5/0NLdVUfqgHPO8ZbWkETs7rAUk0DQZRKO5HU1X1fw8ZAYCJuGNZ7AUFeHJyAIyZ3Pfbe2ip5tFiANPmell6nz8HwCesryE2CoUy4By8t4BXcwCEQXfdEiy+MOSzRQMIxyb1NRY0xFST/4IHZPOSLDbQZQMICaTBIArF3Wj6MUcFAKLYa+7oNm6h3GMEwkY6wP82pFSz8hCAhFGWLXRFCYAwv74/jCgUysCybZcWAMQzXh/T/Q1clMUBsV0jRL1hKJlV3KY6gB1hpfR9aQ3ARHkPXJcoFIpDIMtW+QLwmPXfUd2LJjnQAogSYh3wWUPJ1mz+XQl4DbdSj3S7HhDFUNWkUNwNRnB5SxEviL5krIVJ5pqDCsBnpMWghh0MHdU05v10ggNip1qO9ai3AAhKspABT6FQXJj4x5Q862Xx7i08rweCLGmqXQwd1SRnfqkBRGndrHrRSmYWgGHDHHFeKRTKAOPhYeVN4/YCAjZimCM+aOj4NQ2HCwmYqAVWllH7pwmQjokbsC5RKJQBonJPHeA5u9uquvYydGxNZY0e8H1/nuUBestuPRA8iq5OSaEMNsihEzyY+GsdYiYOHdUEAAj8rVRpL6rkgYSxNO+IQhls1O0tBwQL+7ZeUCtDZ4ROAICRWmmR1QyIYiIGqD8UCmWgIKe36QHfax1ztKGjmiYTklhuwGUpAY84ax5lCoXijmjO5AGYm+qYow0d1SQmY9NyA12lHvBOHGI+CwplCNBwygAIr3fQKopDRzVFYgD6s5YbqCsNgCeNoFMogw1ScRJA9GgHHW7oqKZHmAegWlNnsYFGwQFiOjGIQhlsGPPzAMz2d9Dhho5qSsZHAMZtd5+z1IAnAFhaJY5CGWyoj2kBXOSgAfoQUk1mzlgBoNm1xWihAc8DVh2fFArFLanfBSBuuKNm/Q0d1YTPtQkM0Lj6HwtxdIUOYCS0jjuFMsgg+ZkAxoc6yiQaQqqJhbdEAyEPXmKhkFROHSCKDxjgTlEolH7GsFUHCCY7LGYxlPJsJPcHbdYOn2fhKxtzGgBxCi14RKEMMur/AhA23NoUF7sYSqoJ+a3L1b6WCuBrylSAzOJCbBQKxU05VARgSpLD7u0hpZqAn5/Ft7QNBkBocc1fCoXinuh/1QJe0/q+om8r1LRqxcABYGkwiEIZZBTuAZAyxmEDdKqabRSWAGAdsIAdhUJxJf5oAMQTUx2XVEhV04wxswBghjnOiqdQKK5A8586IHCMA7NjqGqa0RbUAexCWvGIQhlcHCsjYIZNc+DCNlQ1zejVANjJzu4GhUJxKNz2BkAyLNaBh6SqaYYnAEiLs7tBoVAcStVpDRA8zZGJ2FQ1TfA1ZQCgdnY/KBSKQzmRy4GNm+TIQ1LVNEGqSgAwUc7uB4VCcST6QxWAZFSkI49JVdMEX5ILYES0s/tBoVAcSVWWGvCa49AKkENsbpBFtKVKAGOON05IcnZXKBSKwzibRYAghw7Qqa1ppuYgAHbMCw99UWtlQTYKheJWaM6WAYLZIQ49KLU1AQB82UkAMQ8Z8Vrja77O7g2FQnEM5UeUgPQqxxYbp7YmAICrqAIgYwCoNc7uDIVCcQwk5xSApDGOPSq1NQEAfDMAnAMAgQPnEFAoFGeiza0EMMfLsUeltiYAQJHb+pdvEi3gQaEMEhR5OkC0wMFHpaoJAKjZZ/5DlD6GrlJJoQwSmrMJEOzovBg6QgcA0pBh+kMy47rx9JRQKIMDUlcEIN5yLfLeQSUCAFCsBsAk3zUm0deDru1LoQwOuJoqAGMcXWucqiYAkCoAiP9gpohKJoUyaNDnqwDBSEerHFVNAGb37pThYmf3g0KhOA7VYR7wTXZ0WgyNBgEAOACghiaFMqioPwEgJczRKkdVEwAYHwDwoJmaFMoggs8tAZixjg4GUdU0Me4iYORMmqlJoQwi+E16QDzC4fc1VU0AYNIe8PdaudBxS39SKBSn07IRQESSw8MVNBoEAJDOWc+leDu7FxQKxYGcLgUwMc7hpiFVTRPe053dAwqF4lh+4ADRGMdWiQPoCJ1CoQxSqrcASBjlyHXWTFDVpFAogxHyZS3AjB/u+CMPzRE6b9DzXbcxIjHNPKJQBg3NW/SAz8hgxx95iKmmQa/jiKGuuLTGAAYEYAgYEDAErF9ETLS/hBrfFMpgQL8uiwcSp/ZDDbOho5qctqmqqLi2geMNVQXVqgsbSPxjEmJTk0KEjNBTSs1OCsWtafy+GoB/WD8cemioJtdcnpdbVFFb3aDWWWykq6w8JAkJ8xNAEJo0MiVISs1OCsVtUeoAgOmPu3jwq6ZRWX326Im65ma1rufVJ3UlJQAg9goIiBs3ISmAViimUNwZiUc/HHRwq6amIf/0yZxKhVpzQfDHKvr6eub4BrnvmNmToj3pYJ1CcT/0HACvVAcvGQRg8KomMTQXnjmUmafgeb7NxGRYoVAAMP7Jc0bIBAQMCGFBwIBneW3hgUM1egNnbk30+uaK87+Kw6fMGh3hJRbQekgUijvh4c3yTNCw/hihMz2PWt0QY0vhrl9O6ztuEko95L4xaWMjxAJRoG+3M1O55sK9R/MbefDqFm0H41SSPHVmUoQv9XNSKO6D4fTN58L/7wrPfjj0IFRNoinN2Le+sMMWgXdwUFh8amq0b09ODqJvaTLymtyj52pr6zXt54YJmjYjNTLcm/o5KRR34dVDo5/rlwMPOtXkGrMO79irbH3JyHyDQ8OSRycHetjjjDA0FWdmFJeVVBvbNgmCU8Ymz0hzZF8pFIobMshU01C0+8jJc2rTC9YvJCEyIjIqKsizF+5bom0qzjlfklvQ0D5Y95p790xaTo5CGdoMKtVUn19/4FyVWeR8Jk9NCA/39+zLPEle3VBeWHj+TI7WvEGUMu3i6YE0qk6hDGEGj2ryddvXZRc3m14w/pctHh5m16DcAoTTNNcUHt6SZY4ticNjLr3Dp+/HpVAobspgUU1N8d9rc5sN5lfpt8+K9nJc5IZw6vrC41sOmbyljNfi1yMcdmwKheJmDALVJPq6vE07zmlNmZaMxHPy7dN9WEfnVxJeX/fm1woCAKxswd3D6bwhCmVo4vaqSdTFf60ubA3YCALiL12a3G/Lmq/+oqLGNJFdOPKRxV40851CGYK4u2oqMvf9frK1IodXbMKSBaH9mIxOmg6tPZKrAQBErVqc1h9zXCkUimV4vZ43FXcUSPrNPOoB91ZNfeamX89ypr/Z4BET54/pj1mnnT/yyCeb600nbdon6dTapFAGBmLQ6ImxJre4kWPAMwwRBcenhzilIK5bq+bxDbsPmXIzRXEpicMnxw9ILmXe1tNbCwBActVLUQPxgRTKUMfQXJZdUK4mhoqc2raZ0h7hY5LSUmP8BjwT0I1VU7fjvb2m4sKeMxYlx4R4DdTJMzacOvRNAQAsWX6tswYJFMoQgVdVnj6dXVlZp7ywcpk0JDwiffYov4Htkfuq5tl3d5XqAUAw/vYZMeKBHSs3r32pgABswmMrqW/TZeCVjcTPm3pNBhFEW3PuyPHy+gaVxVqPrFdo+NxFKQN5H7qravKn/71bBwDiiXfMDJUM+Odr8l7+GQDrM/4/swf8wykAUKML6uSR4fNWb69H4NiV4/rduU0ZELTNuXv3Z7eoNVwPDRlPn4TL5kd7DZSP001Vs/bJ7wwEgCTynlXeTqngRhqe/E4LgEl7coE/rSE3wJCmP/b8wsZfcmW6abFrwmmqPvu+lidgGGHI5SvT5fQncWu45pLTB8/mNnWojisQi1gwspR5Yz3BAITU7dxcozOY6+swrCQyeXK6hzgg1LvfB57uqZrazTcoAMDvtqecNrlRv/O9o3UEAGa8OYZmvA8s5Z99VAcA3l+sYAAoi878tlXZ/nbAyn/F0IG620KMtUc/26npsEXg6e0bP2mcv0jgG9whktCSte9gdm1jp0K6HiNWzI71YCAQOnymSxvuqJpczr4HNQB8hi/5lzPlSv/V6wUAgNH/mpzsxH4MPVQfvV3DAwDz8OPB4ErXf5nZaRDHBj5xm7dzukbpI7ymrrzw73+a2zawnoHB4aPHpQXLulFBoi0/sDO3qLKT1zN2YTzLegcFBvl5ivolROyGqsmfeGmzBoDflQ8nOXkc9uP6PVUAIFry7zG0ENKAQQ4/ut/0FzPj/RHKHWs2NAEAhGFJopICHQDEPXvNwDu7KX2Grzt86vyZvNYaY/AIi45MSE+LlFu5vbTFBw7kna/t4vyU+AQlxMaEh4cFyB0+Ync71eRLNq49qAYw/JYl8c52XpGa7z4sAgDJxGsupxU9Bgj+3EvrNYBffF1F0HsXH/hrWw4AgPGbf8loccHpk9sbADbtr1jn9pLSC5r3/LOtoHXaindoXExMUmKEt6hH1VPknzpfUljR1NJlu8w/NDIsMio+yl/myBXS3E419Wv+XQZAMOrFi2TO7guApv1//FEHAAkvr6DW5sBgWHOXAsAL85qqfOS7NmSYLuGk5WMmRAsBfdmWNwoA4WMvO7eXFHvhq7f+c7rAPD1alLJwZERokJfERjuRVzZWV9eX65UZR5o6vyOQe4cEhcUmJkX6dDfG7w3uppqGzQ/n8wD8nrhP7uy+AAD46k8/rAMgmv3aGGf3ZWhAjt2Qy0Mw9o9wol7zaaaSAMDoOybGe5sfWy0fPK8HQt651pm9pNiJoWj9xpxW/yQTfsPSRG+hnSLHG/WcsT5z49bSrsmdjEjm5eMfnTQ2OdwR2RVuppplz2+sAICF70R4ukqQVFH00hoekM55ZbizPQZDAsMPtwAI+mYBC+6F13QA4H/LrfHtbkxy6METHJgJ2/tjeUJK/1Dy5sZa89wfQeLMRSmRvVY3o7KmuJnoas9k5Dd1UjdGJJZ5RE+aMTyor9rhXqrJ7V2kAeAz+5NQZ3elI9x163WA6M2rg6hs9juk+aOnALx9pwfwzyPZPARewx9b2GliK/nn0SzA552bXeXBSukBLu+/a02SKQycd/souaBvvxwBCIimqfDEkZxytd5o7LDaLMPKolOnDo/29xCJenu7upNq8nUnrlQCTPhby1xs9rfq9l85gB23egSVzf5G8dyHOkD+9VIhYPzp6Qr/CXfO6TqbTvv8uxqwM7+LdEoPKfZSfvyRPACAV9jw22c7sgYPr6jJO5WVV6dSag0dpU4QEDt8VGpyiLRX8uxOqql+/aNagPF/bpWrzf3mD99YwAOY+di0Aa4jMPQonVoGsHNfH8kCKPu4fMaV3WRm7nzsJI+g/95LA3RugDH3ud85APAdNvuKYf0Q49UpSnOzCsvr65uVndKTZDMuHxfn04u8JHdSzWMPHOaBpJXL0hyZReAISO3vv+w3Agh7/TpqbfYvq+81gBl39+IgBgB4rtuQgf6V/zVBuPxj/wHuHMV+inb8ulsLwGPK3KVJ/XZnc5rG8vzCoorS8uYOoSLx8KnJkZERAXbm9rqa/liGO/POWR5M3NNXuELGUWeY4FX+5XkA6r+Mnew+p9Qd0awxAvJl15iHG2z3Dynxkt+aCVdaQFXT5Sn/6Mt6AAi94rb0frx1BJ6eUZP16pqC3KLSgso68yRM/YmTnoER0fELx9nlFnCfW1y7cYMKkC+43PVEE4D4one//1sB/aHfR9KpfP3J3kwCpM/s6SJPGXbeSEozxlLL37Xhz761uR4AAlbdG9bvwTux2DdpjqqxprKsOC+vrIUAIApFIWRb5i5Jszb9qAtuo5ra3z5pIRAsesI100mY4IUjBWt00PyquyudetP6De1P9YBgeI9RN9mUf5SoPad1NQ84pRO6F/7M0wIQLrl3ePCAfCIjFvvFcwZ1S0PV2fWHzYN1zdHz6+OTR46Ns1Fc3MSvSSre+7YKQMQOFy6TUbT0DAHj9841LhbhH0wUX7+fIOal63o0S04urgBmvzV2IDpF6S1vPWNawebKj/0GelRAeF3DsdXtlZUEYqk06u4rbNJNd7E1C1c3Agi7yZUnewff938lhDS8lTiJGpv9xdEyAsGoRT2P5RIjKoCj21Kpsemy6Koe2mAAIEn/eOzA6xAj8PCIWFSReeRkVo2KAziNBpWnV997UWDPddTcxO+j/boRYOJ+etE1plF2j8dta/0Z4Oyt25qc3ZXBiiGjEZCPtsF17HW3CFCtP+ceY6mhCFk/+w8DAI9rfp3gJOONEcde+vxvBz6dG2y2c3QHblr2t6LHa8ZNVPPobwB8X5nq4t2NXRUAkPM3fdtTyX5K79CUaQCvcbbY8leMAnA6w9DfXaL0kpK/qgAIk259PMGpc7jEQdf89MKSKYkBIgAwHn7s/UO6HnZxjxG6/q1mQHSpE+x4+/B/TP+lkqDmsxEXObsrgxN1jR6Q2jTlx2vVSQ7abBV1MrskfMmH/2gB6aw7Fzm/EKr/7deU5eYXnj2hBJD/1Mg75iRaHaa7ug6ZOLoXQNJ18S4/rzhwVeE2NUj2C2Sme5xZN8PAAWBty62bHlADLqOFTtZySQw7vm0AhJNfGeUK40fWxyed02Rv/TYLAM78d+rMy9KsNHeLe1vzhQIQTLdpYOZcmORnw39ugvHw+34j3OLUuhlKDQDWNvMxMK4GyG+MdvlH7VDEuPf9WgKMf911yisKPMcNm7Tth2IATf8cOPbwRMty4wpC3yPrthqB6DmBzu6HDUjHPLvKB9Du22x0dlcGI9llABseYFNb+UgATc00HOSCVP3ngVME8H5hgrN70gmP2Y+9NEYAgDT9fctThRYvHXdQTdW6KkA8+2J36CuY0IfGsiD1x6qd3ZNBiCGvFhAO97WpsTgVQE0pDcy5ILWfnwcgmT/S2R3pAuN7xdqPRwsAaLO/Om3R8HEDJdKv3mME4q9zlznFQVcFA2TPn2pnd2TwocpvAiQLbBtzM54AOA21NV0Nojo2s5EA3qu/C3F2Xy5AEnvbzv+GigHUXDmv2MLF4/qqSXZ+WwdIxk11dkdsRXrzZSxQ/+sxOkZ3NHodANbGitSMAACoV9Pl0Ly7uBlgvJ9b7shKmg6D8X3u2FVyAMY9dx1VddvE9VVTc/g8Dybd5WpqWkZ6ryfAH9tHjc3+gYbZ3JvCLXUEiLxpqssmhYX/313DBQA2rdjcrbXp+qpZm6MDpPfOcXY/7CB2Bgtof86jg0MHw5hqatra2p7GlIGi6MOTHBD5+CuTep666CSYmBcfiQSA2q+zunvf5VWTFGXwQOQKZ/fDHmT3xgPI2kCNzX7BrocRfXK5GIZN6xSAx/zrXXlyNCRzX7zUA9DtWafv5l2XV01jfgGAWV7O7oc9iGc+IAKM31Q4uyODDUIA269ZuxpTBoisP2oIBHP/5dp3NBu18s2FYqBl4/Hu3h3w/thJ7T4lIFzo8v3shHzhFACFP1NDx7GYRuh25RLRaJBrUfn5AR7wfX64q09ZYVOfjwbIqXe6GaO7uhpxmf8QwNPV8rp6Ivp6McB/3Ozsfgw27DIfWQCgiQwuBZ/xiwIQXzrK2R2xgbTrpYB687ELC8C4umrWf1YFsDe52xKtkmkXAajc6ex+DDJMtrut1yxvT2PKgKA+UAMw8z9yh5+FfeYKBmh5+9QFEUUX7z0p3Awg9kaXTOyyRuIiOYCvqKXjUEwj9O788xZx8Qt8qFHzGwDvf7tHGiHzTDgDZLxW1/UNF7+o+FMagF0a53beKfHoFADHMp3dj8GF2EsIcFU2tqZeZZeDP34ewORYN7mfI28LAIybs7teSS6umoZtRsB3hmvH27pl2BgWaPyZzoJ2JLIoL8B4wrYcTKIDXP4CH2IovjQCwsXuMjlads9SFlD+5Waq2XIEQEqMG84G8R8fDOgP0niQIxHFBQLGTK1NjQ0lALwCXfwKH1ps2wNg2Fi3cbgFXh4I4Ddll80ufk1llgPMCBsnHrsUgikJAF9b6+x+DCqYxFCAy2+wqbHqGICQcFfPcBlKaN5XA9Klw9xkgA6wqdMAlGztutkZfbGdXzlAnOTr7G70hnBfAE0nnd2NwYWPHCCKro/+7qk9CyA1yG3u0CFA1hkAw+f5OrsfthM+QQxwH3e54lxbNZs2A4ga5jYGfUe84mRA3SbbRpMU2xAIAFvT3HMbAGaUT7/2h2IXv6kBwfTRbvQgk00dDuD47523urRq8t9VAczEkW50ltuRzgsB9FnnnN2PQYVEzACGJluakq0cIE9x6dnOQ4zGHXogcpIN6zK7DMykpV5A8xed4xMurZqlP+oA71GuV7rUJuamCYDCfbTojgPxjJEBqixbcorUWwDExrphIHHQkldPwKSMc3Y37EK6IA0gZcc6bXRl1eT/yOHBjr3YZcvwWcfzYg+g4XSjs/sxmJDEewKKoz2tVw0A+0oAJj3SLccpgxNytBGQJIY7ux/2MWKMBKjd1mm+iiurpuaQAvCdl+7sfvSWBX4Al5Xr7G4MJtgxwQx0mQU9tzzzsgGQpAf1f58oNqI9pQJ8R8ic3Q/7kM0MAjTnOuVtuLJqtlQZgJAZbmpqAvHDGaAwmya6O5CUUAYkZ/OFBRW6oPvwGMDGj3KzW3RQ01CoBwJHuLLkdMekcAZceacHtSt/BT0HQOamXk0AkiUMUJ+vcXY/BhN+M+VAw+bzPbU7tU8D+F05nWZrug551TzY4Dhnd8NewpNFQNW5jvEJV1ZNnqC1YIN7MooBDPVUNR2I8PoEBtyRXT0Ym5pfignYCTe7y9S9oQCfUQOIk21bzN6FkEyUAg3nO6YQurJq6oxoXWnQPQkDTNObKA4j5noB0HSqhzlXv/6uBvzmxwxMnyi2oMlqBDzGS5zdD3thJnsC2uL6DptcWTVLmgFRvNs9m9oJHgng8MkenXAU22FvCQDI1lNWko8M1R8/W0IgvOh2Nx6nDD6qSwyAzwRnd8N+4oMBUlDYYYsLqybJbwAEgW7sz5ddwQLaw7ZNm6bYhv8iAJWHWyw24DOvu6cYYMJu9Ry4XlF6guQXEzDhUc7uh/34jGOAktwOuUcurJq6EiUgTXbbEDqAq4IB7KuihR4dyfViwPjt7xbdxVW/HAQAZvncgesTpUeMueUAO96dJgaZEc5mgfrsDnPRXVg1FeVaQDbc2d3oC8FzAZSU0ulBjiR9PAsUP/dT96nuhk0vvKoBEHHbPS673PaQRFXQDAinuWOYYpIM4E53iE+4sGqWl3GAX7yzu9EXJJMAKKpoxqYjCXg4FiClzz+xpxuHsXb9vz8DwEQ98kbyQHeMYo3aAg6Qu8MqaxcQlQLgbF77bey603RJfgnAJrpvuiYA1hsAdHSE7kiE84tfagBKPqoZ4df1vUNf7SwgAC67bYYbDgUHM6QslwAJEc7uR2+QXn4cqMvRtlWCcV1bU5dfDbCT3TgY1AqhqulQPC+ZDADGDTf+ru70hm7Tk9/kcoD46lcX+TqjZxSLcJXVAKa6xzJrXZkjAQxn2+seua5qKorVgGiqWyePMB4AUE1H6A6FSf7qrXCAtGzZ0NL2RCKk8pv51+3TAWDilse7o/tsUKMvrwcwwT1v57hkAKdr26wf1x2h1+TzgK97O6cEURHlwI77aJFHhyIIvk/28XkD9F9tWD7TmxAWMFb9s8UcVQ9+8BG3y6Qe/BhVPIALXCrugffMs0BeUXqrWrqsapLqEgDxbnqazTChw8qBvGq3ds66IuK7F157lAdqPvmkyzs+Cbfd7ZQuUWzAZeXGOpIJQiO05y5u7b7LjtC52gYAw91y8Yt2fMcDqCl1djcGIYF3X9qNRSmIuesvKpquiKmehJvm4Ani/AH+aJsX3WXF31ivADDG2d3oIyJfAFD30IpiP143Tb93f+dFsBiv9JHTF/s6pz8UW3DTuCgbNqwGOFUfaH7tuqrZoAYQ7Oxu9BWXteXdn/AX9u09XtWWs+mZMnn46BQfesJdE1PYzl2DdP5j9hBUFKSYX7qsahIeANx8gE7pR2QTR15WWNzAMQQAI46Mj/F32auZ4t7IU8Q66I8uNKcAuPh15vaWAwEA90y3cH2kSQkGI286u6zYxS/loY6bujRNiGNDSkD2GsxFMeil1r+wgJtfMC4NK6FJRu6BUQcA7loagI1KKQFONoSaXzq3N1ZgAMDtS1PygPt6cygUR6EoAhDphnXiTIQOZ4HGDPMr11VNt/Yed4aO0ClDncZcAAFuWxzAM8YD4PeacwBcVzUBuHz3eoYBADqjkjLE4RtqAKS67SQ5cUIEgAPm6WduL0sUCsXl4eqbAYxw2zAKEx8HILfS9Mp1VZNaaRTKYIFvVAIIdF256YnQaCHQctb0wnW/hptOI+jCIPLOUii9hnAAIHFfD79XghegPWwy41xXNQG4fPd6hlrMFEorbnw7C4cFA4Y8k2PTxb+H+z6bzBDgwpPMGWkGJ2Vo4e6WA5MUAhhz6wC4vGq6/TCdBS64Yrh7hz+tcEZnKBQnwSkACNx5grRMDMCgBeDKc4MYADD21MrV4YCufk3d/nU1n0kfdNvUNQrFbnQ5AEIiXdxIswbLoLXenQvbmgRwZVG3DW01AHRe0r30gRrU/XHGKf2hUJyC8hwAP1839rgxDNqWAHNd1QTg/n7N2gMAfEI7bTuvBFCV7fbOBwrFVkhTNYAkd1ZNE6aAhIurppvDl58DMDqy4zb9jjoAqhq3n2JPodhMQx2ARPdcodIE6RDYdV3VHAx+Ta5aAWB2RxemcctWNQC9wt2DihSKzZAmFQBfd3e4uYlf090tej0AhHS8WFSbcwgAvyjXPfMUiqPhAUDszrezya9psnVcXP3dfVaNAOhUXpPLenOtHgC8gt35CnI1rPqICQgIDEaDQafWdcyUZdsWUwfD8N1ulsqlUrFAyLQaGW1v9L3PQxC3PmsdR+gurpruDg90sue5k+tNmZoRo8Xd7kCxAUJACM/zPMdznE5v0GvVmk4TB9j2FzynaG5paqpvUmh0er1CZ98nybwkch+f4IDAYF9R2z0v9pLJpCKZQCAQCFiGYdxaDAYIkxff7c+U+bd2cdUcFHNoOnyJpgNNAABRuL9z+uKmEEIIz3GcwWg0GPQavV6nVba0KBUtisYWlVZvMCj7J7im0XSzUeglkXh5BAb4BPr6ent6eHiIxWKxSMCyVEAtQaoBiDzd2SvVMfPIdVXTnddPbsVYCnSsWUBKNgMAmNCZMid1yW3gecJzRoNBr9fpdGqNTq/TtChUapVC2azW6g1GncpZPTM2tv0p9pB6ePr4+3j7+vlIPWQeconMQywWCll3dy05GOMhAMEx7roARjsmQXJd1RwM1YKU2wF4hbZ9C92BEgCAz23TXffEOw+O53ijzqDRajValUqj1enULSqNRq1WqbQGg9Go0zu7h13Rt/VIIhNIZR5eci8fDz8vD08vby8PTw+pmOonAEB1BkBUiDvbmm7k13TzEU/NSQDDYtsuluofTDMsp9wb4LQ+uRQ8zxuNer1arVarVM0qjVanUzZrdXqtVqPVG428Udf30YZcJBSKJTJvuVwukwo63Lik/eoiHa609s2EGJXNimaFRmPQq3voiK7NY8pIxCKJTO4plXv7ecm9AgN9fHy9ZO4sGH2nvhhAUpA7386mnB638Gu6OdXNACaFtF0sn50CAIx51dc5/XEViF7d3KxoVCiam9UqrVahMBj0Br3WwHE8b7TVQ8nIpUKRRCb38/LylHt0ksOOT1vWWy6ViMUyqVgsFgnt8zwSXq/Va1Q6tUbT1GZV8kZVY3Njo1Kp0ym7yycmWm3rR4tEQrHMQyr1CYtJTAn1lQ7Zu61ZCcDfrb1SLRoAjOkXdN3fcTCsUWkEAN+2aHnTF3oAwui3RjqtR05Hp6ovKiioqKzRcAYjZzTyHE84Ww1KkadEJJHJffx9fLy9vL29pGKRWCoWCoQC1rIcmsI0fTBzCCE8z5H2l5zBaNAYNBp1c11dU3VNo0KtVHY3aYFvNUBZkcTDKzQgLi051NtDLBp6g3YjALj39z5XDggiAwG4smq6r19TX8tHmCyfzgEL49M1AISrFk10QqecCyGE6BUNZeezC6qVVUaO460JJWP6jwEDRuYtlkg9vAP8/Py9fby95BKxSCRmWYZlGJMW9v+oj2G6uw6JSU15ntPq1Mrmpqqa+pqGFoWuSUUIiClJtBVep2upymeEQqHcz9PbPzgsICgszNdjiAXd3fq7ak9WAqIRpml+rquaAFx56pJluAW7vD6/CgCUWwBAZP4S/H+/IYD3S3cMpUxNnuf0Om1TQ2leTklZjdpCK4ZlGIZlWSErYFmhj6dYKpN7B/n5+nh7e3rKxEKh0PUen0ybCvi0buKNRp1O2VhbX1dV29isbFJxRqOR43ieAAAPTofmitbd/SOSR6RG+/lJJULWrfXEFnSAm6tmTaEO8Lyc+jX7B+Phami+HpvAANwJAPJQs0qe3awEZPNnDxHR5I06jUrZXF9dnFtSo7gwvZwVMaxQIBKJRGKh1MdDIpF5+vh5eXt5enl4iEUCodD9bjJWLG6tT2E0GNSqpvr6yppGRXODQqHQdvHXkvr6M795eAYkpMdHBvt7y8Wu91xwIBkAhF4iACC8wdg++UooFLjH71yYS4CINNMLF1dNN8zXLH8hC8YjG+9jgJPHAKQmmc5xxZvnCZhhdw93bvcGAM6oUzY21TfUFJdV1jUoLvgNZUKZt6+Pr7dUKpf5eHl6+splMolIKBAMIuEQCmWmwRxnNGhbaosKymsr6hqVms4nQ62uyfpb4BOakJgQGhbiJxe549jKBoxbAAQlymDUNJaXVbbwBGAYQiDy9/Pz8/YWMWAkUlf++Y15JQAmm+vwuK5qummWO3ekAGCiL2UA448EEI2OYQCg/NOtWjC+86c5u4P9CTHqlHU1FdU1NVXV9Qr9BXnorNzbOzAoxi8wJCTYSywSClg3sTR6j0Ag8QyMn2TUNdWWlVVWNyrVLUq1Tq9tt725hoZz8PQOjYuIjIgOD5S5fyr4BTSdAxAbm1VcWlyaW9zQbnUzcrl3YFCAhAXrE5ee7OuyTw1FdiPAzjYLu+uqpntGg7iizeWAcGQ0AygOESBiXhQLgNv9bQ0gWX6jxNk97C/0yoaS8vLaypr6uhb1BRk5UplHQEREaHCQv7+/r2xwD0e7QyiUR4zm9GqVSqNSKtSqprry4kqFqk0/lMqKE6zcNzQ4Liw2McJ3kKV3NtQBiPq8qLyuqfOVQZTK6lzTn0L/+JEjp8R6iF3yq5ef4ADZOPMr11VNAG7oQCb5J7WAbIkIQH09gJRRQgCo3FZGgPQnkpzbvX6BaFXVxbkFJTXNCoVOd0EKjiw4KCwmJtwvwMfLUywa/JEPywhksgAAhOc5o66lobauND+3uKrN6uQVilJIpT7+AZFx6ckRnoPHAW4AgH01VqvlGmtqTvhGRURFxyZG+7uacnJ5ZwAMjza/dHHVdLuqxFzmOQJETgXMK615eACA8fgWDpB8mOjMvvUHnLIi53R2VX29WnuBXrL+HkGxiYnhwd5yqUQ8mLyWfYMRCETwDIjjOJ1WXVdRcDajoroth16rbSpmxBJPeUx4+ujEIM9B8ZAxEgAVPTbT19ScEkulHv5zbkpyLWHS5jcCWNb6HHOtznWAFTMEaHJ2N+xFU6UFsNgLAHgCQCAAQDLfqACY+RMGxT1ghvD6qpM7DxTrjEa+vSQlGLAMKw6KiExOiw30lgkF7FA2L60hEIi9ED2aM6obi88dyCpR8+bzSHS6FuQLBCJ5VPLUEbG+Ujc/hdwO80OBYVlRxOSp4WLGNIGL15UW5lfU1RkAYprrwGk0QMGZL+ZdN8LHw9rchYGl+ZgRkM9q7Y3LqqY4KqAOOH6di5w2myEAsEAOAAIGAMcBUO05SIDYN1xt4NFbCG9QN5Xu332qptNmgVAsEYf4x6ekxgd6Sdztl3MOjEAg9ghMmne/si735JmyUqVGbzCld/IGraLq6A/C0PCRY5IjAmQSkXueUb5m7WotAAgD48dNTY/y6jzo4LTKJg0hyrM7z1arTGNLotP9/KtPTELyyORoH1fIQCMV+wGMaB2gu65qCsOC64ADWnebu8oCgCkM2pqWxhVveJAAwpuinNYrx8FzenVLU3XxieOl9e0GJisSy729AyNj4uMjfGUue1G5MIyXV9x8g6Ii52RBaUOzQtc6lx3GsrIjkESmjx4WFeTrKXa/c6t7930VAHhN/vdE+YUSKJDLQwBg5q25O3aXNqtUGgMBwDc2ngL8Fl42KtL5ZTn1hysBZopX62uX/RGYyOQsgtyKBGd3xE46LHdUbgQgFkP14k8EYFPnS53ZMQdA1I311bU1hQXFlU3tTkyBt29gSEhwTHysv9w1A6Bug8jff/gydVNZbn5VYW1Ns6ot8U6Xn7/Byz8+NS4iPNTP073Ocvl50xNA4RsgbRNN7kIvt3TEiNuq80pLy0pyylqvrsaf/pw4e9zIMCfL1I4PjIBsctv967KqiaB4gRGq026mmqQ9w5TboQLEQXLs264DMO2OJBcYa/QBTeHJc6Xl5fVaZfs2oXdoYkxMVESYn4dbL6XlQjByecQkg6aurLC0rLK0uqX1bHNNTQXbRH5hcZHRodERgXK3SetsgdhUEX/NuESz3HCHskbFBV7YVB4fT4zaqqP792e1hsdUO3fHTp06O86ZFofqmRyAHZ7cJpauq5qecd4NMO673L1Cr03FAOABAMrjWiBwpGTL65UAM/X56W5znXeDvuTYyZNZ1Z1mBbLhKSOGxcYFuc8N7DaIRN7xM3Sq+qqKqvyigqrmVtvLUFNzWuDpFRIcmpSUGOHnundvB0bffv686S+1+WvU/vxj4eg7lnfbmhGJvBIWnj5ZUlxRVaslAPiCgk1jU6dMjHRaJtZnZ3kg/NZ2q8d1z7swKaIB/DGVd89NXQdSchpAWAQANNXxQMRY9U+HjWCCL5/kvtqiqT6270xhbaepPpLYMZPSIoO8qYnZXzBSaUAyp1c01VWXns8oaG4zOpubyyDw9guOih42IsbP5bM62YbWoi1eAoBTNBxbs6eW7FR4LLB06bD+F01RNjc1VGeuywYA1G3ZvT5x5LyJAU652LZ8oANEly+Rt21xXdVkEmIyCCkrcat528aiQgDT/QFz4pGEf2udFvC6aZW7hbXMaCuzj57Iq2/Wtrse/D2jhqUnRQf6SN3Kv+aWCGSy4CTOoFJV5Z06mdWeJ841NhYeF3t4+qaPHpMc3Hfl1NxfteKa/rlEDWdqAYBh7rxCUntgw9mGlnoDYAxJt7aTVBpIiFG9cs93x4wAoCsuPfRrxLUPOkE2179SArBJ84PbN7muaiI4QmhAywm3Uk1DvQHAIiFgjgvl3Z2lBgTj/+V2S14QwqkqMg6eLq/WGs0jK5YVByelj0oO9/IQCNw7hdCdYIRCWWD0uBXahpJzhzOra3lT6TliMKhqmbO/yYOjx05OCfHoyy9CCr7jzhhu7he7talUAzCBocPu2bT9YJPelFnCCCU9paYxjFjsk3J1xq/ra4wE4FWqirPKh7qJwvcvij9OGoGE5y7pYCK4sGp6pvvVQH302oEa2fK81VK57TAC1qKRRQBA3v5nTZ0RwOjrfPvauwGFGDUttecP7M3Wtm8TSP1SZ85P8HXhK2YwwwiFUt/42feo6vJOnc6rUqr1HA+AGI3a+qzNkA0bNT49wsdD3Lv0xtLJepQ+L7+yP2RTFCjVwvfOxNXj2hfLkyb/a6Ut9zUjCpg1/Yl1P5Y1azmAaJ7f/3K894DqpvrLzXrA74ZlHa97F74H2PSgGhhKFP2/cjjhDBpFS2Nzg4YHGIYHAJaQ1v8zIK2bWUIAYZB/kK8HC1Z0YbFcBjBPpTQtasfzADtmfUS/fwcHYmwqyj57NLeyw3RWxjMkcczCMV6Wd6IMDHJ5zFyDsirzZH5FRbNC35oyqzlx4nvfkGGjEqKDfD0ldntOGgmAyo0RE+Q9NrUb+f0Zu6UX/1DSnqsmCVn4VLSVPTojiH5w1fFNp7IrdYBx04nbV0UPoGjxmz6oBkRTH+z0mS6smoj0BowVTf2nmpxWS8CrG+vqKquKyyqbm7tb/KUbvPyjkoPFEAYGhYUGyS8M8puks8psqLHR77uRaBJ1ydkDO853CJZLpP6h4SnTxgZTL6aLIPLzG7ZCUZGfnVNeXdmsNf9WhtrajDWS6ITUpKiwMDtXNouMzgLIT4f/e43jM3yEwUsbMn81v2Dk0WGe4TOW2tc9r9kzqg/u2JVrAGrey75upv+AmZvlG4p4IPXWzjFpV1ZNsQAAsVHJ7Mdw7lCBghBOUV1d32TXStsKRfE+APDwCYuLHT0zoqtuEgAwZjSbXl18pfvknBprTh06cbyq7TXrHRqdEBMXF+PnvhkAgxPG2zt1oaaxpKC4OL+sUtVqc+pyc7fJfSMTYqeMDrTj3hbPz+YBkv9iwaVjHfpLk5bys2d/zzXdxGxwUnL8mDg/b6ndqicIX3Hpzs83agHFbyfnL7h0gHRL8etaIyB5dFnnza6smgyD1sXbHY8xb+OmU3V9O7haXXlCED5t0bygbk6j8XQTALDzXxjjyie5I8acfw5l5bf5Mv0i0pKjo8ODfQdtTVA3R+DpGTVV21hdXlKad75Kaf7hjM3NxfvFSSMmT0+xOXQiXb79HA+g4NXTt8316LG5rajzdp4qza8wmSSiYZeMSor27bXrVHpJnHANAZD/8facG0Mc1UdraL/4rAkQTlzRZbsr39BCFgCn6Y9Da8+s2Z9X74hK8Vzp7we+HjtleLBne+CcAQB9hRYAE3HFSFc+xx3QnftlZ36D+TkiCB89ZkRkqJ/MTUtGDBkYmSx8lEHTWFuen3Euv6n1ktZnnt8eOfKSaTYmJYkmv/pYFgAYt0vHO0g1dUU7dxYUNZrMTFHinHHDUrz7NmUl9eVLVh8AgJzX9t968QDMFqr6oBDA9Be7nhFXvqM9w0UGKMtGOfq4XPOxL47UqjvZmaxXUMyIJJnQVMEKAGn/v+l/aP2T05Yfza9padvVUFJ6+AfvsMRRY5KDTMU7eACazTkMATBvmcunIQMA33Ly+z1VrYnU3gsWDw/xkrlCuRlKz7ASiW+cUaturi4+ebio0TQbgautPbc5cPTs8bGeNmiVeN5TT1ZwAFH9U//Aor6rgq5y95+Zdc3mgCIT/GlqoFffH8AJUVN++rgGQP2Go1OfGN/Xw/XIq0U8EPbI5K4dd2XVlMdIDGg4s9CBcyo5g7Ls2M6DtZqu3lK+RVk8fIVtSZWEN7Q01hk4TcnBjGINR0BUqsrc/QKhzxU3meLvgLFuez4BmNlP+rq69BBeX3/2n+1l5mUrBKK06xZGywb9gj6DDaGnZ3DC5BX6mpzjR07X6TkAuqqq8797xI+aNTrcs6dsTskC2fdZDXU8FDtrDfP7VAyZayrZvOWsSt+a5SsQJN81xzHpF+LkJ8a/eFpPYKxY1/zCuP51tque/p4DpE/OuUAkmX5yGzqEtfdXQHjN+74OO2Dp/k2HCi0GfuJXz7JToIky77sNpdr2c+gx528AH9xeteHtfAIIE294xKWdgoTTNFZmbDpcan4t8AqccuMkmmDk3hiaT/+6pVnRnjkmSZ42PTXIx6OHwUPLN9+dMgDArHdG9tpUIYr1b2e0fbTAyy9u6vwxnr09Wjdo1r2boQaA8Jfm9mftReOxq0oB6axXR1/wlkurZs6KTMLMft/q1Ct7IDf8YO1t2eUf+9p9TP3x789U17V0sl2vWfnRdj0Advh3I+0+4ACia6ooPLXvZHPrNSAIS11wWTyNlg8CjIVbt2WVK9vvbkFY4oSRqYk+1nWz5rKjBADGPT3mgswQmyCKjD+/rTS/YH0j4i6aE+/h6JS1sv99ZyqHPePr2P5Kh+Prjj56HmAnvD7zwjddWjVbrt7KIfm1yx01WDxw+zlrb89cndib30Bfe/ZEVlVNbaOu7Vx6twCAZOHyZS5stikzj2Yez2luey2Mn7BwZrgru2wodsA3ndxxvqysSd2+SZS+8KJRgdbUUPfXT/tqAEB89wu9KZujO7vlmxzTn6xPfMLYi9L7IW0eMH78z/4WAFhx96x+umB1X79awoMJePDhboJjLq2a/HOv6+D95MMOiqdk/mtn28iB8UuNkTAdYz6QLJjf2+ihUVlTUlScdyy/49mUTX1/WO87289w9Sd37zzR7qyQR6ckTZ3l58QeURyOvqEgOz+noLihPVkkefa0KVHWZoDXrv60BAAT9e+Vdsum7vj2bcdMKh2VFp88bli/rTVJir74qQCAIO2WBSn9Uksy6z9/G4GQBxand3N4l1ZNbLm6CeyNL4c54liGA+9vVZi+rTB6VHrisFBJp0g5xF59emzx2tqMvVsz2oSIDR0x+bJhjst9cyRc5a5tx3PauipPHTs8JSHMgwaABh28uq60oDAns7zevEEQPjxt3NhIy791484/NjQACFuxYopdPnlD9l9/nzDljCZePzIp3Ltfhy2NX7xTAQABjzzYD/cYn//Wr42A72sru7WVXVs1y6eWAOP+N90Bh8r/cIspf5uNunhKYmSgRz/8pqQp/3zO4a3tA/WE5MvnBLneRMTsn3YVVrVqZsjIacNjIvzo4miDFcKpG6vLz5w8UWFyvjOyoJDUSXNjLOU7csVv/9AEQJp+zcpQ26+KotXbc03posKpj8/s/xWJ6058skkDsNH/vc7xFe70a+5vIhBc8m33oy/XVk3uqrVA8FvX9t0Gr37+GzUAiEbePCvMq99K6RKD9ofnq8G2DolE/olXXh7lUuXodVk/rKsxhwmYoBnzRkX60jSjwQ7hNIrqM2t2tRaWlnj6pd0x14JukvqTt5QDYH3Sbr/exmuXz3x2q2lap2TqqqlRAxFR5Ks/flsFIOitqxydp8LtuKWCAFN/jLJg8hCX5gcAzNMtfT2M9vh4EQAIg/5bqecd0THL6Ar3bMlYd4m3OaeXlQTdWcT170fajqF+yzVB5kta4DHnhyKFoZ9PB8VV4A2Ne27zbdMzQcBVO1osXJhcdgILAIIRpbYdW3erKZWekQ77uNbguD5bp/E2LwDwvsrGXtpK9Y2+ABCwx9K94eKquQ8AHq3v41EabzMpmOeqBof0ygZ0GS9OaItWJvxZ6wq6ybWcf3+MuU+MR9T129XO7hFloMl/dHh424LkXtdsrjR220z11SQ/FgCm2nLvGcseNR3Qc8qPChs7whv1xr4/sPdFAoDXhj4fqCP6nV4AEPlgmaUWrj1Cx6EpAB79T59iu8aC1R+rAEhSFj05gIsQ8VWb/8gvUQAApNdcOzLEyaNgriFr27oM09+CwLhJ14x1i6meFMfC153ad6K4usE8PXzxXSOCux2E1/3402kNILnz/oQeLly+4vTbe4wAPJMX3mdj4JZvLKrQyXz9vD0ZAAJJb0f03K77sgmQtCW2lwe4EGP50fuqASb2peUWB/4urprHJgB44OluFgG1mYrd3+zWAgi4+KHxA+xgVJ785+CZBgBA8HU3pTlTpbiSwwc35plfJIyePT+OJrMPVYzNOYePn8rVAQATvnjh+LDu7gvjiXc3NgEeCx8ZYy3aQpqO/byuEQB8Vzw0zJYbjOe0dWf27iwkIv+wqAgBA4hDE3q79pHu10drCZiVD41yVHS38bXVjQSM/2P3WM61dnHVzB3fAlz3ckzvj1D78Yc1AOBz/cNxA2/taXN3bt/TBADyKVcttiMi6Vj4qj1/ba8x/dSCxFkLJobSZPYhDa84uGXHeR0ACKOnTZ8R351Zdf7JjXpAMuaaZVEWL1zDwb83ZesBiMZcvSSxx8/V1FfX19RXFh4u7rRZHjN+9Mi07uot9gRf/Nm3FYB0xQe+9u/cHdo/XzhHgPg7Lhlm2a5wcdVsmH0WmPDx2N7KDSl6888yAIIxd89yTm1gY8G2L09xABAxYelNTukCV7tt4+ESU4K/14TZE8f1xXSnDA5I48m/15aaChsGD59y6YgLExP5A08dMAIImrRiiaUFFSpu36kBAOkVd/a4dDVfu29nSUNzs0p5YSkI1ic6ceT0Ub0o0l7+/PcaIORfVkxD2+Fyfv31HMBEv7TcajqTQ/2oDkd7AwD/db2Nyqn/N9mUAnvDUb1D+2VXJ46uNJ/ryB8GLLzYhr5y879nR5svaK8VX55poUFzCiGEcNU7/t06/PIaueLbygsilsaPzAGF1BOWLpqbTfeX7O6ini4r3fl3LomzNgxnfIYtffm4yt6vwZ+ZKwAQ9KqtcShraL8LZAB4rKqx2szFVdP4GQsI3lD2cveqeNNVcXGVM6WCr94013RhhD86sGFrY8XaO8eGt2Yci1fuqNRSzaS0wjWdeLjViBQGTX49t+tDvfm0qYq5ID6v+yN8LgMA75t21vXwUartNyb5dfR6ei1+7NqJAV3SIYU+cfO/rrIz30T9aigDIPDa431OVCm+K5oBwPxV1X1qQSsurpr8Pi8A11X2bufsFAaAIPlvRzyG+gJX93E8CwCiUb/qBuxT+ZoHwlorCzOiiIfOaVwh/4niQvDakzf4m+d8MGK/G05puzRQ/JrCAkDof7pJQdI97g9AOGKtwvqFpa9aM7V1Lh4jEIql8thHf3tmUrerELPSlBfPKu16tuvOxQGA1xddO28v3C45AMj/6GlI6OKqSYomAUg+2xsLyXB0OACILzvlAmLB7VwUwAIQ31AwUL1RHmqrccVIkx8+O/DeAYobYMh9fXJbHMb/8azmzveaYd9ifwBM2uGu1w/f+FEYAMHswz18QssH8a3y6BE1esldr/58vDjzFa/OdqZHXFDbGmzS6zLsE8DCOAZAzJ4+3VrGmq0SAEzEqvM9yY2rq2bj/Qwg/sO6wdwdfOUfEwEg4NqdriEXqk/GCgHg6qwBkU1D3ts+5otQHjftrn0DZ+JS3Ayu8tvlI82xFCbxva4z8ZpNI+AxuzuHBvjCxwMBsCk/Wr85uZJXzAtbM4HjHtxdqTKSik1PR7YqpCR6zBgvAMPXfHfn1PDWMXzaN/bNpzsUwgBYeMB+nWin7n5vAIz/Rz170VxdNbVfigE8qLF7x/qXQxgA/s8P2HSgHtkykgGA6/5q7PeP0md/u9QUFJUPX/z4mkKqmRRrKA/+d65pGoZg1Af76zsrVp0pPD3l++IOoqTYeL0HAPg8bd0s1Oy93jS1RJp+xZsZekKI4ewDwa2a6TXp/h9PHbtIAIR+xGnOrb55iq/pDc9rfy+3Qzdrn4sBIJhUa8d37gxX+FUqAyDpqVM9W1murprcnhgAo+0+G7WvJQOA/JXm/uhV79D/cRMAsKnH+vmD1KffN6eKeC14+Z9i+x85lCGH9tynN8QJAEA24d7VGR2VQ3vgWV8ATOQ37VcSf2YcACD6lVPWh7P1T5gc+uP/s6HCSAghJR8sMK2HIZ5y071vHtAQYvivFyC+u4UQ0nLojSXmvLjYr+y5bhue9QIgeqbJjn06ofkgkgGYxK9tide6umqSoisAeJ6ybye+5vZgAPB419lxoM4U3wkAgsuq+/NDNMcfn2W+8kJePKujQXOKTRhLf11gqoLEhlz01OGOwxPF+0IA7OS9bcZmyx0yABixrqeMvtwFDICod/eZMt64rHvM16Zs1pqyRpM474gAsKSEEEKI9vz31/kAgHDsX3aMkPjclSIAnndu6mWWyskFAgA+9/WUDEAIcQPVbHgCALbatQ///SzTz7/AetrVgMMX3SMEwCztP9k07rixbW2r+f809tvnUAYf+vPft1ZL8J7+eUf5Ub8rBoARB83PYP49TwC4ZG+Po+jGt0KBeZtNw3j10XvHmxyokos/P92WOVwQD2DGcfMrY/GPplktyX/bkWSt+z6JBSBbZZPsXcD55XIAvj/n2xQEcXnVbH4WADbbtY9qMQsAgV+V9sU73B9o/xgpACCa80c/eRob3h7WmkksvaHM1b4+xcVpeqm1/IYg/LYjHRTk3GwhAMQ+btLSV0IBMMP29HyB8XlXRN10xtRuw/wY84ybufvLO7hDm2azgOyOktbXutMzWQCIvNl2/xrfcmQaAHj/p7t9jOWZmZmZmaUWfLB83lIJAOEyGwf4Lq+aLc8BwN/27KK8QQpAMG6z8+YDWcRQfqsIgOSmxn44ONe8aZYp+Y6VJjyTQQvBUeyE15V9Ot1XzABgxKN+aZ+owzW+LwUA71ebeULKhzMAM/uwLfEaXtOo4gkhhob/RZuSjQSe19V38hvxDwkBRP3epsG84nsPABA81mi7g4nPm8gCED1VfYGW190j9/Dw8PDwmrS6u6lx/DtyAQB2UbONn+byqql+SwDgTTv2UD7vB0C44GR/dalv1K2SAYj6yuH5UMb67eYpSEzA9PcLqZ1J6RXa00+kmYp5yDpOZVa9G8gAkF51oqXyUiHAJKyxJznIsH2i+eL0XHy467V5PFgACKd2CCzpfgpjAQjmHWm0+SOa3hkLAMLpXQNUzUvapsjLH+5mymb+cAYAMyrb1k9yedU0/hYOYLbtZmP1e0kMIJvzl6uGQWouFgDsZZmO7Z+xaut9AaYrI2zhp71z7lAohBCi23FTMAsAj1d02Kp80RcAEPX+Y94AvP9rz1imZf/9UgAQRMx6MveCd/UvjAVSN3UUU82nwQCAoOdrbb9RSiYCgMd7XQbia9srkwiWF3XdictdIQAgH/+hzRO3XV41ybEZAHxtfgw0vREMQHDRMVcVTaL7ORaA16NlDuwhX/HbvXGm8Y/n3I/7vGIIZYijfMM0JWN9B3PScOzfpkV0k2MZwHvlITuOx+8dIQCA6FVfFndnAGn/vGr521UdtxjPPT9aBABR/8mz3abNmMMCCN/eaaNhVXs1JslFO7vedk23ywF4XnfW9o9xfdWsu18AiN6zsXXtaykAELOpX/vUN4xvCgGE/uo4t6v+2P1mnxGb8PhZOjan9BXVlvtigUWdx7r6Py9lAIABREt6nHbYDlfwydVCAEzsZ5bMOWNdZdf0TMP2q2QA4HnFj422fpJxcywDYOaWjhvrpzBA6LJbb7t5qk/cr13uDv2Jl2NNomnrZxB3UE3jZ8EAu8K2mHOtKU8z4AcXmHpumfppAJgphxzVybp3p5vGIILkh/+yY0BDoViCr30zPH5r1wd7xhSzzZZiu6VpyHprcRADQHj9H/bVgctZajIFUm1O1+ZrP0wBILikozoXpgCYsa+quuLwd2u7FiFpft6PAdjpx4kduL5qksNTAaTZsgwdv86cp7nE7ip9Awq/zgsARp5xyNEM38wKNjs0H9ntEsu6UQYDdQcOXzhH5PQ7EQAgXFLVzR7d0/hMOAsAbPp6e9Ptcr6KBQDhxGKbd2l63huAf8fw8fkkAAsLCSHkggXeNF9HMwCCXrBLMdxANYuXAIg+bUNLzTIBAAR+Veri9lbhMjEApH7qgOSg8n+FmzOTFx1ppJpJ6Vf4DFMGunDyZzZ5z/maD6b6MQAguyPTvgJwhBCiO3gxAGCcxeUiL6D8eiHApHVw0e2NBbC4vLveZdwUCgBBOxvs6pqFVdJdCW9vBmjZ1fNSHcZXt3OAcPwPK9sqqrgoMV++KgWQ/VlLHw/E1X294P0KAjCyS/atGe/rBj8nxbXgOXsWwWl6/CQBAOPRtRUXrmNxYfM3pjx8sJEAwqDLb0qU231bisc/OVUK4OSsd7U27hK2KFEAkv3gt63dI7sbAVliN2t4ENW5X6sA+C1P97Ova/ZIrHPQv+QLsPN7rF3E/TOMceE8zc4o3/ADIH+qT1OE+KZ1481X18hPXahMCcVt4PP+WXesrMXm5OGNEgB+cgBM1LuNPTQ2lP1lUiNB8q3HexujbPyPNwDBJQU277EungHYa1pD78rrxUDY6m4attwiAcBE7bHXBnYD1SR7RgFI3dFTs/wlAkA06U8XH52baX5IBjDpu/vQW92Jp0MBAGzSDTtp4JzSCxonAaGLXvj9eGVjsw2l/guSAQhuuEwMANEvnbRalqj6r0tMs3ul423xr1mi6Uk/AJ6P2Fzy0fCcNwCs3G1yy5bPAjC8u9LJB0MBMMG/2G26uMMKr+NHZ+lRfWim1cWW+dKP93NgIp68bKC61Tc8lhw7ZCR574Um925/osg8+vNBAIDf/OvnSR3YNcqQQbv6KFC1caNn8gQ/oX9MSpTc6k2W+XouwEZdQcK+0wAlT+14YrbFhSn5ws+/qyAAZKlTFsf3oY8+j+T9qYNybfDKcNuG0cL79+7igJ8zV49lATRpAUgvHKBzp16oBZhRK0bbsop750+wdwcnIJvzTw2UOQpfa430W75rADyuXzhAneorwln3lZRAt+PPB6yt22cJrv747l0nTZ6bYTffGOrYvlGGChUv8gAA5YkTgDgkPSV9WJy/xJJ3XP/pWgKE3TIxdFr+dgA48vYE3+6bktot63Y2AhAMXzF9nFef4gw+92g2EBS9F7XCxlvF67HYLwAu66d0GYCcekAQcGE/Fe/v4sAErLzHw+4euYNqYqRnDQw1Lb5Wmhj2flJDgAl3SwaqU32FXbTzKz2a1k2b0nPbrtSv2Z6Vb3KPx6+4eJr9PzuFAgCdrCx9aenWoMjwmJHpgULIvKUXiOe+7SpAtui2UPi8NPPLYkCx68dbu7/huNMv5gAAG3/bTX1dqFw42/t0KUjlu2HTbZMr0YI04eccdF+OuR7QH6kEJMN8u3bw/E9bNYD31ct7MUxzC9UMFAHIOxJuubP84QezAHg/HT5gneozXvduKgY5vjoi2t49z724q8ZkI8gX3jHezvAfhdKGz7RNnV5zVVWM1NdfxkASlT4uUgSWEDAMD5YQhvmxgICd+IAyhzE2VBsAQPtB8ozuZFP53LYCAGCveiBJ3s37djL61TuV4A/fv/A5Gw8Wft2+LB5NL2pvQ2WWGvC8qKt2GLetrgUE4+7vjfPALVTTLz6XR9GP8aMsOSBIxjXlAMQXjxrIbvWVtKUf66Fb6/tkkF27KVd/UGYamzMRD6wMdotfkOKaCOceaRBdu6B6z8Hq1k1Eo6kEwAg3eIi7PI8NWsC7aDEAoleYhjqlx6Z3c1jts5+oAWD8K6MCHfFMZ6dP22EAMgpCHrToR+2EYOIbzxwD8r660uf0OQIETerSgNv/Qy0BE7Qgqlcdsjd85BQ+kwPwetdS/r7ycT8A8Pha4R7x81a0d7MAAu1YkJTXV78Xb7pwhJ4z1la7xvKbFLel9qOLZ+zkDLrqY7v+fHq8v4fITpETXn5hNQX1l7FCAIz8ohOOmnXBN3/owQCQXV1hY/UG/epQALK71c+JAcH9XYSBq3lWCCD4fO9uIPdQzYZJDICUP7pPdOBPD2cABK12u2XFSqcxAJ60cTYXpyo/sdo8Z1QSffVW1542SnE7VFlf3TI2NuBCh6Zlxjd1FUa+cf88IQD4/8/myms2oH7XDwCQ/IeNlpHqEQ8A4R8tAyDb26WPuStEAIT393JuHmPPxACnof39sUpAMP/tlO4ehfn3bTOCiXjyZreLinDbrmkC4rYk2tK44nT2nuPlHAAIwuasmtKb2DuFYhVDY97xjGIl4fUNDSrOcjvGIyhQxECy6voub5Dqzz6uJoA4/pJb0uxO6bEMd/qrf4qNgMf1z0TYtseO13brwCapyoDkY50jUtzvtyoBwfC/I3vXGffwikkvP/eWDtzuzdHdCGPleweMgOc117udaEKQMvsPoHDdYz03NWR+/nu1+REnmXTTMr9+7RhliCIKDp6ia1ERoyL3fEkzD2I2UwiDfXVA/EhzO2ncqFQ5A++uLnnl4T/XVAEQjX9qvkO1RTB2xJyPd+uh/iP4LtvyNueIq88QPp8AWNIljK/4QAkwc1Z1vYmMWg0DIpX3ZGy7h60JknXHIa57q6xk9dflBL5X3zbGgU+2gUL348NNQMrRHpIzSPPZPTsOqU0vZBPnLBjvht+V4lYQg1rdUTVf/AzAM7ebXkDq031Y5tzNRwHA8755sxxvkJ247xABE/qWjXmb3A8PNAMAxDumdXpD//V9BiD840Vdunh0b6GaAZHNnddTslTvBvYDTss3cQDY5T92LV5l+CmSAYQrbK8l5UrwZxYAEL1ivZXh+5XjWlMuRONfPeZ2/luKu8MfiQYQedJ6q5avl5gE7fL+WVJ732gAzMR9Nk4f1sw33TMXdVkQpjINgODBis4eUvWvs82257AXewgSuYtq8nXPyACw6V90kc38KwQAUs716eiqkuyCBqfM5FY8IwUQt9Fam8ZnosympXjCoz+e6G6VPQqlX9F9wAK4s4e54KVjWQBIXZ3dTzfTWi8AGPV019rCFtjrBwCiHzqJoOLbhSIA6Vs63ke8cuPVMa0DOCZ8nfXjuodfE2B85u7az4HPXnupZ8ftut1bOED6eWrvD63N/m1PCc/4zr47eeDzxeWz/jnOo+R5wXwLDXS5320oVpr+nvd8hJ9MSJPaKQNOy088IJ5rfeRafcdZHmCSnr9M1k/dGDfnHz1wpuzmbuq+dcOEaz8CkDq+o8qpfn3nvBGQLprQfiM1Z/+z91ydofUlqV2/yLoTwD6tdyJc+fUiAIKkt8rbH2T8sUQAgmUWVofv+aDa6l+newgZAIwg9ImSgTfjuD9SGUB8y4VlswnhtTV/zjXXU2DlkY+7WToqZfCwkQVwkdU1DxUfpwgAiG8v67/a2HzLBx4AEHVGY8u9oLseAKTftOd48o3vxbIAJHO3t27kVf+LkZhtEbHEtDDSZOsll91HNYny2zFCABDOWtcmMc2LADBT83t5yOqdzw9rj6swoQ85YXVHw//5AUj7+4JLjWs89eoI81NSGL7gqwpaqJ3iJAxLAIjfspIhzDcfXS4AIF/4uwMWKLCM4mUvAEzE27Z8SqYpuTm2famZmv94AYBoSaV5A99wdFVr8g0beecVPgwA0c3WQwdupJpE+fPlpjmvnm1lRLdIAIT81rvVHg2Zt3dJVgp0zEo+9tFyiQCQ3HZBhf6W12Nb++Ux+7d+vRQpFKvkegEYba16r3ZNCgtAfqeNLsfeottzRygAwcLzPbflHgDAALiqVSAUH4cxAMRjvjYZXnzz4cfDzDeZIPqSH7JnA4Ag6i/rB3YXvyYAyK+efOVJIwDlmuQQAEDj6zpAsHiKbZNTu5C/66c9JlcGGz5MVnOuBWj4+vWBT+nxuulENXSb5l3R6aMNWfs/KzH1LnTMiOUTBrxbFEor/B9qgJ1sxe+vPrI2jwcEE5+2zePYa8QzRie+WQPu8KcP95iirtgOILga2HR2LAAYzm/4oBKAePatl8oBQHVwz5bTWgAQRyTEzFwUWJ16qgmYdPmCHo7cN+UfYJRrlpiSA34lhBBi/J8HgNg/ehWwK3rA13QGBMMf+iGzaN/tvgAzptah/bUNzSoA7MqijtsM+670MS0ekHrvN3l9WieDQukj1ZMYIORzK/k4BQsFAER3bxqAab4N10oBJuLrHueQ5/gBmM8Cgrs0hBBSc5UUAEL/fVhHCCHaI0+PMFkqggnP/ZrRzBHCZ14SMf3WHT1NBXUnWxOQL0k/9M1uAKag8r7PNIDniim9sA/5U29taQIArxmzx4/2ZRAlydkNUlsX6MDu2oj0zh+14Del3+PTuoVU/vXLERUA2dhLJo4JoFFzilPZlkeAUVOsiEX5YQ4QDL9j9AD0xvux+i0glWsn9ZQ4c9QAIDK8DNymZfOhXf/XBi0A0V0P+gLQH157+IwKACBe/Nhocxgo/tm60IjgHifiO0D7BxTNgcsY9j+lhBCiWSUB2PlnexFZVr45QgoAkiv/yVOZ9q+8CkC4zevVOxLNCiHApJ5s/SJ83qooIQBE/3CuhcaAKE5GdYUI8HraWoTkBRZg7z08QAVlDnsA8H6o2nor/SoRIH/+RjEgvkFz5l/xQgBgbizkCTFkPDXanB7lufxn21dyM+FetiYA6cQrT4feHAEAeWd0QPDlw3phitV+cZ4AYFa+5t/pucI4ZWlc6QuFJ0CKcoabf42qm4/pCIDARfOCndEfCqUjWdkGIM7a2lSGLTzgP2NMrwIM9jNu4V8GKH5YFmj1dm05aQTCRwzfnw/92fPvr1ESAPCZEsqQgnc21qoIAAjGPDQn0N5uu51qQrDyKkbEADCszQUE46+zf3xOlHedJ4B4+Fdprd9fe/bHgwCIlTIvXY5BGMcNnJOeuEkL7dZLhQBAGr4+ogcginr4em+HfQSF0ksM64sBYfJoK03KjgGYONJhokkUCrGXxOINJvhYtYWQ2h9H+VhqAQCNagLEjAgaXsSh8I9TCgBgYp5ZyRf98FEVDwCM96R7Z3vabyk5xbbqG6zEVGO6eH8z4HuJr/1HaLljOwGk169rTYeE8u/7PiqF7bYmUZ3blmvouZ2NCBPiAOwz1RpQf/iCHmCDlv19jw/1aFKcTtH+FiBgsZUnOP+RFhCNCrPcwi74+gO3DZv0dq3lFoFP+AH45ZTVwzAAoGnyWuwPNO8vAwA26l/XNr499ekKHoAwZNLbvy/x7oUEuqFqmuH2ZQJM/OX276ndus0IyC99NLpVlEj2qyf0AEBsLAHV8v1NC54sM/3N61U6m03U7mHCJjNA/lkA4HLW6gDRqMff6LaYKIUysHB7swE2/mIrTer+AuCf7GmliR0YMt5cvEZR+O6vSotN2JTFQqDpHaO14wgZAOd/KVoUzwDnbhcBkrQVwzY89nolAcAEz39106reddn9RuitNB6pAsSX2v184/K2v1oHCKb8Z1jrJs3hP0+bzj9r2wRa7bcvV2PvL/d486q6ioq6Zs+A8LBAT3tXD+iA70ixDobVsyXgiv+XQ8BEPXANXeKc4gooT9cAkkXWVo/OaASY8ZNtFhNObVp1CJJu1l/nst/a2Ayg5odZwy3eUSHXH84GthRZq+ftm5jLofFnXLf4tBbVdVdXahXximfOtQCAIGz8RZdH9dZmdFvVJNnHOUC+zO4vrv/j7VqACb20TTTR+Nw+k7HIDA+w5RB1X/6vCmio1DbtOVZWWtmiE3mFRIXHp44I7a3SSdPizgPb984Dd/SABpDPnTlAjnUKxTqVhUbAa7GVG43fqwTk4+NsPCB3ZneeKeWHkSXOumAJRf3fW+oJAGQWDrMoT4KRc3J5aKzW8xbN2d8IvvzLs9GeWnDHh0lRs8HsVZPOuXpmVO8ntLitamqOZACYnGL3jsf+qCNA7PMzW1ckNZz66ph5hC22Fidsw/j527UAIkd+vSuzwggAWkXFSYFXaHTKFTPt7g8AgB29oFCHlp9miYxHKwA2/c4YWneY4gqQojwCJCVZaaI6pgNC0m2sFZz354azjWZPGOP3943LOjtMjQfX15jeVZQZLctT4MTfa4C191hZ6lc8Z9tWA0jDZsgBnDnW/s6Euyam9kX53FY1K3aoAdzW/Rr2VihcfYIHQj+Y27anYc2PKvOfY2xZUl7/7ad1AOMpfKeqoYMblGtqOr/36H8X9k7tAi/elgn+YF2YoVoNeC4aRkWT4hIYCsoBzLC2vExhIQcm3MYMQN2m/5kC2ABAGvbUenYeL2q2nuIBlgdgtBJlEIwbtRXI23GZ5SbCtCe1RxUAoAKgb9suv/TJ9L6N5Nw1GsSdPwAgrbvFmK1S9ux6PSCaP6NdbiuOtsAUcBO8aYuF1/xbCQHkXtVZ9V1/Vc3R+z/Qd7tTT7DpCQAUDfD89xyB5+O391eBQgrFPlTFKoCdbk0Sd1cDggibVhY3Hr75/yr5jhvO/d/2Dq/53Kc+1wLCNABgrX1o/DAR0PydykoT0eS3r+kS+WfDl3+8/YNRfXR/uautqc1qAZib7V1zzHhinRIQ3PNm+/fW/XyKmNdPmju854eIYc8LB3jAx7uMAGAk8vDUsQmVR3NKVVoDAVf4yJqXpvXmpErEAEAgSHvt7n8vpZYmxUVoyOMA7zQrLTSZSsB3ktXcSTNc4/E/dQDEHiZBVBrAnV75efsCPnzGT3UAk3L3vbBua0J+6c4MYti/9nor0ioc+eEd7+9u0Ws5AAJvJnzW8hHeor4nWrurarYcMgLe0+xVl5wXlQA749/tX5vLO9xs/lP2cE+LLAEwHjltBARcKQB4JS68PNlLCPDK2ozth7ObAe74lpSQXvwsDAOAGABm/FH796ZQ+om6PACx1qKkLUVawN+mqlwlq/YZASZ+3k0yBoDhg181IHWnp7UdvmlPHcCkP8AB5tQhi8yYk69G9V9LrKk1Ixr/RVPlgQ0FZc3gZr8a7qDcKDdVTVJ3BsDwCDvlyfjCKYAJea5tniJRHP/gbwASHYApKTb4K+qyFAADFQBMmntLnLnSurd3wuKmj77NA7Qv625Is38EIPEUcDDW2L0fhdKfcNXVANKsuTX1RgBiGyrEcaWbDxgBJvS9BQIAXH3hZVmn9CDPjFhivvP4nF8AeL0/+X8AxD5W70fZin9ywOVnTLPWCBAGBo64uXrlPuCk2kroyC7c1K9JSsoBZrwtg4KOlGwwAgE3prV9a5L5yHoAolEAMNuGtCNSmMkD4AiAuR/+X2IHY1cQ8PTTEQyA955S2NkvAB7RckBzlu+5JYUycBgqmgBmXM86YYMBo3n/MT3ATn10OAuAK/jkrnuYyQDQYh6Kq7d+Vw1gdoL+CICQKOs23fjhQqDosNVMdxMSn8ksUH6uj5NR2nBT1eSytIAozd70yL9UAHvxnUFtG1R/nOMA3LUCAMQ2/PDGgiIABIBoyeuju+6w7OUlAAw7j9vZLwDiBF9Ae0pr/54USv+hydcDEhumqdkwq+7IBhXAhN90VzQDQP/n52dqzhsBoDU02/Df1TwgXxHckgkgroeKbbJLPICW881WG5mbjhQDhj81NjS1BXdVzRME8IuycyCsXkcAvznRbRs0736nAwQPPekHAEIbTobyfJP5r4RVIy7wqnqtfH45A6g/UtvXMQBMWghgKKJDdIpLoTpHgMCoHlXThgoO2p+KCJiJby2UAAB3eG05j+YDAAJMk3RUvz95lgOEk9NFtaUAUnoa9M/yBYyF5T1+MCBKSQSwpcCGprbgpqqpygIQGmxnMKi0CMCIce171X5QBbDp1wRuA+ATYYMIVxw0jaE9bvhmdjfjB8GwpREA9m60r2MAEBnEgtQX2b8jhdJvkMYCANE2+K56tkY37tIBPgsWRwkAcFlfnGp1R40xibLq+191gODK14axzRoA/j0lY0cOA1BUYIOVy8TPA9C4pueWNuGmqtlQDCDZpumPHTjaDAhT49tel19eQ4DkV8Y0bwcQGdOzanKFZwAAfv95a0K3BYlEl14hBZq+td/Y9IkWA005du9HofQfpLkJwAirYRRT+keP7sVjnxYD7Ng7TanI/PFNbffITD8Ahr13btUDbNzcVA9wACDuSZykMwHUV9pSe8xvWjiA32wZzduAm6rm+WaATbAzGGTYqwEChrdmHzS9NOk0AbzvuEi8px5gptswj1Zrmvvvd9uTQd0/Wxn/pWkAX1RoX9cASJM8AGWBzu4dKZR+g1RVAYi1OlnSVCisJyXRbt5rABO9KpwBAO7wO3UAGH9fAeudKAag2bhZBQgX7rpFDhgBsxpbg5kOoDHfFgtFMHYagIrzNjS1AfdUTbKbBzzj7UwkqMvQA6Hp5gG6sWBzJQH8L58i4n8FIB9hg+nacpAHIP3P65bP29jhIpCaIzaWnOvAcE/AUEfDQRQXgmgBQNbz8LsnvyYpOaEBRKtWAgCMxTvOAoD0uZ/SEz9eIgYM//ysAYTTVnizAGoACDx6dMB5AoDBpsh4SKoE0J20pWnPuGe+pvYogMg4O4NBJysJ2HBTbSm+9ug7ewH43/2YDxozASTZMDeV1J0FIF5+l5U28lEb66DMNNhWy6AD4RJAV6GwN5uKQulvrKebAwBIDzlzhoO7AITfb3rV8PhfPACkrDLer5gvB2k+/ncxgKSfwgCAPwAgIKbHIhMmWbXJQJFG+1WBO8k5ZNade6pmcyGAODtz3LlD9YA0yZR2pN/2dDEA6bz7fYCGKgCxNsyjJcXlADPiGWtGLjvarw66YoW9TleTG8f2JTgolAHAFkliem6oPLi+EcDlvgAAw/bNpnIN18pxGwA0//BhDgFkd5vC5uqDAMLDe1Q4BgBsS3EWRAdVgeSrHLKmjHuqZlMDAH87T4AyTw34TZEAQMP360t4gH1irg8AHQEgs6FgBndKB4iutC7X4R6AsdZ+1WQ6/J9CcQmIDujRj0fQ0widlL+0jwA+15heNr5hLtM+2fRP5a/vF3GAcMZVJvOyrBhgknq2inighxof7USFngVfUTOEVdMIACI7+66qNwJeyQCge2t1HQFE/3nUE2g9+Ta4eLX7CRAy3tr0MkDEoucBSzew6N1+FEq/wZUD8Aq0YVxrVbtI1hEOEC+IAQDDzp/PmTYHm8Z3P/9ytIIAwjtvNFfjOaEGhHGBPX4mCwC8bSGEwFChEc0F1oq/24x7qiYAG0JsXeAJAFYC6DZ+dKwJgHDCClM8XU1g2yOr4TSA1Ajr+tpbm9H++BGF0s8YTwPwCbKqmqbMI6uuJW6NBmAfvDUQALS//GLOFJlpKgjx+18cAOHwy8wrA3N7OcAvoedgLwFsvtO8IqRKqDPm29baOm6smvZiOsUCoGn1Tg6A/LmrzWuhnDMAHpE21EMpqAOYNLvH3vb0zz2TGiiDFEUOgFDr646TnsVLcQRA6CxT2YY/tptzhcSrZADw5EYOAJv6rylmNWo5zgMRST1rk+mDbZNNSbSnEto8vd1R2m5woZv0PU/ZnIM2TMVHq2Vu52CWYQAodv/1wOhNHCDwuXReuOnRZtinA3xibPBrHjMAsoQe6smxDACeRnUog4DmegBpNpSxtf64r8wDMH+UAID+2+dLYRLZCaYqHv+ayoKRXrfpBm+z/uVXEzCxCTZ8aM9N2tsOCwC4Wvunn3SD69ia9Xkq7Fz+ySTrowET9niB22ABoMScNCQc8dTlrd+9IdMAhKX2/ADhjwDwD+8hQ8nkCbD/cWT6OnScTnEh6qoABNuysoDVC7cFAPxlAFFmby3kTaUZ2Uv9AEAQvKypyWfyzcFt62wfVQASW2Zx2mU9hXkChpJGX9taW8VlVJPb+BmAqhuWL0mN8eiXQLLPxCNN5j8Z7wVXLmn76vn1BGy4DTODVEUAwsJsSvmy/yuY0ihoNIjiQugAQGL9ijf5Na1euGUAIBYAxj2PZ/OAxK8KCBhtVuN7LqmKD2lvrD+tAfzSbMlpAWw3UMQC2DLx0xZcRjUNbFgRAMW3f068aOooL+uiIwBsnRPQjsc9u/ebf1qPy99oK0wMcrIJkFitVm1GUQ0gIqiHVr3VPZsj+RTKgCKwfjeSHjOPjH8DkAVJoPz7zxwOEKYWAxgd16rGcZ1MFlWxAQi0YexnTjuxcXhm8n86xCBzGdUUjbv8pxoApHHzvhGLl0ZbdR56+amAFmsLLXUD43+/3+5mAPJRSxd28NToslWAzwgbHm0tjQC8rOcdAU16AGxv5yDQfE2Kq2FTbo+1C1dxEEBEMnvi92/LCSC8Je1fAJItVIJTNnCAvCfjpA27fFqOyexzGdUUJP1r7rp1TQCgOpK7OfKSUcMs+w+9Q8qA8jprazR3g2TFyNOlSkYSNmxkx7laqmIt4JNqS0lioOc0Uf5wLSAKdUg2LYXiXIQAoOtraLOuFgBXkfHW3woAgrQbjQAgt3CDczwAgS2xbrviG0IGAOeQOg8XSIDO7hXGHYQgJnr8jT9+bQDA1+8V7ku+Y7FFq84z5jhQVWnvpFI2JVFnZFhx52m1agUPiG1OJ+op0aFudz3gOYaqJmUQ4B9YB/RQUqbnfE0PBkD5S54lKoCR3XF9ykbA7GjsBt6eNEzbG3qGiQxQVoy09bhW6Oo8+Grll9kOOGyvYMJmvnHgv6a6zsbS3ffddsyS65adBKChyn7PrsDD20su6nyeCQHA9nGF5HaOnOWA4EX2+ydpxhLF5fD1A5DTYrVNz/ma3osA6EvOKQkgueiKkZ4bAfjEWFjARsPBRheXADCbpjYgjxIDDZmOuME63tz65rM337P2sZ/t9Bc6ENZn/LN/rooQMwCMtT9Pm/Flvqpbt8VYAaDOVw509wCAs37a1fsKAfGcVPuP3tuMJQql3/BNAlBS07MwWY0GCeYNM4uqOO3VX6aJarcCiE6wMAjPagQk8bYM/kwxdBuNTdFEL0Bd5Ii1g9pH6KR+2x/b64CGb5KuceKtKxz9yYFvT1bUGgGiP3QoeNWyGO8LXYkx/rUghc0OmaVjw4QwM7ZEuetK9IDnFb32F9NoEMWFEI3fCNRXcD0rgrWgjMcKw1e5jRwQMvnjMAB7mgBmTHL3jQ2ZTYA0wZYcUfsmL6d6AJriFgesid52d/OlX31ZwQNg0mc7984VzJhcs2Pj/nIeAGpe/3FBWljysC7GfEBULZDXEOeInpoSJ2x2kfbg16wsJkDIiL52ikJxBYQpIgM0eXprDiyGAcDrrR3G67ZL1xys4ySXTPIHYFivBzzTLETJNWUawHOULTekKcXZ1iC6hAHAOyJhs001W97/VAkAwuQxzULCgDAETKd/AYAwjEzmkMKe3aNXGQAQ0YLJ63aequEB8CWr4Tlm0fREkUza/sDzSD8BVFTxDuuK7aVArKeH8aWlAJJ9e9MFgNY8orgWbJRfDcg5rbVKGjIfAQdtrdXjMOH3r2o2eAYyAFBzlgPixlkYoKtr9IA00pbe2TdHkHVYwmaramq/+MbszmTyX0arSnb9F4RhvFMnhLd9cutWAIDIy4ZK+d1gVKgJAJCWzMxSg/l4PGk/lnLv4VFJIv8R06JbTU7BuB94NGVdZOcaGN1ia5YsIAIAvdXFnfQldQDGOCy2RKE4EzYovAY4b7VarGeMVIWWc7Otj+JZr7YU7HMNBGziMAsNOR4AY9MdxANO8WmZVVO3++0601/GzEzrewj8Y7tdnREQBE2c6UUEPl7dWoCcosXAgLAEDM+AsIQhAEOgzjqarzSppra8xkIkSn/0KEQhCfEXLTL9fII0mQrc5mscoZp6DrDt3PsEKoG6ZmuPwZw/tYBoWm/6YU8BFwplYPBJOQWU18dYuS7FwzxVUGRobL0Z+aPNgDzFavlM22p/aQB7bE3AQYM5s2py+ytt3YOrtWiLCzcFCcH4TFgYyYCAAXiWEBYgDHS5O841ddthrqVBY9M3MZSVHdj8+ZJZo0QAmzh6P3Awo4dSlzZRqwIEob42tPSNLQIKy9Is/0x1XxwiQJilx6gNUNWkuBLyVIagsXCslSbMKL9q6IvrbFVNbZ4W8B9pPY3dphs7A4BnuC1xI8CRhXHMqin7xRGHNNbWAmCOfi00qyZhzP+AN6gNfVd5Q0XVme+vvyxGguDL9wPqH+Y4ICc/vw4QBNnyk0um7ALKCi0vpKZ+81sdIFkWbKkBheJGNFVwgbEyNQznllmLIEQHsjxfWx5j41EVRXrAN9GSfWBr/iVg3AvAJ9zWipmOK2DbOkL/fTQHiCSSHo/Ja7Q9fCui6XVKFCvuspqnRtMlI4hvOnXqsZibbg+fkXYO+P0ZC9kLdqAvagFE0bW1/oE9LSXKzHvDCHVOi8WxRcEnzYDg+md75dakWe4U12LPXechGh5YAhywOg3PN/6IHtW5U2wcJ2l0BBBZLDRxqgCApIcitgDMJZNjE/sxOm0Bs2pK0xdUGAQjxo/yExCgPXjOs+3/AgDDK7YcqLVwZ6vrVL0xJ1kPf7lJrNngMfMDBQBDGN601vzef4obm7uKMCl6UX5PwrwsAu1fD/d5RKtr0AHk2G/Z8YvuS+7haPH+NSAZdZZU0/hZM8CMf8C3Vx2hWe4Ul6JmTSmB/oQMgBVLAYAkRaSHotzWxayNPADWUkazPrMCEI62pXhHYwmAYJvLfDiugG1r35m/qptlQT2V8wGAqaoGDUMYwphD66Y/CENQsiezhUBdWttdlJn1DA3q9qyyPsmT4sUMYQBxQNcKccOvOrl2e+EF+/A7rgkb618P/LDKhjLT1tHWaAHtHg0KvvJfOMbCJC8zAaO3AJllyd1LG7f/ZwD+D1jxe/YM9WtSXAP+wA4VAGgZgvJCq7GbUWIVtLVaG1WzQQuwnpa8keoSBSCZa4vrTUcAiG1e0sJxBWzbFJ8NC7Ntjw4ZBF1Inato4dB0PKPuwkxSRh4/It4DHfI/AVMQXeDlbcHENtZm5JTVHK/u5q2Giqhx4zcD2buW2dZry3AcAF4DQPV/m3+zniYmnb2dQ/XRyd1PL2h+pQ4QzZvoMnWkKJTewlUcPy1gCACI9NCvH2dtEBQuBHQ1atsq1pCsekAUZ8ncqS4HILQWfWrDzoq0jitg69A7XODrC2CUVmlsTeFsS7pkpF52fRTRtRTtOXmmWNHtu+xzSYiftl8J3U+XWLcO7YI/9c7VVlMtBROkKnC/L+92JN/y8SECxF5pQ1F4CsWlaTyat/NkmWklSR/vEmDdvdaMKnHP1dzb0Z1rAGRpFoxJPvc8gOCQ7t/tTBMP+2XQkVnuDoT1sGWgbw2Dom7Xwaq6gsYOPghR4rRwtaJxXwWApcvmiSCb8ccJcKfzhvfxwzpmSOo+VadZU002YcIu4OzXz3czKmj537vNgGjK1N46p+l66BSXQHEyc/v5OvMQTzxsydkSoGTzzVb2MF26Nh6+sUgDeI61JHZKBYB5NlWYOKwFpGE252zbPPWyR1xqNKmo5kAYPuufDGVtQ0fnqO+o+anxYVLOqPv7HgAXXSkCmBEppznU7eyrarZNDWIJgXrDuFusqV74DceU0H9zf3jXN/T7P9vWALDxF1soUG1DR3q7I4XiMPiy7VuPttS3BnwDLn4w+fNdTdCsv9KKOokZADqdbZ9QXMqD8beU/MJcdNtHmpgHbNEl3Qkd4Jtos42mc1i41WVUU1926uSmUoAwRK82dFAQ+fjLU6ND5CLT4iVXNjyDe5ZKAMB/3JZ6KI+oHDE/CABW5J0ipPz5+jt9LbeRzJjzJ1D19Bdd3zAcXq8BkPRLcq/XW6broVOcDn/y6SOK9kIcl1y6LJSd+fsR8IVVVlba9YuoBmprbfJN8bmlAJtuKbrEhFyxZ8pVNiUUNmUbgIgRNt8xpVpAGmlLSlNPuIJqEp3y/E/7zlywnZX5z7oyMiyw45g5cMVh9bXRAABm3k8NRH/m9FQHdSMwtaqK8OXvBay0Mtkg9rJdLSDf6d/37vhjGSq/fo4ATOrmKAd1hkIZYIiuvrrip9/NFiMr85p67ehYIYDk+OMcaci2opreqSeAvOxxtjin9KVNgGCWZeNi1G4bO6zUAfC2yQMKAOS0ChAH2TqTyBouoJqG0s0/HO4adWfkgd5BM2+IvcB3m/pn259J6Wf1KN45yUFZrtJ7+I8bQCpeC59v+ayIpi9ar4FhLX9zVJCn2FS7xFi374VzBGBC1/ZFNI0ENPGI4iSIKn/7z2daB9k+3rELpk80C4w8UqqCpohYvjaFF/3MozZD4WvDB2krlYCgF1W7L4AA9ixrqC3RAV5xjiis41zV1GmIpip7/bbGzjEQSVi0T+rMYYFe1o1vjxkb6qE4Uhzfpz60RYMEkvv1XzQABWv0I3xZgaz705t6b8UBI9Q//jVyQmpKvJzhFBUFu/5oBIApl9uccNsdCiMgkDtr2SbKkEZ7avfPZ83OTGFw4txhM0Lb3hNFeaigLTJa0ZuZMhW4nUsn2/DQN+gBwBFuNYN9JY80tUbAx4rFbDtOVc2NJ5q4lvPZ9a2vw8OjJCCMKGz02EAfG3o2J6ge/OGNt/Up+ag1GiT1F/u9KHpbC/7rv2dFCITj5nefUTb5urwKAIr9+0VxEwIYQ212vgoAxDP/b3yfrN5iLSAOcZSXlkKxGe7EtnUnzcM9JnjO3OkJHe8+NlpeC22xxopqRo7eD5zdlubT82c11wJgzGasSslzfr295Ku1gMDX5mCQutYISHsdrO2IM1VT+8W69qiPJDk1ZlRMpASAyEti2wMkck6eEbVrJkx0xLg2KEEGyY0H9hmBut8BjA2f0W074SLhN/t5ADDk5LRvFo99eGyfRJMv1gDiAGprUgYYY87m9QfNESAmbNaC2dFd7qck/2LC5Z7u/n4AAHjce0oF7ZolI3u8E0l+JoCgIIBrySrZ3cLxyTf2rpgEf6YZkMbavBiskQBgex2s7YgTVVP3+cE20RROvmpcqH/3hTktI75/ezb4I++/ZGu1le5ozeKKS2CBqFe++cY87T3r7cDuC75F3TzuzfVdFnoTJF29YFjfzqWhRAd4RLmAo5kypNDu/HxvPQ8AgjFzIxLSIi+4BCPCTnMkZ/1IK5bkRbM2ArnZ6T1evoaCEgDTArictcdKGkp4wHtE71RTl6cGvIbZJ4OOqV/rxJu0bm9bTc/AW25I7E1sK+WZW/TQbrw2sg9WnsH8lA0NAuAxji/falr9WTYl1MIegtGv3Zy581hVexGTgJuuSfbu4++hazIC8igaDqIMJHz2JxtL9QQAO+r2WWEycTexBO+L9zVDvX7ycstxBv+rthihO3hpj3qiq9UCmH7kt62lLaZoRstT4dN6k2+nKtYC3sNsvmEcl+TuTNX08gYABmEzLpsW5NErtWAuXfgn0PR4clLvu1FpngQhEgGAaMJXZ3/aVswD4xdaLgwSETbjhvqM9btLCOAZO2nBiAh5n9VOXWEAPCwpNYXSD5DaV9bUawGAjXtoaZC4+6uYvXnjVkIKvk5Ls3ggUXpMPsi2x3v0UXI6AHiKVWnbjn51aq9uHo2aB0Q2eFLN6IywJ+RuDSeqpufT1Ru55I8CY3x7fwzvJw/VgJy7/beA3qoWl1ts+sNcDEUUMHu2uqKZyCKt/R6sROKftExdpoDAP7B3qyV1RWcggIC6NSkDBVFXfPGRqdCDIOS6J6xUNfL5YEY1+O37Ei0Oh5mwSQUEOZk9lgCqPAgAjeZXHmIxSbi4l6knBLauLwQAKGkGRHHuHg1io69Wtdwxt0/HYBJX/lhDsP//7kvs5RH0Fc3m7nRYAdPGg3n0vSZyF2xfYJhC6ROkOe+vr0tNE9ICxtyy1KqHLOmW1wi0+y+NsNjCb9LvOuj/m96DbPJlbcuSMd4hnguTU/j43o6vTNnStrYmeY2AMNARSe7OzTxaeamhTxmOAAKfkHzSBOMnTZ/20krTtS7w5ux1zmxfKpNC6Sv6qnP7f8sxJTwGjrr0eqvlMwHc/m0FsPX6UItPdUlSVD7ByTdet64oXG2N6Q/Wf/jsi+NC+3DT2bkStrZEBUh7P+G5I84N2fr2/RAhN+ev10O/e/3y3n0VvrVKiM1L3fUTHAGdhk4ZGM5sO7mnzKSZvlPnL4rrcYgTesV7QOU/kyzm+QjGXvlJI/R/PxBr9Ths1ISjACQJk8bMS+qb+PD23TCKCi3gkd6nj2zF/RNdkh+qOsCRklf85/XpMBKbCtn3I00agPVzcicoQwHNjo92qU1/SuYvnplogwhIl/5SDay9w3J2ZMj1pzfxqP77PqvHYcfccFaLmNkrpvj11Rml1MHKQhoXUFPJgfGN7eOHmnB/1WQmXJJVT/hz/wsc3av9zQ8rvyQnz8qpUACCgO6rxFMojoKr2bXpcIFphCWccdPkBJskgE1d+A1Q+t2Llm275Gn7m6HafIvV+4jxXBZUIUxLvDAp1G6yqwBBqM0r4JRWAkxEXz2CJtxfNSG62fv5Wuh3fvqEtaXuLWJ2J0aPdu7gmC9vAYShDqxMT6FcAKlYvaHCvLCXcOptU2JsjUEHzPxZB/7LmywHQIXz1h0Dd3LNzdYPFHmljrVx7p9VDNl1gCjN18bmxpJagE10jGk0CFQTYbdVvGGA+rvid1J6sbdJNQXxjqjC0gcM5SpAHO+IiiwUSveQpg9W12lNcXO/pden+dt+uYknTN8OVD/+i+Wo67Dk0wZUvSm+wnrEReAYL5Q6vxmQzbLV1tEVNwGC8Y4xjQZF9EHy0jIWUO05oO257QWYHnsB021Pl+0XFCVqQOrwVCYKxYyxOfvdqc+VaggANuCJ/C8uCrHnGZ1+dyxANj1lOWjttTKFBZe1scjGou59Q6MmgMjWudTk3F4DIJ/omM8eFKoJvDdFAKge39mLVXdMqulv06J4/QfJy+UAnz7McaJQrGDMXvfYnEfO8wAYeeLM11/xtfMA7Nyr5IB+S4blJovu8AH4X248yFlu4zA4DnYkuat2nQCQ2JeCFR0YJKoZ/FY4A9T9J8t+2TTtIenzuup9Q3cgC2BT6YRKSn/AKTfec8PqCh4A4zv97k/W3mL/MXyXjmBBcl6rsNzk+okCwHh6Z/cryzoWRQsATxujpyTvdzUgudNBwdbB4NcEwCTf9f15grPP3jPH7l0BAAInh2HKDzQBAmsrWlEovYEYWmrLigrW5JteBkyZsXBY77zn4y7OboRu+0d3WlyxQP5Q0I88tN+EXu+I1XmsQopKACTYGBM3Zp8BMGGxgz58kKgm/O6WvV4F7k9M6pXwCEJ9Hdwh++DOHgYQM9+pnaAMOgyqivOZ+VUVlfWmoKdo5tUzEnobcRRfV/GjBjXfJK20pBrihWHHcniUvD59RC8/w2YMOSUARtk4QVJzQgcIr3fUgHKwqCb8rs3/UgPDng/+ZeecKQYAPKbbXNy0X9BkVwO4sqd5bRSKzRgb8s7mFVRV1yla3VZhi6aNT+1Dlkbq42ePElK5forloGXis8/mgJQ8dsvSfq5DU7ZfCQjn2ehhbNrPA+ETHaV2g0Y1EfJQ2QYj6j6NXGnXbqYZlUHXONfB23TWCEguHSReZorz4fO/2l6vUGnbAzPBt6yI9uvbNOyk/81Tg9uxI8qiiSe/tPgFNfht+vn9q5rc6Z0E8BxlW2tSeRbA2BBHTZoePKrJJMw9Xk5I8bvhs+05OQYdAGZabD/1yjZI9SkCpLSVWuq0WiUBuJZaJQPCEgaQBXsLOr5NoXSCgBg09d/9WKprqwfDgBGlP7K0zyUNmUnz1xM0vzduvMUjyaaMP2gAd+z9//arCaA4UQfgClvdmr8rAMFUhyUXDh7VBHNP+j05hD/2hnicHaEdabCHGoGrnCtCxrxcALO8AIBolUVVDJGEhPgIBYxB3VDVqFi/vba9cdC8ZVKIg0N9BAyE1DqltEF4o07dUJ13LievpC11WSCVeUUnT5oZ4YjkcvbjyiMEWfd9Z3GMLpy5/skv9VC8o/u3Z//dVHzGtwTwfsDGyz/vSwL4pzks4juIVBOCOU8+3ACyufTDabZXBvC5u+pH+f+m92O3bEC5Sw+IJ4kB8HXr1u4wAvCeND8sTFS0a2+xvnPj2p9+AuA1bn4gKwgbbrniIWUIQTi9pqWhpjj3WHFVW5I5I5H7+ESMnZgWKHfU0zXov7fWAMc3RVrWYPnCU8cNaFqtvTq9v1JC9Nk7ygDMirStufH1ekCwcITDitcOJtUEbsp+Wwf+/K/xNp5OAGzUzfKIpc49DaT4bwARKQIAuu1v5xIAaNm6FZ6M2lLCsGLXLgBe//ovnYM5xCF6TXNjQ01VaW5+RUuHfGVByLCkhLTkEA9HVroWTFz+hQHcQ4KbLSqi6HLyn2wetW///cgK//4xN2vuPMoD0uU2qvL5DQAil4Q77PMHl2ri0cof9TB+qHvFjmj0zJn91x/bIH+XAZgfwwB8+abS9vLESsv7mFD8PXEuLfgxZOGN2obK0vKKiorq2mZDp7eYgOmXzI50zOIsHfFfsiuHB/l348WjLcZ7Lj3xpgZAzv+dmTwrxCFlgDuhPbL9mBEQjBlum3rpvm4G2OkOi6APOtX0vftoFg98zrzqkPVBBoiW7wAEzPUFwGUe03TbRhA0LE4uBPjSY+Ud7M8Tf4ynqjkUMeqUtWXlFRWV1ZWNqs4DEoFXYEhEcvzUfikFIxj73Pv7AeVrpS9bVE3RjYGfZAEo/XDt1JFLRzq6Cw3vbTAAgvn3Jtn2TNj2pwEIvciBvqxBppps6jtf/gzgm+YrL3GfeTab8wFMGyUCICws6r4NUZXqRowaESprKSxs4FGx77zJ308XzhhyGFWNxUX5ZdUNzS1KdWcLE9LI2PTYsMAAn0BZ/9zaTMjykMeOAao/E++2OD8x8Z6Up48CQOXarYfvmd27BWgtYNz27U4twEYtvci2+Jbql2IC0bSLHeioGGSqCe850fq1gP4PzHIb1VR8zAGiyZEAoI1KONvhLaZNE3mFouDsBp+YCVNTJ7KAtra05LetPCCnpuYQwqhtKs44k1+pUGt0hi41F4SBMSNGJIT7e8pEgv5MrRBNf/eeM4RUvcbcaXHepHBuzKYP8gGQlm1n02bOTnXY0I/b9eIxPcBO/790G6/8n3fogbBltoc6emawqSYEyW/p/uGhX+/7krvMtHn7GIDR02UAIF28LbPtbhC/Onb339kaAsITALxCUXZ+p9hzxEXTY3yTkvjdLI/4CQ5ZdI/ispiem4TXKeoKMrMLSpoNBq7jiJwBy0hDYtLShoX5y0TCAVj+Sph6SXkdUP/85tcslvIWpsYNe/mojgf0pRV73vC7ZMUIH2HfFzQkeS+vU3IAG75wpG3Zl2T/FxWAYPgCRz5ImEE4wKu8eYcRwG3PRrhFKnjB8jMEPk88bHYT5d94ABDLmgEI530Zaqit07cc3ZvVpOwwFmP9EkeOSwm9f0fgxf8aNegefBQThDfqNY1N9QbCG4ozc0tru9StZARCsVganDByXGKg3PFBF2uUTC8FgGteSLRyi2lzPt9Y0eqlZ0Mmzxwd5ech6oOs85rafx5TAWAm/hls2y7k6OP7jWCGvbCi15/aDYNRNRVrftrBA7jn5jQ3GKXXP/aTFsz0d8eYX5et3APEzt1fpAUki/81zI8BiLZ879a8+oaOiSWQJgScWrpwRoDULZ4NFHsgnFGtaKgpzT2TV9vczfusxMPD0yc4Mi5hWJDXwAqmidM3nOMATHpvjNWQU+2Lv1e3G8bihAmT4yMCZSxYsd1OBKKpKjj0ZREB4JN6/wobh+fqT57SAj4f2jfNuicGo2oCNas2ABCMWD3O5RWl4suPKwC/e55ujUiqXvmo0efW/5x/cZcOYGKuXZzuzQCAtjrjREZVZZWqg3IyfqkjU1OSwyR0itCggRi0zY319VUl+bkVTd1k6zJS74CgwLDo6JhwH5nIWdc3t/fWAgBIenJKirU+qH7dVlJWrW2f2+mbMjxUxIhDA0IDPQRgQMBKxD0Pl0jL+UNbDjYRAIzfDU/Zumgaybh/NyC463+OHZANTtVE0cPrAAhveSXA2T3pAeN3T1cQSFf8e3jrFtL08E/L3w1k9jx9SA9AMv7FGa0/uVFRnpNVWFxY1nGoJowaNzw1McpH7PIPCEoPEIOuuaq4vLyyorqusZtlJARy38CQsNDI2JggucSRuev2Q6r//m23FoDH1c9aLZDOK4ozsnJP53fJJvX2jYj2EYIlBAK/yIRYCcOAQOhp6flv2PV/x0yLEYsmL7063NZrvf6dtzVA0g5HhoIwaFWT5Dz3mxHAHa+4eN7m2ce3cmBGfzm6w7aMgxNHAdzfz57lAYhnzbuxvcQ70bdUFuYWFRZWtXQY+YRHR8anp0c7eekjSh8gLdXF5eWVVdXljUrjhW97eAeHR4YHBwcHOV0wzfAZ765tAhCw/N4R1oc6RFeTdSY/M7fOwjw3sW9EpIQBQyAIS0yLELEM7+ndaeCvPrVp337TxGLJmEcvtTlthBxZXgHIX7rbwU6MQaqa0G98MocHxDe+4u/Ko9eaVz7VAN6/zO+mk+rj7/5pAAC/yfMWxXVIKeb1LY21VaWZp861J8SzHoEhIZdeEu4SNxTFXrjyv7fWNLUo1YbO96MkJDY9VMRCFOgf4OftJRa60O9LSr99vwaAfMp/p/U4ANY2VZUWZpzMUllvJvUJ8hEwINLkuWksQxiAAA1H9+TkmnaUT1s8OcnH5lFVybUHCXDJh3G27mAjg1U1iSL71bUAPGbesdh1Z2orXvusFhAtWNttF0n5rleyCADWN2TsbVM6TcUgnF7ZUJJ18HBp+wOcDYhesCzFYYUaKAMD0Slz128pbexiibH+Mekjk8ICvcQsA0YoGICUIntpfOZzLQBh5PwXbQhpc3plQ2nWwZMlahsOLfNvr5hkaG4yAgATef3C2EDbJ4lqv/7qCAD5uysdndM8WFUTIMX3/cMD0ttf8HV2VyySMbeWgLn67TAL7xtqvn5dQQBA6D3ipnlhXR7pvFHbeH7DhnIjMUeIGIk8bsbckWEC17vDKF0ghBCDur727PmcwhqVvu0+ZBlWHBydlD4iPMBjQNIv+4Cq9LICHoB4/CdpNlnBvFGrqK43coqcI4VVKoAwICC8LRPcGK//rAywK+xZe+U+DpBe8vRIR1vog1c1gZrbNhkA6eOP9vvST73E8PAHADPq+zSLtwaX9dnf5a2V4jzvfCKgm6tGUbBjb2azWtPmDfO4YuVwX4lr329DGMJxBr2qpa40v6Coqrql/QYUiEQSiX9i+vjkYE93ie3VPLhBAQAed90aY1eaH6dqbOJAGBBtwcGzJTwIGMJrNfruV5kVeEVcflOCXeqnevQbDeD5wBOOX9xmMKsmKpce44Hwl652zfkz3JFLGwHfz5ZZ8wpxBz4/W9Jg+pWEi+5KDPPoRjh1tecPHy0sa2h9LZu2MDnI18tL4uK2ytCC8Ea9RqNoaagpzSssq+08UGX8I8Ji4uKTw336ecEdB1P31semhNLIf10f2EvnEKeu0YKA4TSZx/LrCQGpre1YVFbkFRk7/9Jou45Oan96qxSQrnyjH9bsHtSqqfvxs8MEGPn6Rc5IBO6Rhqu2A8JlLydab6Yr+GffyRLTI1g+5aLhqRHdPdR5Vd7WnefayiGxXiERUQnBwYH+/p4SEXV1Ohee02mbFI2NdXWVVaX1jS0XBMmFEcNnzY2Vu4uF2ZHib7acVgJA6IobLBePsxWDotlIGO7IgQoDAUMAhkAYnDY3xd5K9Nqv/6+CQHLRQ3P6IawxqFUT/K77zwHM7Fuud8HLUfHZ8wog6bUlPY47SN22fadOm6KIgrCxI8ZOCO3uUuDK9hwrzitRtqcUy/wCQ8JDQsJCQ4K83PGOdGc4vV7HAeD1jfV19TX1VXW1zS3qC8efMm//oLDwcTPdNv3BkPH7b7k8AEy/cYWjEv20Ldo21RT52F80yXDwmb08mPRPpzqoQ50Y3KoJ/S9PVALssP2ul8qo+PDNekB0/f/ZUmKab8k+8cduc+KzIGb06OXp3TZTVRXlZuzO6vSjCuV+/oHB8aNGhbumo2IQwem1WgMBiLG+vLi6oZkHwBuam5qUat0FNxor9/UNDQ4PCQ4KCvKXu/MzrWXvu1sBAOEXLb3UJS6y8l/X7gPg8/HV/TLMGuSqiZYPXlIDorvedrEaF/qD3/9VDbDJ/73CxlGNIe/jb1unJDPeM++f2f1+xNCYt+/PE9oum1l5cGjalLFhHmKnTcIbdBC91rRyLsPwAKetLCuvrq83EoAQlaJFrTdY2lPsFxITHxMU5OPt6SUVuX/GA5+156MMAEDiJVfbs9ZhP0H2XVPFA6KLf/Dtl+MPdtUkNa99qAf8n3nQ2T3pjOJ/rysBpH86wsvme6Yue+8vGWaXmDh09DVzgrvflagr83PP5RVXKjpvl3r7BAQHhkdHhpvuU6GXVOoa80zcAYNeo9JyBGAYQgBOm5dbUFWjMS/CTABOp9MZjBaV0oQ0KCQyPiY6yM/bQ+qSOZi9RJvxvx8AgJFFz71plLPDCNmL8wnAvLU0pn88+oNdNUH+eSKLA5Py2iUulOxOFF8/qQYQ+/cwe35Wolfk/L2uyMABgEDqPf+m0d7dqx5vNOpUDaUZ5/NK6vUd8uEYlmUFrTcrE+DlExQeFW1e2kXo4S0ViwVM36sgdoSBO67dTlrrWoIQTtNSX1FcWFTd2NhxZgsxchxnUyV9hmEYhvUJDYtLSAwL8pIJBI4+yS4A37T2jTweACPyHH3N/PB+LYxsHeVL31YAkLx8m+NzjkwMetUEf+Q/e41gIp651XUiyQV37jYATPCBePv3VWV8s7nSPJWSTbzrklBPK84HXqeoyz1/rri8RaXpPhGuAz5eHj4BEWHBQeZBPNuqCRf+wTCtR2v/i22XkPY/GQ+pp0QqlrBCgaCDwLMMyzAupKYEPM+bhJIYDVq1WtGs5wHwxoqinMqa7kppWIcVisQSIRgAoqCg8PjYpCDfflqTwmXY9dbxOrOpHTJ12dhQ5ySd8k1fvVoHwH/2w5P664QPftUE1jyVRyBc/nK8q9yl5Ie7VABGL72/dyHHipfXVpu1io1aNHtkQg9mtEFdf/bAibLa5m7KQvQ3Ug+JRO7p+//t3Xl4VOW9B/DvOTOTWZKZyWRPyL5cFlllE5Cl+EAFES9erde6UcG1veqtXttqq21daXtLfbRXq2K51ipelE0FtyCgICCbLAFCFiAhezKTWTLbOee9f8wkBLLNJJmZ5Mzv8wfPMOd9Ju8zmXznPe+qTzCaDB1fW5wmTqvVqXUxMTGdZkXxCp7nufB8tzGpo6XIJFebw2a3tgoMgCTU11xoMDssfX7JXI5TxahjtVqeA8CZknPy8xIVPACNYYjstxFyzq///m2NPzf5tB9cMzYzMez36tajaz60AVzqfz7Y47FGAxYNqSm+9HwzoLvvF6mRronfsSXnAX7qX6b1NyGs64pLy9tnGMXMuWVKYXdz3y8hmE/uP9ZgtdkcLk/QLadBp9LFqGN18Ua9Ke7i6JTSoNPqNHE6jfZiq4zruFUGr1Iq+tkTyCRJ8IqS/zAJ0WmzW+1Wu3/XKNHTVN/QYmuz9fYKXXEarTE+XsVzAAMHICYpKSUjzddQV+q1muhIykvZt23cU9X+faPLnTF5XEFSWHvG7OuerwQA/X1PhXBFYDSkJhy3fCoC6U/cGap+jqB4d6/eAnAZq2/o/xex1HJsX8nBUn/bUXvV9CtmZ/eZJ6LD3NTS2NLa2iQBgMTaLBarw+V2DpHPAKeNUWk0sYZY/cV7O64jNKEwxsbGGvQGXZz2YqOVXfago3z7A0ly2K1mq8Nha/WnpiRYWyytDper+yOUu6XU6vTxCUb1xYyEKjUxPT1Fo0D7MyqdhpYTsPov9xwrbW5fbBEzZsqksaMSw/YFUr/27RIAXP7yRaE8GSYqUhO7/rRVBDfyjodC12gPXMvKTzxA7v13pA+ox8DbWHJo83f++yFl+oylC5IDeT0mCl6XCACMuaxWq9XmaPYCgCQ5LeZma5vL5RiinwmNShWj1cVqY9UXM9Wfjd098LcsWVub3eZ0ez2XT8YKjFZvSkpPSU4yxicY49Sd3mGlTqUcKl0+Q4nUWnby0DdH2+cSKEy5RRNmjQvLfGnnBx99YQGAeY8sDmkLNzpSkx2++3uAy942OtI1ASwvvG4BYu95cuBHaDpPH971Ra3vhkhVuOSBfmwjyCRR9G2YwJjX5XI4nG1Wi/8TL/lbToy1P+gYv+nukdTR0Op0VfK22hvtVmub2+MO8hY4Qji93pCcnp7k28pSYUqMN8bF6mIUfNS3IwMmmKtO7NtV0T7jgDdmjZl+TWGop7+797+39RwAYOorU0L7y4qO1ISwdUUToJj9acS3RjC/+KoNUC5aPRhjU8xrubB5zQUGAIq4xS8P/LwPJjFRCnogpBeSIHoFr8vtdrg7dpBkkre10dLYaLe5XF3XZIed0mhMSM/OSvJNllEmG2Jjte2jVJyCNkDpD6+14fjWz+ra00WlTyxavCAvhA1Az97X9vmmlqQ8vjQ/xF0CUZKacP7vYw6A/+nqyPbRCzueOuwC+LxHVg7SCgrmaXznzWqvBEBV8NTSIXooJwNY57mNjEmS5BbcLqe14yQuSbDXNzXVt1rsHms3G9f6XoIxMAT3meXAgeM5rmPeqNKkj09Ny83W++cUahPjtBqlon0KJT+UpkQNX0z0NB96f3ed4P8OVsQkT1w2Py0kM/uZu/RvmxoEAOCnPD0/5IuToiU1cfSJnXbA9NQdCRH8k3Af/M12ALjqw0AWnwfMsfvF/U4J4PL+uDjyy9kGRhC9bldbxy4XnToARHNzc32D2Wq3dZx123G1mwcdv+ZEQ1x8UmZaSnz7xGuNUauhUz3Do3b7xiPmi3su6xbcOCU1diBnondDspe/sNm3s1xM8rSfXz2Yr929qElNVvrMBidguv/JiDXHpDNfP3sOgHLyhkENTUA48tpnNRKgf+DXQ3UH5kEier1OV1vHYRHs8ozs+kAZp1MrlRSSkeI9t/Ob4+eb2r8GVTkzZuQkmvSGwZqZJTWWbHv3AgCAz5h316xw7B4SNakJfP3LfSK4ic/Nj1Dfpn3vH3w7w4xe3+2GRQMhntv47nEPMGftYB8sRchAOct27T5b0dIxrB6fkpmTXzQuWzPwJqdkPrx5Yw0DAFXehOtuCk+TKIpSU/rwyTIGXPn7BZHYXEA4uXndKRGA/tpl14Vg3qjn9WfrgVlrRg7+SxMyUK2lh44eKrF1Ou4jZerMq68I/LjJ7pm379h52gMAXMaCJXMTw9T7JvOlsZ3x1xbX2oFDTx/7UW7Yb9iq3v3soBUAcm5fkRuK322MIAII03pEQoJjnHplS/mJ49+UWv1PiLVbdowaNX9B6gBu1F171xVXSADAZy6aPyN8+zpHUVsTYvne5QzgUt68NtxfFi0vveI71GfEIz8JzXDUtt8cEYH57/R03CUhkSZYqk7t2lFx8UggPmP0/IX9PfjDtePdw2d8i4Njbr5zXEoYZ8dEU2oCnn+uYACXvX5qeH9u439tMQOAbsXywtCs6mQNT/+jTTFj1dQhtB8eIZfz2OrPnTxVVnmhfZMPQ2J6bmHR2HRDcKMNrO37f3xR5ctfw9LlY5PCOqMwulITrnUPOgEY9o4K4/wjT931JQIAxbjXJqhD9nN3PHxG/z/L6A6dDG2MCaLbduHz98u9vnF1nlcolMn546eMSjP6lhT0OGGWMYAxyWE+uXPHGYfAACg0sx69Ki7MH/soS03p6J++aACQsn5sfJjeaaH2+bUuAIrUBatCuulSU03SIE9oIiRUWPOXb5c0X7LlgTqjYHqRlocy0ZSgi7l832ZJcLZaGtySu/ZISUV776gidd5908M/JybKUhNoe/uZGoBLvPexEJyT3JXUvP/VYhcA3eSn50bR0BshfWk7ubG4sknsekGflDshU82Bh+Q7b4RnjHkaS8oami4pp8ocd8fiYI/8HQxRl5pwrH2xGuAmPRuGeZvM/O3nG6oBwLT0oYl090xIZ+K5T/fWNZtb7Z6+y3ahyJ617NpIZGY0piYca1+oYcCVv10Q6tWHzn0fbyoHAMTd+st+HHZBiMxJtoaautq6mgtVTdZuWp094WKziwqm/qCH4wZDLgpTEw2Pr28DMPGGu7NC+a47D20pPuHb1HHhTXNo9jkh3WKC29pQU1t9/kxVi7Xv4pr41MKinPzc9NiI3bxFY2p6K/cuZwCM//6bEaH6Gcy8a9Phct8Ogxk/W1ZIXZqE9IIJLqu5sbnWC8ndUFLR1DU+tYkjrshTK3hTSlKSSaeK5L5U0ZiagOedlQxAbNbf5oTk9VnttnUnmn2dNao5v7hK5ltqEDIoJMnLAMnT1tJS7wUkjvNtYiXxAJ+QnKDXcByUioifyBSdqQn35vvNAJC08uGkwW4GMqHxv9+xuX0rvQxzH5huoGEgQoLBWJeT5rkhdIZ8lKYmq1y9sdEDAFmP3jqoh0ExR9WW1yt8j7mUq+6bF46dqwgh4ROlqQmIu18qbgWA+Jtvm6QfrG8xZ0Pl7vUlvtViuqzsO5cN0b3VCSH9FrWpCVSt+fCkCACjb5o2IXUQdo/zNJ4s2bO7RgIAzjhm+qKp8QN/UULIEBPFqQn3jlVf+R7lzJ40dkxy/7Ze8WPW47uPHzjvGzXnUmdePXu0bsj0wxBCBk80pyZw4PP1RwAAnDGrcOTkSRn97IQUXE0Hth88afe/mfrrlkzPoc2HCJGn6E5NtB1Z926z7yEXm5wydubMnGCD091QVlF+trq61uV/QjV3+axMmp9JiFxFeWpCavls9ZGOpVxqfXzB4h/mB95MFM8Xbz1tdbncgv99VBcs/OGYtEgcsUEICY9oT01AaC1Zt6PS056cvCpp/PXT02LVfI/Hj0qS026zehnEii2HG7wdmcvHmBbfNCleRdMzCZEzSk0AMO/ceLDF1nEIN9QZaVn5OUaeA8D7pqsz5v9X8taUllaZL1/xxWkTJt62MCGMlSaERASlpo9Yd3jP4ao6s9R30S54jU6vT5xww+Q4GjQnRP4oNTsI5lP7D1dWNge3158yITcnMys7KzuBOjMJiQqUmp2J1vIjxw6etATa4uRMhVdOGF9giIn4fgKEkHCh1LyMaK48ffZcbW2L1ebtoYjWkDIi08TzgDavID+RJhkNB16Ofk9kkFBqdiU6bQ5bq6XZzgDfTlX+fyHxABSJpgSTXs1xgFJLjcxhQdy1YeS8sZGuBZEJSs0eSJIodf/ecMqeJyWRIcn8xpoq3U/+GOlqEJmg25Ye8Dy9NXLh3fzXasn5uvJZXgKG0DaNZJiitiaRO7b34e8ATCq21jS4WFxmSryGFiKQAaAGFZE78xdHAMSnr926zwYgbfI14wrTQ3+sM5EtamsSmRN3rqwEFDP5Pe2TIvi0WfNmjA71uc5Etig1iby5v35zvQQosyo7P2uYs7owUjUiwx2lJpE3y7/tFAEOl37QOfWipT+m1VykX6hfk8hb2R4R8Gdm1tICVrf9qBdgrk1HvXdRbJL+oLYmkbcVb7U/Mi5fOUINr/n0hg1NAHjTzJ/Poh33SfAoNYmsXbj6rP9R+l2/8p1FKgn1v/unC4D2gScSaPImCRrdoRM5s/6+FuBiJK+y8JN8/3N8TNottftaGJx/dj2YT+fVk2BRW5PImPT2U9WMS5xy1pL/5ujOFzxvrKpmgGL8yzNoxjsJErU1iYy59zYyqOf9xzE2LvOSCzErVRs/BcRj7xWmRqhuZNii1CQyZqt0ASm3zpnT5Yr6ntmxmwUIf5V+RENCJDh0e0JkzCUAMI7u7hJXeHchD2DNy23hrRMZ9ig1iYxJEgCu+01QlTNfuxGAZ/cHYa0SGf7oDp3IWHkTAEX3K865+Nnpno8lNL2atTC8tSLDHLU1iXzZt5UDqjEpPVzmc67L4yEe/T97WGtFhjtKTSJbbH+xEzDd0OPuRup7H0sEvPu+ofl3JAiUmkS2hBMVADd9cS9Fbp+sAM580hS2OhEZoNQksuWstgK4ObaXInF3mwD3lwcCPcuZEEpNImOCGwA3stcy1y8AUHnUGZYKEXmg1CSyxRgA9H74smaFCvCcaAlLhYg8UGoS2RI9QF+piYl5ADtWS+NBJGCUmkS2bI0A0nqad+Snnw2gokoMR4WIPFBqEtmqLwOQHN97IcU8JWA/5QpHhYg8UGoSuRIbGgCM0fVeii8yANIha1iqRGSBUpPIldBiBzC5j1Jc+hUAjjZRxyYJFKUmkSuh2QYgo69ixikcUH2WZmySQFFqErliAgD0ecKFZqwKcB+h4SASKEpNIm99fsJVeakA+5aGg0igKDVJlOMzRgE4Q8NBJFCUmkSuOA4AhD7LJY4BcK4q1NUhskGpSeQqkAWVAKDSAxBsoa4OkQ1KTSJvXN8leID+Ekjg6LNCoh4HADTziASKUpPIW99pyAVYjhAfSk0iWxwA9L3mJ9D+T0J8KDWJbAWVhn33fxLiQ6lJoh2jm3MSFEpNIm99r5QU3QCgDHlNiFxQahK54tU8AEuf5eznAYzIDHV1iGxQahK5UqWbAJT2Wa6lFECiIeT1IXJBqUnkSmEyADjQ1y262FgHYFRcGGpE5IFSk8gVn5oJoLS1j2JinRngJlK/JgkUpSaRreQCDqg71UcpT4UbUBfRfE0SKEpNIlvxOSrA+0Eft+iuMgYYM+gvgQSKPitEtnTjswC2tbr3Um1nAaSawlEhIg+UmkS2+KkTAdR+1GshZq0GkGWgtUEkUJSaRL4y5qYAjo96Hw+qbwBQ0OfxQoS0o9Qk8qWYWwiIdWd7KyOdcQHKQkpNEjBKTSJjubkqwNzrRHfhGwkwZavCVSUy/FFqEhnT5WkAa0lvo+jWvQDysmjiEQkYpSaRMeXIOMBR5uilyOnzADc2lQaDSMAoNYmcjU/kIH63vZcSn3gB1b/Eh6tCRAYoNYmcZefyYOVvneixgG07gIxRNBhEAkepSeTMuMQECMW/Ot5TgcOlAMaPpr8DEjj6tBA54+99XAm0Fe92dX+drXcAcVOzw1srMrxRahJZ4x5ayANtz+3pfhy9eZ8AZIzThLlWZFij1CTypv5DFgdUvbin26tnmhm4grFhrhMZ3ig1iczl/jQfwFdPOLu5Ju23AJqijDBXiQxvlJpE5mLvWW4AhINru7nmOmAHTHSDToJCqUnkznjbvyoB51++6nrp+EkvuNRJNMWdBINSk8gdl3NdDgdUPPG+57Ir7m1lDHxafkSqRYYtSk0ie/z1v84BhINb7Jc+7/34fStgWBIfkVqRYYtSk8if9rYfGwHvez877e70LGv+8jQDd+XtdINOgkKpSaKA6tHZKoCtW7LO2vFc2/fPvSYBugfpJHQSHDrPlESDuDtUGwFW9kzdvEkxAAB2/P6jABST50e2ZmT44Vika0BIONQ/vMkNAJPvubooBkD9794QANy44hp1ZCtGhh1KTRIlSu7xLQ9KmDZtWhG/d/vfASiWPTOSejVJkCg1SZRo+/6Tt6sAgNNmp/LlF0SAL1q1KCbS9SLDDqUmiRasddOfLz0MY9ljV9CJviRolJokerhrP33lpNT+P/UNq7JpDgkJHqUmiSqtb71safMwQBE/8+GraSCI9AOlJokyzXs+LrEwRc7ty+g0X9IvlJok6ogWi6BLpo2OSD9RahJCSDCoN5wQQoJBqUkIIcGg1CSEkGBQahJCSDD+H3+h18NHo/sNAAAAAElFTkSuQmCC;" vertex="1" parent="1">
          <mxGeometry x="20" y="60" width="813" height="310.44" as="geometry" />
        </mxCell>
        <mxCell id="9MfvhquQHnC2zTjQO_8x-3" value="" style="rounded=0;whiteSpace=wrap;html=1;fillColor=none;strokeWidth=2;strokeColor=#B85450;" vertex="1" parent="1">
          <mxGeometry x="240" y="170" width="450" height="80" as="geometry" />
        </mxCell>
        <mxCell id="9MfvhquQHnC2zTjQO_8x-2" value="" style="rounded=0;whiteSpace=wrap;html=1;fillColor=none;strokeWidth=2;strokeColor=#66CC00;" vertex="1" parent="1">
          <mxGeometry x="410" y="120" width="90" height="60" as="geometry" />
        </mxCell>
        <mxCell id="9MfvhquQHnC2zTjQO_8x-18" value="" style="group" vertex="1" connectable="0" parent="1">
          <mxGeometry x="51" y="430" width="749" height="278" as="geometry" />
        </mxCell>
        <mxCell id="9MfvhquQHnC2zTjQO_8x-4" value="" style="shape=image;verticalLabelPosition=bottom;labelBackgroundColor=default;verticalAlign=top;aspect=fixed;imageAspect=0;image=data:image/png,iVBORw0KGgoAAAANSUhEUgAAAu0AAAD4CAYAAABYOthmAAAABHNCSVQICAgIfAhkiAAAIABJREFUeJzs3Xl4VOXdPvB79kxmSSb7HhKykA3CvgpYBFFAX0X7olDrbq1L3/5sa9VXxfWtrWtta7UudalWqQtVUXZUZGmAsCRAEpKQfTJZZpJMMpn1/P6w5zRjEg2QZZLcn+vKJTlzMvMMxJl7nvN9vo9MEAQBREREREQUsOQjPQAiIiIiIvpuDO1ERERERAGOoZ2IiIiIKMAxtBMRERERBTiGdiIiIiKiAMfQTkREREQU4BjaiYiIiIgCHEM7EREREVGAY2gnIiIiIgpwDO1ERERERAGOoZ2IiIiIKMAxtBMRERERBTiGdiIiIiKiAMfQTkREREQU4BjaiYiIiIgCHEM7EREREVGAY2gnIiIiIgpwDO1ERERERAGOoZ2IiIiIKMAxtBMRERERBTiGdiIiIiKiAMfQTkREREQU4BjaiYiIiIgCHEM7EREREVGAY2gnIiIiIgpwDO1ERERERAGOoZ2IiIiIKMAxtBMRERERBTiGdiIiIiKiAMfQTkREREQU4BjaiYiIiIgCHEM7EREREVGAY2gnIiIiIgpwDO1ERERERAGOoZ2IiIiIKMAxtBMRERERBTiGdiIiIiKiAMfQTkREREQU4BjaiYiIiIgCHEM7EREREVGAY2gnIiIiIgpwDO1ERERERAGOoZ2IiIiIKMAxtBMRERERBTjlSA+AiGi88fl8sNvtsFqtEAQBJpMJRqMRMplspIdGREQBiqGdiGiALBYLnE4nIiMjERQUdMY/7/P5cOrUKfzlL3/B9u3b0dLSAgCIiIjAtGnTsHbtWkyfPh0Gg2Gwh05ERKOcTBAEYaQHQUQUiARBgM1mw0cffYQvv/wS7777LuRyOVJTU3HRRRfhyiuvRE5ODrRabb8/7/V64XA4YDab8dJLL+Gtt95CU1MTfD4fxJdfmUwGmUwGpVKJ6OhoXHrppVi7di1ycnKg0+kgl7OSkYhovGNoJyLqR11dHV566SX86U9/QnNzc6/bjUYjXnnlFaxevbpXaYvdbsfp06dx9OhR/OMf/8DWrVtht9sH/Njh4eFYu3Ytfv7znyM5OZmlM0RE4xzLY4iI+tDZ2Ym3334bL730ElpbW/s8p6OjA/v27cPChQsRFRUFAPB6vaipqcHGjRvx6quvori4GF6v94wf32q14u9//zuSk5Nx4403wmg0ntPzISKi0Y2hnYjoWwRBwLFjx7Bx40aYzebvPLegoABmsxmRkZGw2+3YsWMHNmzYgE8//RQ2m63Pn1EqlYiNjUV6ejpUKhWqq6tRUVEBp9MpnePz+WCxWPCHP/wB4eHhWLNmDTQazaA+TyIiGj1YHkNE1IPP58Px48fx2GOPYePGjXA4HNJtJpMJqampaG5uRn19PSIjI/H73/8eS5cuxZ49e/Dxxx9j27ZtKC0t7fO+ZTIZTCYTli1bhosuugj5+flQq9WoqKjAkSNHUFhYiO3bt/vN7MvlcmRnZ+Pjjz/GhAkThvrpExFRgGJoJyLqwe12Y8OGDfjJT36Cjo4Ov9sefvhhXHDBBbDZbDCbzQgJCYFOp8OuXbvw6aefoqioCP29pKanp+Pyyy/H1KlTMXPmTCQlJUGp/M/FTpfLhdraWmzZsgW/+93vUFFRId2mVCrxy1/+Eo8//vjQPGkiIgp4DO1ERP8mCAIOHDiAH/3oRygrK4PP5wMAKBQKTJs2DR999BHi4uIgCAK6urqwYcMGvPjiiyguLobdbu8zsOfn5+Pmm2/GrFmzkJqaCqPRCIVC0e8Y2tvb8Yc//AEPPfQQXC6XdDw6OhrPPPMMrrrqqsF/4kREFPDYR4yI6N88Hg+Ki4tRUlIiBXYACAsLw0MPPYSYmBgA35S5BAUFobKyEoWFhejo6OgV2MPCwnDXXXfh7bffxvXXX4/p06fDZDJ9Z2AHAIPBgPPPPx9TpkzxO9diseDZZ589ow40REQ0djC0ExHhm1n2zs5O1NfX97rtnnvuwaJFi/z6pW/ZsgUbNmyA2+2WjikUCoSGhmLBggV47bXX8PjjjyMrK+uMFpDKZDLMmTMH69evR0ZGht/4SkpKsGHDhn5LcIiIaOxiaCciwjd91R955BE8/PDDfsd1Oh0SExOhVqv9ji9duhT33HMPEhMToVKpEB0djYsuughvvvkmNm/ejEsuuaTXzwyUTCbDD37wA1x66aV+Gzd1dHTgjTfeQF1d3VndLxERjV5s+UhEBMBms+G9997za7sol8sxb948pKWl9dqVVKlU4vzzz8fatWtRV1eH8847D1deeeWg9VMPCgrCsmXLsHXrVhQWFsLn88Hn86G4uBgffPABbrvttu8ttSEiorGDoZ2ICMDnn3+OxsZG6XuZTIZp06ZhzZo1iIuL63NH0oSEBDzyyCPwer1QKpWDvmvp/PnzsWrVKpSXl0s9361WK77++musW7cOYWFhg/p4REQUuFgeQ0TjnsPhwIYNG+DxeKRjOp0Ol112GdasWYOoqKh+A7lcLodKpRr0wA4AarUal1xyCRISEqT7F3dc7dkSkoiIxj6GdiIa97766isUFxf7LfDMycnBwoULERQUNIIjAzIzM5GVlSWVwgiCgJqaGhQVFfl1uCEiorGNoZ2IxrXu7m688847aGlpkY4pFArk5uYiLy+vVy37cNNqtZg7d67fh4empiYcP34c3d3dIzgyIiIaTgztRDSuNTY24tSpU34bGSUkJOD8888ftEWl50Imk2Hx4sV+Y3E6nSgoKMDJkydHcGRERDScGNqJaFwrKChAbW2tVBqjUCgwZcoUXHzxxUNSp3420tLSEB8f73esoKAA27ZtQ1dX1wiNioiIhhNDOxGNW263G0VFRbBardIxnU6H/Pz8gJhlFxkMBtx6661QqVTSsc7OTmzcuBHHjx/nZktEROMAQzsRjVsOhwO1tbVwOBzSMYPBgOnTpwdcD/QrrrgCU6ZM8Tt25MgRFBUV+e3KSkREYxNDOxGNW11dXbBYLH717EFBQUhISBjBUfXNYDDg+uuv9/sw0d3djZKSEnR2do7gyIiIaDgwtBPRuOV2u+H1ev2OyeXyEW/z2J8FCxYgPDxc+t7r9aKoqAjt7e0jOCoiIhoODO1ENG7Z7Xa/0hjgm9CuVqtHaETfLSIiAikpKX7HysvLYbVaWddORDTGMbQT0bhVUlKC2tpa6Xu5XI64uDi/2exAotPpMHnyZL9jNpsNbW1tDO1ERGMcQzsRjUtutxunTp1CU1OTdEypVCI3NxehoaEjOLL+qdVqTJo0ye+YxWJBTU1NrzIfIiIaWxjaiWhc6uzsRHl5OWw2m3RMo9HgwgsvDJj+7N8mk8mg1+v9jnm9XjgcDs60ExGNcQztRDQuuVwuOJ1Ov2NyuRwxMTEjNKLvJ5PJ+mxFGagfMoiIaPAwtBMR9aBUKkd6CERERL0wtBPRuCSTyfqcofb5fCMwmoEbjWMmIqJzx9BORNTDaKwNH41jJiKiM8PQTkTjkiAIfYZduTywXxZH45iJiOjc8ZWeiMal/spjRmPrRC5EJSIa+xjaiWjcGo2z1n2Nz+PxjMBIiIhoOAX2uxMR0RDprw480EN7X4tOA33MRER07vhKT0TjUn/lMS6XawRGc24Y2omIxj6+0hPRuKRWq2EwGPz6snu9XpjN5hEc1fdjpxgiovGJoZ2IxiWtVovExEQYDAbpmMfjwaFDhwK277kgCL12cQU4005ENB7wlZ6IxiWVSoWUlBRERERIxzweD4qLi9Hd3T2CI+uf2+1GdXW13zGDwYCIiAgGdyKiMY6v8kQ0LslkMqSlpSEmJkY65vV6UV5ejtbW1hEcWf86Oztx4MABv2PR0dGIi4uDQqEYoVEREdFwYGgnonErJCQEOp1O+l4QBHR0dMBut4/gqPrX1NSEY8eO+R2bNGkSIiMj2audiGiMY2gnonFLoVD0OUMdqBsslZWV+V0FkMlkmDJlCkJCQkZwVERENBwY2olo3NJoNFCr1X6z1G63GzabbQRH1TdBELB161a/DxQ6nQ6ZmZl+VwuIiGhsYmgnonFLr9cjOTkZWq1WOtbZ2YkTJ04EXGvFrq4ubNmyxe/YhAkTMGHCBL+2lURENDYxtBPRuKXRaJCamgq9Xi8d6+joQEFBQZ+tFUfS7t27/TrHyGQy5OTkICEhgfXsRETjAEM7EY1bcrkcU6dORVRUlBR8nU4niouLUVFRMcKj+4+jR4/i8ccfh9vtlo5pNBrk5OQgMjJyBEdGRETDhaGdiMa1zMxMxMTESKFdEASUlpZi8+bNfiF5pDidTvzxj3/0a/Uol8uRmpqKKVOm+JX2EBHR2MXQTkTjmslkwsKFC/0Wc7a2tmLz5s04efLkCI7sG4cPH8bu3bvhcDikYyaTCVdeeSUWLFjA/uxEROMEQzsRjWtKpRLr1q3DxIkTpdl2r9eLf/3rX9i1a9eIzrY7HA68++67qKqqkhbGyuVyzJw5E9deey3CwsJGbGxERDS8GNqJaNxLTk7GunXr/GatbTYbDh8+jKamphEb13vvvYf3338fXV1d0jGTyYRly5YhOTl5xMZFRETDj6GdiMY9uVyO6667DuHh4dIxsS/64cOHh7X9o9vtRmNjI1544QU8+OCDqK6ulh5fqVTi/PPPx0033cSOMURE4wxDOxERgLCwMFx88cV+xxoaGrB//360t7cPyxh8Ph+Ki4tx9dVX46c//Smqqqqk22QyGWJjY3HDDTf4tagkIqLxgaGdiOjf1q1bB7VaLX3v8Xjwxhtv4P333/dbCDpUzGYz3n33Xezdu7fXbTKZDJdffjmWLFky5OMgIqLAw230iIj+LScnBzNmzMC+ffvg8/kAAFVVVVi/fj0AYO3atdBoNIP+uG63G9u3b8dHH32EF198sdft8fHxWLFiBX76059CpVIN+uMTEVHgU6wX342IiMa5oKAghIWFoaCgAFarVTre3t6Ow4cPo7a2FsHBwYiLixu0Vovd3d34+OOP8cADD2DTpk1+t8lkMiQmJuL//b//h7vvvhtxcXGD8phERDT6cKadiOjflEolli1bhqqqKjz22GNobW2Vbquursaf/vQnWCwW5OXlwWQynfPj7du3D6+99hp27tyJioqKXgteV61ahRtvvBHnnXcejEbjOT8eERGNXpxpJyLqQa1Ww2Qy4fjx4ygrK/O7TRAEVFVV4dChQ9BoNJgwYcJZlas4nU5s27YNDz30ED755BNYLBa/wK5Wq3HFFVfg0UcfxZw5cxAcHHzOz4uIiEY3zrQTEfUgk8mQkZGB1157DW+99Raeeuop1NfXA/gmtLe3t2PLli2IjIzE/PnzodVqpZ/rjxjIzWYztmzZgldffRXHjh1DR0cHPB5Pr8dPSUnB5ZdfjtTUVO54SkREAACZMJwNiImIRhGXy4VXXnkFL7zwAk6ePNlrd9SoqChcfvnlWLhwIYxGIwRBgCAIkMv/05jL4/HAbDbjs88+w5YtW76zC01UVBR+9rOf4a677hqSBa9ERDR6MbQTEX2PyspKXHXVVSgoKJC6ygymkJAQTJw4ETfeeCNuvfXWQb9/IiIa/VgeQ0T0PSIiInDrrbciKioKW7ZsgdPpHJT7VSgUSEhIwJo1a3DnnXeyOwwREfWLM+1ERANUXl6O2267DV9//TXsdvtZ3YdMJoPBYEBOTg4mT56MBQsWYOXKlQgNDR3k0RIR0VjC0E5ENEAOhwPHjh3D7t278dVXX+HgwYMwm829at37otfrkZmZiTlz5iA3Nxf5+fnIzMxESEiIXw08ERFRXxjaiYjOUHd3N2pqalBZWYmqqiq0trbC6/VCJpP16rUuk8mgVquRkJCA1NRUJCcnIywsDEolqxOJiGjgGNqJiM6Sz+eD2+2Gx+OBz+frt+2jXC6HWq1mUCciorPG0E5EREREFOBYSElEREREFOAY2omIiIiIAhxDOxERERFRgGNoJyIiIiIKcAztREREREQBjqGdiIiIiCjAMbQTEREREQW4fnf68Hq9EAQBcrmcW2wTEREREY2gPtO41+vFbbfdhtzcXNx///3o6OgY7nEREREREdG/9Zppdzqd+Prrr/Hhhx/CYrHgpZdeQlBQEH72s5/BaDSOxBiJiIiIiMa1XjPtNTU1uPPOO2GxWAAAzc3N+Oijj3D06NFhHxwREREREfUR2k+ePAm73e53zGw2o6SkBIIgDNvAiIiIiIjoG36h3eVyYceOHWhubvY7qbOzExaLBW63e1gHR0REREREPUK7x+PBli1bsHXrVnR1dfmd5HK50NHRAa/XO+wDJCIiIiIa76TQ3tnZic2bN6O0tLRXGYzJZEJiYiJbPxIRERERjQCl1+vFiRMn8OSTT+KDDz6Ay+XqdZLBYEBUVBRkMtkIDJGIaPQZiTVA4mN++79utxsejwdutxtutxtOpxNdXV1wOp3weDzw+XwDfgy5XA5BEAb0/GQyGWQy2YDv/0zvOygoCDqdDkFBQQgKCoJarYZCoYBSqZTer8QxnA2+5xFRIFF6vV4UFhZi48aN/fZjj4+PR35+PtRq9TAPj4ho+PUMjuKffT6f35fX65X+6/V64XQ64XK54Ha74XK50N3dja6uLjgcjjMOxsA3AXagPyOOo6OjA21tbWhvb4fNZoPNZkNLSwtsNhs6OjrgcDikcYplj06n84z/fgKFVquFwWCARqOBTqdDSEgIQkJCEBUVhfDwcERERCAqKgqhoaFQqVQDCuFqtRoGgwFarRZarRZBQUFQqVTQarVQKBS9vuRyufTB4Fw+IBARfR+lzWbDnj17YLPZ+jxBpVIhLi4OYWFhwzw0IqJzIwbunsFbDNler1eage45C+1yueBwOKRg63Q60d3dDbvdjvb2drS3t8Nut6OjowPt7e3o6OiA1WpFe3s7Ojs70d3dLYV3t9sNu93ORfxDxOFwwOFwDOp9KpVK6YOARqOBwWBAcHAwIiIiEB4ejpCQEERERCA0NBShoaEwGo3Q6/UIDg6WvtRqtd+XSqWSAv63Qz4R0UApq6ursXnz5j5vlMlkiImJwcKFC6HVaod5aERE/yHOcPcM398O22LIFr/EmW5xdtnpdMLhcEhhu7OzE11dXejs7ERHRwfsdjva2trQ1dXlF749Hg+cTic6OztH+q+BhpjH44HVah3QuWq1GsHBwQgKCkJwcDD0ej1CQkIQFhaGkJAQGI1GhIaGwmQyISQkRDpPq9UiODgYOp0OGo1G+l4M+UqlEkqlEnK5HAqFYoifMRGNFso9e/agurq6zxtDQkJw4403YsGCBVAqe22eSkR0VnqWlvh8PikUu91uOBwOdHd3o7u7W/pzZ2cnOjs7pe97hnJxhlucde3q6pKCuDjzLQZ7cVZdDPFE50L8oPh9xGCuUCgQFBQkhXSDwQCdTgeDwYCQkBAEBwfDZDJJs/t6vR4GgwFGo9HvmPhBQQz4DPdE44Ns1qxZwr/+9a9eNygUCixbtgxvvvkmwsPDR2BoRBToetZ4i4FYDDJieP52iG5ra+szgIuz3OIxsS68Z3h3uVzS4/QM+2daLz5W6XQ6qFQqaaZWrVZLgdFoNEKn00lfYr22WLYxUIIgDLisQ1wXcCbnD+RcsdzJ4/FIvzdiPb9Yu+9wOKQrMF1dXaPid0Qmk0Gj0UglNeK/nU6ng16vlxbeGo1GKdyLoT8iIgIRERFSXX9oaKhUm8/Ob0Rjg0ytVgt9zRTMmDEDr7zyCnJycvgJnmgcEgRBCjxtbW1SILJarejo6JBCklhOIs5qd3d3S7f3LF3puUDT7XZLdeU9Q3+g137LZDKpW4lSqewVrMQgZTAYoNfrodPpEBwcfFbBWHy8gZLL5VIwDwoKksKfWq2WAvq366zFLiujsbZaLJMSf6fEtQidnZ1+pVEOhwM2m21AM+Li72FnZyesViva2tpgtVphtVpht9tht9v9PmR6PJ5heKa9yeVyqFQq6d9Q/DcWZ+CDgoIQEhKC2NhYJCcnIy0tDZmZmYiJiUFoaKj0+0tEo4sMgF9vLaVSiaSkJLz22mtYuHDhCA2LiIaTWK/d0tKC06dPo6KiAhUVFaivr0dDQwMsFgscDoff4k2xplyc9RYDuCAI0p8DmUqlgl6vh0aj6RW+e9Yli7XJYpmC+GcxBKtUKqjVar9yBbHt4Le7iwy1/hY7jsZQfra+vfBY/N0cSBtJ8ed6/p6LJVvif8USrLa2NjQ3N6O5uRk2mw2NjY2wWCzSh9quri4p6I/ExoRisNdoNFIpTkxMDMLDw5GSkoLs7GxkZGQgJiYGRqNRqqkXF80SUeDxC+1KpRLXX389Lr74Ylx44YUICgoawaER0bn6dvcUsc1fa2sramtrcfLkSZSUlKCiogKNjY2w2+0wm81SKO85Ez6ceobMb/+5Z/9t8b9i+YdYDiIu+DMajQgPD4fJZILJZEJYWBiMRqNfEBcXA4qBRQzhPcNvXyH422F4PAXj8ejbLUD7awMqlneJob2trQ02mw1msxkWiwUtLS2wWCxobW2VFkQ7nU7YbDZ0dnb22W70249/tsTfY7F8SqlUSleI9Ho9jEYjwsLCEBUVhdjYWISHhyMyMhKxsbGIjY1FaGgogoOD2QGHaIRIod1oNOKxxx7DzTffzH7sRKNIz8DQs0WhzWZDa2srampqcOrUKZSWlqK6uhq1tbWwWCzo6uoa0nH1FXbFICyXy/0W0PU8FhISAr1eL81ei7PfRqMRkZGRMJlMCA0NlYK32HJPr9dDq9X6dd8QZ7uJAknPNSA9y22sViuamprQ0tKC5uZmmM1mNDU1SaU6drtdCvc9r3T19SF7MDf3kslkCAsLQ3x8PDIyMpCXl4dJkyYhKSlJ+kAslmSJ/18zzBMNPhkAQavVYsWKFXjwwQeRm5s70mMioj70XHgp1u6KM3ktLS1obGxEVVUVysrKUF1dDYvFItWWD8YGOuLldjF8i4FYnJ3uOUutVCqlutrg4GCp57VWq5Xa4on13+KMt9gpo2eva/FSvRjAGQRovOnZ1lRcOyJumtXS0iKVr4llOW1tbWhtbZX+3+/o6EB3d/egrxkRO9mEh4dj4sSJyMnJQWpqKhISEhAVFSVd1dLpdNJOtUR0bmQymUyYOnUqfve73+EHP/jBSI+HaNwTZ9B6zr6Jb9Ktra2wWCyoqqpCbW0tGhoa0NzcLL1JD0YZi1arhVKplEpOxFltcSMZcaGb2IEkJCRECt16vR6hoaHSbVqtVqoZF0O++EVEg6PnngXd3d1ob29HU1OTtD6lrq4OTU1NqK+vR3Nzs7Sw1uFwDGrpm0KhQEhICGJiYjBx4kSkpaVh4sSJiImJQWxsLKKjo2EymaQuR+xqQ3RmZCaTSbjllluwfv16aDSakR4P0bghtqwTw3lzczMsFgvq6+ulRW0WiwVmsxmNjY1oaWlBR0cHXC7XoGzyI5fLpbITo9GIiIgIREZGIjk5GSaTCREREYiOjkZ0dDSioqJgMBj8uo6IZS0KhYIz4EQBSnyNsdlsaGpqQm1trfSBv7GxUQrw4p4H4p97tl09lyt1Yq18TEwMUlJSEB8fj4SEBMTHxyMpKQlxcXGIiIiAVquFSqUaxGdONPbIbrjhBuGuu+5CVlbWSI+FaExzuVyw2+1obW1FdXU16urqpBkw8RK3WMva3t6Orq6uQWkp13Mzl/DwcMTHxyM+Ph4xMTGIiopCZGQkwsLCpK/Q0FCpNpwz4kRjj7j+pef+CT1L7sTuN2IpTnNzM+rq6lBVVYWGhgZpN+GzKbcRJwtCQ0Ol16CUlBTExsZiwoQJSEtLQ3x8vPQ6xNl4ov+QlZaWCunp6SM9DqIxQxAEaRfPnnXmFRUVUq252PNcrDd3Op2D0hZOq9VKQVzs0ZycnIy4uDiYTCaEh4f7lbOIM+dcOEZEAHq1yhRn6tvb29Ha2oqmpiY0NzejpqYG5eXlKCsrQ1VVFcxm81nPyPfsLR8WFobw8HAkJCQgJSUFOTk5yMjIQHx8vPSaRTReyXw+n8A3a6Kz5/V6YbfbUV9fj9LSUhw5cgQlJSUwm83SYrGuri7pMvO5hnO5XI6wsDAEBwcjMjJSmp1KS0tDXFwcoqKi+txkh7XkRHSuxC41Ypeqrq4uNDc3o76+HhUVFTh27BiKioqkMr+BbGr1bTKZTGrfKm5SJk4+5OTkID8/H2lpaYiMjIRer+eEA40bMmEw+0IRjXE9d2E0m80oLCzEzp07sWfPHlRVVcHpdPptONSzz/L3Ed94evYGV6vViIyMlOpAMzIykJ2djQkTJiAiIgJGo1FaOPrtjXWIiIaD+Loozsx3dXXBarWiqqoKx48fx549e3DixAlUV1ejq6vLry3lQF8fxfUzYscqnU6HxMREZGRkYN68ecjLy8OECROkHV/5WkhjEUM7UT/ENyKx1ZrNZkNNTQ2+/vprfPHFFzh8+DAsFstZ3bfYxlCcTVKr1YiOjkZYWBhSU1ORmZmJSZMmITU1FRERETAYDNBoNHwDIqJRRxAEabF9WVkZCgsLcfToUdTW1qKmpkbqZONyueB2u8+qx7xSqURMTAzi4uIwefJkTJ06VSqrCQ8P9+tkxddRGq0Y2okAv82JxC4K4tbkVVVVOHToEA4ePIiamhq0tLSc0eyQ2Lv8251aEhISkJycjNTUVKSmpvotvlIqlUP8jImIRo7b7UZHR4dUVlhYWIiKigrU1NSgtbVVWvcjluGcDY1Gg4SEBKmkJisrC4mJiYiMjERoaKhUI8/XWxotGNppXBIEQbqEK25M1NTUBIvFgsrKSlRUVEidEmw224Dr0BUKhdTb/NstE8WAPmHCBISFhUmbjrA7AhGNd+Jrss1mQ21tLcrKylBeXg6z2YzKykrp9bmtrQ2dnZ1n3F9eoVDAYDBIVzMnTZoktaCMi4tDTEwMTCaTFOT5ukyBiKGdxhWHw4HKykoUFhbi+PHjqKmpkVovtrQ5IqSyAAAgAElEQVS0oLu7G3a7fcD3p1QqpR7EaWlpUreWxMRExMfHIzY2FiaTSdrhk5dliYgGxu12w+FwoLm5GbW1taisrERNTY3UZ76mpgaNjY1Sf/kzpVKpYDKZEBsbi5SUFCQkJCApKQkxMTFISkpCfHw8IiIipM2giEYaQzuNeS6XC9XV1Thw4AAKCwtRWFiIEydOoLGx8az7DMfFxSEzMxN5eXnIysrChAkTkJKSgsjISL7AExENAUEQ4HQ60dnZiZaWFpjNZtTX18NsNqO8vFzaAdZsNqOtre2MO3UpFAro9XoYDAbpCmlMTAzS09ORnp4u9ZA3mUwsqaERwdBOY5LD4UBjYyMOHDiA3bt34+jRo9Il1rPZTVSj0WDChAmYOnUqZs+ejezsbCQkJCAyMhJGo5Gz6EREI0Bci9TR0SFtBNXY2IiamhqcPHkSRUVFqKioQFtb21nNxosljyaTCVFRUUhMTERSUhKysrKQl5cn7SDN/vE0HBjaaUzo7u5GQ0MDSkpKUFBQgEOHDuHUqVNoaWlBW1sburu7B1wDGRYWBr1ej8TERGRlZSEnJwfp6elISkpCREQEQkJCpJZiREQUOARBgNfrhdvtlnZ7NZvNOHXqFA4fPixdabVYLGe847RMJpO6fgUHB0Ov1yM0NFRa6Cp2rImKimKI/zeHw4E77rgDZrMZq1evxpo1a6DVakd6WKMWQzuNGmJPX6/Xi87OTtTX16OoqAh79+7FkSNHUFdXh8bGRnR3d8Pj8XznpVGxh69arUZUVBTS09ORk5ODKVOmICMjA3FxcTAYDAgODpZ6A7PnLxHR6CO+b3g8HnR3d6O1tRXV1dU4fvw49u/fj+LiYqkZgdhDXuwj/31kMpnUwlen0yEqKgpJSUmYNm0a5syZg8zMTERHR0vvJePpfUQQBBw/fhzTpk2D1+tFXFwc/vd//xfXXnstP9ScJYZ2CliCIMDj8cDhcKC9vR1NTU04efIk9uzZg6+++golJSVn1ApMoVAgKCgIJpMJkyZNwsKFC7Fs2TJMnDgRoaGhrFEkIhqHOjs70dzcLM3GHzlyBKdOnYLZbIbdbkdXVxdcLhe8Xu8Zd63RarXIysrClClTMGPGDOTk5CA+Ph4hISFSgwKlUjkmg3x1dTVycnL8ypLi4uLw29/+FldeeSWD+1lgaKeA4/F4YLPZcPr0aZSUlODYsWMoKChAWVkZGhoazuiSpkwmg16vR3R0NNLS0jB16lQsX74cU6dOhcFgGMJnQUREo5Hb7YbdbofZbEZxcTEKCwtRXl6O+vp61NfXSz3kXS7XGW0EpVKpEBoaiujoaCnIT5w4EUlJSX694zUazZgovzxy5Ajmz5/vt45MJpPhqquuwk033YSZM2dCp9ON4AhHH4Z2Cghij97q6mocO3YMe/bswY4dO3Dy5Mkz6vCi0WgQFBSEsLAwaXe8zMxMzJ8/H9OmTUNUVNSYeDEkIqLhIQiCtBFUeXk5SkpKUFpaKpVkNjQ0SGunzrQjmUajQVJSEiZOnIhJkyYhPT0diYmJiI2NRWxsLMLCwkZtDXhLSwvOO+88nDhxwu+4TCZDamoq/vd//xdr1qxBUFDQCI1w9GFopxHl8XhgsVhw+PBh7Nu3T9p51Gw2D+jn5XK51CddfOFLTk5GSkoKUlJSpJX9bMFIRESDwev1wuFwwGq1orq6WtqMr6qqCuXl5VIf+c7OzjOaiRfr4kNDQ5GQkICJEydiwoQJmDt3LvLz8xERETGqyjg7Ojpw//334/nnn++zrCg1NRVr167FihUrMG3aNL5PDwBDO40Ij8eD0tJSfPbZZ9i3bx9OnDiB8vLyAdWom0wmxMfHIzs7GxkZGUhKSkJSUhLi4uIQFRWF0NBQaDSaYXgWREQ03gmCgO7ublitVjQ2NqKurg7V1dWoqanBqVOncPLkSak+/kzWYQGAWq1Geno68vLyMGfOHCxYsACZmZnQ6XQBXwfvdruxd+9e3HbbbTh+/HifwV2lUuGiiy7CjTfeiCVLliA4OHgERjp6MLTTsHI6nTh+/Djeffdd7Ny5E+Xl5Whtbf3O2QiFQoG4uDippVZeXh4SEhKkbae1Wi1UKlXAv4AREdHY5/P5pN1crVYrmpqaUFdXh/LychQVFeH48eMoLy+HzWYb8MJWhUKBsLAwJCQkYPLkybjoooswf/78gG8v6XK5sHXrVvzyl7/sVSYDfFMqExwcjBUrVuDZZ59FbGzsCIxydHA6nQztNPR8Ph/a29tRWFiIt956C19++aU06/BdjEYjLrzwQqxcuRK5ubmIjo6GwWCAVqsds6vtiYho7BHbTXZ1daGtrQ2NjY2oqqpCYWEh9u/fj9OnT8NqtQ5o8z+NRgOTyYSIiAjk5+dj8eLFmDFjBiZMmAC9Xg+FQjEMz2jgnE4n/vGPf+Cee+5BfX19n+2YDQYDZs2ahTvvvBMXX3zxqCoDGkpOpxMNDQ344osv8M9//pOhnQaXIAjw+XxwuVxoaWnBsWPH8Nlnn2H79u2ora1FV1dXv91fFAoFVCoVsrOzcfXVV2P58uVISkqCVquFQqFgSCciojFB7AXv8XjgcrlgsVhQWlqKgwcP4l//+heOHDmC5uZmqdVkf5RKJVQqFYKDg5GamoopU6Zg0aJFyM/PR1xcnBTiR7o/fHNzM7788ku89dZbOHHiBFpbW9Hc3Ox3pUEulyM3NxcPPPAAli1bBr1eP+7e971eL2w2G6qrq7F582Zs2bIFx44dQ2dnJ1wuF0M7nRtx0wrxMmBDQwOKiorw+eefY//+/aipqfnOn1coFDAYDIiIiMDcuXNxzTXXYPbs2WzHSERE45Lb7UZbWxuOHDmC9957D1u2bJHaTA605bFGo0FGRgbmz5+PBQsWYNKkSYiMjJT6w4/k1er29na8/vrrePPNN3H48OE+O+4sWrQIzzzzDCZPnhxwVw6GgtihaOPGjXj66adRVFTU5781QzudFafTCZvNhvr6elRWVuLw4cPYvXs3CgsL0dbW9r0r5hUKBWJjYzFp0iRceOGFWLVqFVJTU7l6nIiI6N88Hg8qKyuxdetWbNu2DSdOnEBdXR3sdvuAO9OI77dpaWmYOXMmJk+ejEmTJiEtLQ0hISEjFt4tFgtWrVqFgoKCPp/L9OnTcf/992Pq1KmIj48fk+FdDOtFRUX45z//iTfeeAMNDQ39ns/QTmfEbrejuLgYBQUFKC4uxsGDB1FaWoq2trYB/bxSqURqaipmzpyJ5cuXY+HChYiLi2P9GhERUT98Ph9sNhsKCwulPUxqa2tRW1sLm82Grq6uAd+XSqVCTk4Oli9fjvPPPx9TpkxBRETEsIdip9OJjz/+GO+88w52794Ni8XS6xy1Wo1bb70VDz/8MIxG47COb6g5nU4cO3YMW7Zsweuvv47S0tJ+z5XL5d98wGJop+/j9XrR0tKCwsJCfPHFF9i5cycOHToEl8s1oJ/X6XRISkpCZmYm0tPTMW/ePCxatAgmk2mIR05ERDS2uFwutLa2oqKiAiUlJSgvL0dpaanUL761tXXAXWkyMjKwePFizJ8/H3PnzkViYiI0Gs2wzr43NTXhL3/5C1588UVUV1f73SaTyZCYmIhf//rXWLt27ZgI7k6nEwcPHsT27duxbds2HDhwoN8PXYmJicjOzkZqaioyMjIY2ql/Xq8XDQ0N2LVrF7Zt2ybNqg8krOt0OkyaNAnTpk1Dbm4uMjMzMXHiRMTGxiI4OHjcLS4hIiIabD6fD11dXWhubkZNTQ0qKipQWVmJ0tJSFBcXo66uDi0tLd95H2Jb5dzcXGRnZ2P69OmYNm0aEhIShu392mq1YufOnfjoo4/w6aeforW11e/22NhYrF69GqtXr8bcuXNH5V4sbrcbJSUl+Pjjj/HJJ5/g0KFD/fbtT0tLw7p16zB58mSkp6cjLi4ORqORoZ36VlJSgnfeeQe7du1CZWUlzGbz94b16OhoTJ48GfPnz0dubi6Sk5MRHx8Pk8k07J/ciYiIxhOxMURXV5ffRk9Hjx5FYWEhDh061G/LReCbWW2tVovIyEhER0dj0qRJmD17NpYsWYLk5GQEBQUN6fi9Xi+qqqrw9NNP429/+xtsNpvf7UFBQcjJycGaNWuwdu1axMTEjJpccfr0afzlL3/B9u3bUVZW1m+PfqVSiXnz5uFXv/oVFi5c2KuDDkM7SZxOJ06cOIG//e1v+PDDD2GxWL5zsYtMJkNkZCTOO+88XHDBBZgyZQoSEhIQGhrKNo1EREQjqGd3t46ODjQ2NuLo0aPYsGEDdu3a9b094TUaDfR6PUwmE7Kzs3HzzTdjyZIlQxreBUGQynGvu+461NXV+d0u1nZnZ2fjpptuwrp16wJ6garP50NxcTEefPBBbN26FZ2dnX1mKo1Gg3nz5uH666/HvHnzkJiY2GdjDob2cc7j8aC9vR0HDx7Eq6++iu3bt8Nms/XZggn45jKaRqPBnDlzcMMNN2D+/PkIDw9HUFAQQzoREVGAEkO83W7HsWPH8MYbb+Af//gHOjs7+33PFykUCoSGhmLJkiX4yU9+ghkzZkCn00Eulw/JWH0+H06dOoWLL74YlZWVvWalFQoFsrOzsWnTJiQkJAzJGM6Vy+XCT3/6U7z77rtwOBy9rnDIZDJoNBqkpKTgzjvvxBVXXIHQ0NDvbMzB0D4O+Xw+dHZ2or6+Hlu3bsWrr76Ko0ePfu8ls/DwcCxatAjXXXcd5s6dC61WO8wjJyIiosFSUVGBF154AZ9//jlaW1vR0dGBrq6u79zQyWAwYMWKFbjuuuswefJkREZGDslsd1dXF9577z38+c9/lrrUfTu8z5s3Dx9//DHCwsIG/fHPltfrhdlsxrPPPosnn3yyz3P0ej3y8vJwxx13YNWqVdDr9QO6b4b2ccTr9aK1tRUnTpzAtm3b8OGHH6KoqKjf8xUKBSIiIpCSkoLZs2djzZo1mDZtGtRq9TCOmoiIiIaKz+dDc3OztN/KoUOHUFVVhcbGRrS2tvYb4FUqFVauXImf/OQnyMvLQ1RU1JCE9+bmZrz99tt45513cOTIETgcDuk2jUaDW265BXfccQcmTpw4olf7fT4f6uvrceTIETz99NP48ssve22QpNfrkZGRgeXLl+P2229HbGzsGT0GQ/s44PV6UV1djf3792Pv3r3YtGkTTp069Z0/M3HiROTn52Px4sVYtmwZUlJSuPERERHRGObxeNDW1obS0lLs378fBw8exOHDh1FWVgan09nrfJlMhri4OKxcuRLLly/HjBkzEBsbO+jh3ePx4NChQ3juueewadMmv0WqwcHBWL58Oe666y5MnTp12KsABEGAzWbDgQMH8Pe//x0ffvghrFZrr/NCQ0OxevVq/M///A+ysrLO6u+IoX0M8/l8MJvN+PLLL/Hxxx9j+/btsFgs/S4sVSgUSEtLw6JFi3DhhRdi1qxZiImJ4cZHRERE44zP50NHRwf27t2LLVu2SJs69RXelUolkpKSMH/+fCxYsADnnXceUlNTB70148mTJ3HPPfdg06ZNfh3tNBoNpk6dijVr1uCyyy5DYmLisMy6u91u7N27F5988gk+//xzlJSU9Oq0p1KpMHXqVPz3f/83LrnkEqSlpZ314zG0j0FerxdNTU3Ytm0bNm3ahP3796O6urrXZRqRwWDAzJkzsXjxYsyaNQvTp09HRETEMI+aiIiIAo0gCLBarSgsLMQnn3yCDz74ADU1NX1OAMpkMkRFRSE3Nxdz587FihUrkJeXB51ONyhj8fl82LNnD+677z7s2bOnV66JjIzE7NmzsXr1alxyySVDXuteX1+Pm266CTt37vQr2xEFBQXhiiuuwC233ILZs2efc8WCzO12C5xJHf3cbjdaWlpw9OhR7Ny5E/v27UNFRQUaGhr6XRVuMBiwbNkyrFixAjNmzMCECRN69QQlIiIiEmvfi4uLsWXLFrz77rs4ffp0v1fvDQYDUlJSkJ6ejksvvRRLly5FVFTUOXec8Xq9eOmll3Dffff1WYYCAJMmTcLbb7+N/Pz8Ic001113Hd57770+dzTVarW49tprcffddyMpKWlQxiH7xS9+ITz88MPsBDIKeb1eWCwW7Nu3D5s3b0ZBQQHMZjPa29v77QUKAGq1GldeeSVuuOEGZGVlwWQyQa1WM6wTERHRdxLLZioqKvDWW2/hr3/9a68dTHtSKpUwmUyYOHEiLr/8clx22WWYMGHCOZXetre34/Tp03j44Yfx/vvv97pdoVAgOTkZW7ZswcSJE8/6cb7LK6+8gjvuuKPXDLvRaMRll12Ga6+9Fnl5eQgPDx+0x5SpVCohOzsb9913Hy699FJ2BhkFBEFAc3MzHn30UWzYsEHqq+71evu9XKVUKhEVFYUrr7wSN998M1JSUqBWq4esxyoRERGNXYIgwOVy4cSJE3j66afx6aefwm63w+1295tFVCoVdDodVq5cibvuuguTJk06p7p3u92Ozz77DPfffz/Kysp6tYSMiYnB9ddfj7vuumvQSmVcLhfuv/9+vPzyy34fVpRKJbKysvDQQw9h6dKlCA4OHvSMpfD5fOutVitUKhWmT5+OkJAQzrgGsM7OThQWFuKmm27Ce++9B7vdDo/H0+d2uDKZDEFBQUhNTcWPfvQjPPXUU7j66qsRHR0NpVLJf2ciIiI6K+KEYExMDFatWoUrr7wScXFx6OjogNPphMvl6pVNvF4vuru7cfToUbz33ntoa2tDYmIi1Gr1WV3xV6vVyMzMxPTp09HY2Ijm5ma/me/Ozk60tLRg4cKFiI6OPqcQLQgC2tra8MYbb+D5559HU1OTdJtCocB5552H559/HhdccMGQVS8oAKz3er04evQozGYz8vLyEBYWxkAXYDweDyorK/H222/jxhtvRGlpab/n6nQ6JCQkIDs7GxdeeCHuv/9+XHPNNYiNjeXMOhEREQ0quVyOsLAwzJ07F6tWrUJaWhoEQYBKpUJXV1evjioA4HA4sGfPHnz++ecICgpCdnb2Wc26y+VyJCUlYeXKldBoNCgqKkJnZ6d0e1NTEw4ePIicnBzExcWdVatFQRBQVVWFZ555Bk8//TQsFovf46enp+Ouu+7C0qVLhzRnKQCsF78pLi6G1WpFUFAQoqKiEBQUNGQPTAPjdrtRXl6Ozz//HM899xxefvlldHR09DpPp9MhMzMTs2bNwooVK3Dttdfi9ttvxw9/+EOkpKQMyYYHRERERCKZTAa9Xo8pU6Zg5cqVmDVrFsLCwqTw3teCzba2NtTV1UGpVMLj8UCn00Gj0Zzx5LFGo0FWVhbMZjNOnjzp90HBbDajpKQEOp0OoaGh0Ov1Aw7XdrsdO3bswO9//3u8/vrraGtr87vdaDTi+uuvxy233DLk+9nIAPgVHsnlcmRkZOCtt97C9OnTh/TBqX8OhwNlZWX48ssvsXXrVuzevbvPhR4GgwHz5s3DokWLMHXqVGRnZ/MDFxEREQUEp9OJiooKfPXVV9i9ezd2796N6urqXjutarVa5ObmYtasWcjPz8fcuXORmZl5RgtWnU4nDh06hM2bN+O5557z24RJJpMhPj4ejz32GH74wx8OKCcJgoCioiJcd911OHjwYK/bk5KScOutt+Kiiy7C5MmTh7xKRXHLLbes7zkQsR9nfX09lixZMmi9NWlgxFqvP/7xj3j55ZexYcMGFBYW9tn/Mzo6Gj//+c9x5513YtWqVcjIyEBoaCg3QyIiIqKAoFQqERkZifz8fMyePRuTJk2SZtd79ln3eDyor6/HwYMHsX//fhw4cADl5eXQ6/WIjIwcUMWAUqlEYmIiZsyYgbCwMGzdutWvrt5ut6OhoQG5ubmIj4//3tl2u92ORx99FNu3b+/VEz4vLw+//e1v8eMf/xhxcXHDUlaueP/999e7XC4UFhZKT0wQBJSVlaGsrAw/+MEPGNyHgdfrxRdffIFHH30UL7/8MjZv3oyysrI+LyUBwLJly/DEE0/g8ssvR1JSEhQKBdchEBERUUCSy+UwGo3IyMjAnDlzMGPGDHz99de9co4gCOjs7MTp06dx5MgRHDlyBHK5HFlZWQMuP1Gr1cjLy0NERAR27NghzeoLgoDa2locOHAA06dPR3x8fL/ZSRAEvPTSS3j22Wd7jfGiiy7Cb37zG1xwwQXDOlGq+M1vfrNenP5vbm72a9NTXl6OgoIChIaGIjU1lXXRQ8RqteLFF1/EI488gq+++gp1dXV9LtoAvtld66qrrsLzzz+PKVOmIDg4eJhHS0RERHR2FAoFIiIikJycDLlcjuPHj8Nut/d5rtPpRF1dHQoKCnDq1CnExsYOuAuMSqWC0WjE0aNHUVtb6zfjbrFYsH37djQ0NGDBggV9fhh44okn8OSTT/qVJstkMmRlZeGJJ57AvHnzhj0XKx555JH1aWlpuOyyy2C1WlFUVCQ9MZ/Ph/r6eiiVSixZsoR10oNI3Jxg165duP322/HXv/4VFoulV42XXC6HRqNBcnIy7rjjDjz33HO45pprEBYWxk4wRERENCppNBrMmTMHa9euRWZmJmw2G9rb2+Hz+fwCtiAIsNvtKCoqwt69exEREYGUlJQBzbqHh4fjsssuQ1xcHHbu3OlX4mKz2XDs2DGo1WpMnjzZr01jfX09fvWrX6GyslI6XyaTYdGiRfjjH/+IOXPmjMhEtmL9+vXr5XI5DAYD5s+fD4vFgpMnT0pPzOv1orW1FbGxscjNzWVQPEderxc2mw379u3D7bffjkceeQRVVVW9wrpMJkN4eDimTZuGn//853j00UdxySWXIDo6eshXJxMRERENJZlMBoVCAaPRiOnTp2Pt2rVYtWoV9Ho9Wltb0d7e7peNvF4vGhsb8emnnyI/Px9paWnfm0nF/Wpyc3MRHh6OAwcO+K0RdDqd2L17N0pLS5GWlga9Xg+r1YqbbroJ+/fvlz48yGQypKam4t5778WSJUtGLAsr1q9fv178Jjg4GPPmzcOBAwdQVVUllcrY7XZ4vV5MnToVERERrJ0+C16vF01NTdi/fz/+/Oc/48EHH0RxcXGf58bGxmL+/Pm4/fbb8fDDD2Px4sUIDQ3lByYiIiIak5RKJaKjo7Fw4ULk5eXB6/WioaEBDofDr3Tb4/EgOTkZkydPhsFgGNB9q1Qq5ObmQhAEHDp0CN3d3X73V1xcjE2bNkGv1+Pzzz/HBx984BfujUYjbrzxRtxwww1Qq9WD96TPkF9oB755YlqtFgUFBVKrHEEQ0NDQAIVCgZycHBgMBgb3ARIEAWazGVu3bsXrr7+Op59+Gtu2betzgaler8d5552HW2+9FY888gjmzZvHmnUiIiIaNxQKBVJSUrB06VKo1Wo0NzejqanJr2Tm66+/xsKFC5Genj7gPCpWlQQHB6OpqQk2m83vw0B7ezvKy8tx7Ngxv82TjEYjVq1ahR/96EeYMGHCoD3Ps9ErtCsUCmRlZcHn82HHjh3SX5LL5UJFRQVyc3ORkZHBRakD4Ha7cfjwYfzhD3/A73//e+zYsQNWq9XvlwT45hcpNTUVP/7xj3H33Xfjwgsv5PoBIiIiGrfUajXy8/ORmZkJg8EAi8UiTSZffPHFWL16NWJiYs4otMfFxWHRokVITU1FW1sbTp065XdOS0sL2trapJymUqmwdOlSPProo8PSh/37yIRvJ8h/a21txSWXXIKvv/76PyfLZJgzZw6eeeYZzJw5k+Ua36GlpQV/+9vfpD7rPbfUFSkUCkycOBErV67E+eefjzlz5iA8PHzEfymIiIiIAoEgCGhpaZGqFYKCgvDiiy9i0aJF57TGr7i4GDfddBP27t3b7zmZmZl4/fXXMXv27LN+nMHUb2gXBAEbN27ENddcg46ODr/bJk+ejLfeegt5eXnDMsjRxOPx4O2338arr76KEydO+F1i6Sk2NhZXX301LrnkEmRnZ7MbDBEREVE/WlpaUFpaCoVCgezsbOj1+nO+z6NHj2LHjh148sknUVdX53ebUqnExRdfjJdeegnR0dHn/FiDoVd5jEhccVtWVoaKigq/FbyNjY3YuXMn1Go1srOz2c3k3+rr6/HQQw/hueeeQ3FxcZ+z68A3l3VefPFFXHbZZUhPT4dOp+PsOhEREVE/goODkZiYiPj4+EFbDBoVFQWj0YitW7fCbDb73ebz+VBeXo4vv/wSgiAgIyMDGo1mUB73bPU70w58M9ve1taG1157Dffee6/faluZTIZp06bh008/DZhPICPB6/XCarXik08+wVNPPeXXLlMkfgBavHgx7rvvPkydOhVarZZBnYiIiEY9n88HQRAgl8tHVbaxWq1Yt24dPvvss17rDUUKhQJLly7Fs88+i5SUlMDqHtOTGDbFtjoHDhzwC+7t7e2Qy+VYsGDBuFuYKggC2tvbsXnzZtxyyy144YUXYLFY/FY3A98spMjJycEDDzyA9evXIz09HSqValT9UhMRERF9myAIqKioQEFBAY4fP46uri4IgiD1YA/0st9du3bh//7v//wmW00mExQKBdxuN4BvnmN5eTk2btwItVqNzMzMEWsW8p2hXaRWq5Gbmwur1YojR45IT87j8aClpQVTpkxBUlLSuAmiLpcLx44dw6uvvoqHH34YpaWlvc6Ry+VIS0vD8uXLce+99+K//uu/oNVqR2C0RERERIOvra0Nl19+OZ544gm8++67+Oc//4kDBw6gtrYWVqsVDocDMpkMHo8HLpcroGbjKysrsW7dOr+1hwqFAqtXr0ZsbCxOnz7tVxre3t6O48ePQxAEGAwGhIaGQqlUDuuYv7M8piePx4OvvvoKDzzwAPbt2ycFd41Gg5UrV+Lxxx9HRkbGkA52JAmCgI6ODhQXF6OgoAB///vf+11xbDKZsGzZMqxbtw4XXHAB2zcSERHRmNLd3Y3nn38ev/71r3tVGQNxNxsAABStSURBVADf7D2TkZGBmTNnwmQyQalUIiwsDMnJycjMzERiYiJ0Ot2IVGoUFxfjt7/9Ld58802pLEYulyMpKQnPPfccBEHApk2b8Oabb/ptsiRasmQJ7r77bixevHhY1nX6fD5UVlYOPLSLP7Rhwwb86le/QnV1tXTcZDLh3nvvxZ133jmitT5Dwev1oqWlBQcPHsQXX3yBXbt2obCwEC6Xq8/zs7KycO211+Kaa65BTEzMMI+WiIiIaOhVVFQgPz+/V4fB76JWqxEdHY2cnBxkZmYiJycHWVlZSElJQVhYGDQazZCX1LhcLvziF7/Aa6+9BrvdLh2Pj4/HzTffjJtvvhkxMTFobm7GmjVrsH379l73YTAYMH/+fLzzzjsIDQ0dsrEKgoCmpiZs2bIFH3744ZmFdgDo6OjAL3/5S7z22mtScJXJZJg7dy6efPJJzJ07d0gGPhJaWlqwYcMGbN++HSdOnEB5eblfTX9PqampWL16NZYuXYr58+dzJ1MiIiIas6qqqpCXl3dGob0nhUKByMhIJCQkIC4uDsnJyZg8eTJycnIQEREhlZ5otVoYjUYEBQUNSqDfsWMH7rjjDpw4cUKaZddqtVi3bh3Wr1+PuLg4AN9skHno0CFs3rwZr776KqqqqvzuJygoCE899RRuuOGGIesq4/F4sHPnTtx+++0oLS3FGRfjGAwG3Hbb/2/v3oOiqt8/gL/P7rILLAisICIXBYUUVKS4KamNUIramI3TWDnpOGVNP8cZbSqaMm8zdplpssbSoKmmi+ZYpFkjoeUtbyAmo3lBhAUR2WblsuzCLgt7fn84nK+nBRN2WS6+X//ts+zZZ/Wf53zO83k+/4eCggLpB4iiiJKSEuTl5SE8PBxRUVFuT9zTLl68iE2bNuHw4cNdbjDtpNVqMWfOHKxYsQLJyckICgoaEL1aRERERH0lICAAGRkZKCgo6NXnOzo6UFdXh7q6OmnwSWBgIHQ6nWzCnkajQWRkJBISEvDQQw8hIiJCaklRKBQQRVEqvgVBgCAIUs125/ud7+3YsQMVFRWytpjU1FSsWrUKZrMZZWVlUh9+fX09DAaDtCn1TlarFVu3bkVcXBymT5/u9sLdbDZj/fr1OHjwICoqKgCg50U7AMTHx+OJJ57Atm3bpNV2m82G/Px8BAYG4o033kBISIj7Mvcgs9mMvLw8bN26FTU1Nd22wQiCgPDwcKxatQrPPvssRowY4fENCURERET9QaVSITMzE0VFRaivr4eXlxeefvppzJ49GwaDAUePHsXJkydhMBj+81qiKKK1tRWtra24efOm7D1BEKBSqfDrr7/C19cXarXapcVRu90u65oYNmwY9Ho95s+f75RTW1sbmpubu+2yuH79Os6cOYOHH3641/l0xWq1Yt26ddi+fTtaWlqkeI/bYzrZbDasXr0an332mWwVOjg4GPn5+cjIyBjwo36A2/8p7e3taGhowK5du7BlyxZcv369y7sqlUoFb29vJCUlYfXq1cjIyIBOp2OxTkRERPcdo9GI3bt346effoLVasXGjRsxY8YMOBwOOBwONDY24vr16zCbzTCZTCguLsb+/ftRUVEBq9UKu92O9vb2bmekD3QqlQrz5s3D7t273bIhtbW1Fd9//z02btyImpoa2ShKQRB6X7QDQE1NDRYvXowTJ07I/sHfeOMNvPXWWwO2r9vhcMBqtaKxsREGgwElJSX49ttvcfr06S7vpjQaDUJDQzF16lQ8//zzmDZt2oD9bUREREQDVUtLC6qrq3Hq1CkcPXoUpaWlqK+vR3NzMywWC9ra2rptSR5okpOTcfDgQfj7+7u0UN15mOnFixexbt06HD582OmgTp1O51rR3tHRgYMHD2Lx4sVobGyU4tHR0SgsLMS4ceN6/QP6Sm1tLUpLS3HlyhUcPXoUJSUluHHjhmwWZyelUomwsDDMmjULy5cvx9SpU4fcdBwiIiKi/mC329HQ0IDy8nKUlJTgwoULqKqqgtlshiiKcDgcaGtrQ319Perr62GxWLqs1/qKIAjw9fVFSEgIgoODZYdjajQaLF++HEuWLHHpO0RRhMFgQG5uLrZt2waDwSBbCFer1YiJiUF2drZrRTsA6PV6rF69Gnv27JHF33//fbz66quuXNqt7HY7/v77b3z++ef48ccfnf5R/k2j0SAtLQ1Lly7FwoULERQU5MFsiYiIiO4foijCZrPBZDLBYrFI7cvNzc24evUqLl++jOrqajQ1NUkr8Z0bTO92zc73//zzTxiNRum9mJgYTJ48+a45eXt7Izo6GomJiRg/fjy0Wq10vWHDhrm8f9NsNuP06dP4+eefsXv3bqd+fi8vL6SkpODNN9/EY4895nrRbrPZsGPHDqxZs0a22v7AAw+guLgY/v7+rlzeJZ2PG86fP4+jR4/ijz/+wKlTp2RN/f/m4+OD1NRUzJo1C7Nnz0ZycnK/DP4nIiIiotv1nN1uR0tLC1paWnpctG/atAm5ubmy995++2288MIL3X4GuF20BwQE9NkBShcvXsSyZctQXFzs9J6fnx9WrlyJrKwszJw5EyqVqnfTY+6kVquRnJyMtLQ0/Pbbb1K8oqICn3zyCXJyclz9il5pb2/Hrl27sH//fly+fBmXL1+GxWLp9u+9vLyQmJiIRYsWISsrCwkJCTzJlIiIiKifCYIAtVoNtVrdo8OMRFHEmTNnnMZSRkREYOHChYiIiHB3qvekubkZ+fn5yM/PR2lpaZd/k5mZiTVr1shW810u2gVBQHR0NNLS0nDkyBFpI6fdbkdubi4SExORnZ3t6tf0SGNjIz788EN8+eWXqK2t7bb/Sa1WIzExETNnzsSDDz6I8ePHY9y4cfDz8+OsdSIiIqJBzG63o6ioCDU1NbL4vHnzMHr06H7KCmhqasLHH3+Mc+fOOW26HT9+PF555RXMmDEDOp1O9p5bZhVqtVrMnDkT+/fvR0lJiZRAdXU1NmzYAKVSiccee8wdX9Utm82Gq1ev4ptvvsGvv/4qbWToTlZWFjZs2IDw8HAEBQXBx8cHKpWKxToRERHREGAymbBz505ZYaxWq5GZmdlv7dsGgwErVqzA+fPnZXkJgoDY2Fhs2LABjz/+OHx8fJw+65aiXRAEPPLII3jzzTeRk5ODK1euQBRFdHR04K+//sL333+PadOmwc/Pzx1fB+B/Q+9NJhNOnTqFjz76CKdOnYLVau1yZV2hUMDHxwdBQUF45plnsHbtWtmGAiIiIiIaOoqLi3Hy5ElZLCMjA4mJiR4/Y8dsNuPbb7/Fli1bUF5eLqtV1Wo1li5dinXr1iEsLKzb8ZFuy1ihUGDevHm4cOECPvjgAzQ0NAAA2tracPr0aRw5cgTZ2dkuH7jkcDhgMplQVVWFgoICfPfdd7h06ZLTPMtOKpUKI0aMwKRJk7B48WLMnj0boaGhg+LgJyIiIiLqufb2dmzfvt1plX3+/Pke7WUXRRHNzc0oKyvDgQMHnAp2rVaL6dOnY86cOdDpdHetT916m6FSqbBq1SocP34chYWFUlLXrl3Dnj17kJSUhFGjRrn0HRaLBXl5efj000+h1+vv+re+vr5ITU3FypUrMXfu3C4fNRARERHR0KLX63Ho0CFZLD4+HikpKR6tB9va2lBYWIi33noLV69eld1EaLVaLFmyBJs3b3bqX++K258N+Pv7Y+nSpTh79iwMBgOA2/3mBQUFyMrKwqJFi3o1QtFut+PSpUs4fvw4cnNzUV1d3eXfKRQKjBw5EklJSZg0aRKefPJJpKSkuPSbiIiIiGhwcDgc2LNnj2zEt0KhQHp6OuLi4jzWGt3S0oKioiLk5+ejvLxcVrArlUqkpqZi7dq191SwA31QtAPAggULUFhYiC+++EKK1dbWYt++fUhPT+/xjt329nYUFRXho48+QmFhIUwmk9PBSEqlErGxscjMzERqaioyMjIQGRnJE0yJiIiI7iNGoxE//PCDrEgOCQlBcnIyhg8f7rE8DAYD3nvvPRw4cEDWEuPl5YXnn38eCxYs6NHhnX1StHt7e+PFF1/Ejh07pBGQDocDBQUFSEhIwMsvv4yAgID/vI4oirh58yb27duHXbt2oaioyGnWuo+PDx588EFkZ2cjNTUVSUlJGD58ODeYEhEREd2HDh48iPLyctkCb2JiIqZOnerRDag3btzA6dOnZQW7UqnExIkTsWLFCkyZMqVH1+uzzCdPnox58+Zh79690ibR+vp6fP3118jOzkZiYuJ/nmJVUVGBzZs348CBA7h586bTZtOoqCi88847SEpKQkREBLRaLTeYEhEREd2nWlpa8NNPP8FkMkkxf39/pKWlISYmxqO5HDp0CE1NTdJrhUKBl156Cc899xzi4uJ6fL0+K9q9vb2xceNGVFZW4uzZswBuF+J6vR5lZWWYOHHiXe926urqsGzZMpw5cwY2m82pHSY4OBhz585FVlYWRowY0Vc/g4iIiIgGiUuXLuHKlSuw2+1SLDo6GllZWR496d5ut6OwsFDWoqPT6TB9+nQkJSXBy8urx9fs02Xp2NhYvP7667J/JKvVigMHDsBms3X5GVEUcevWLXz11VcoKiqC1WqVFexeXl6IiYnB+vXr8e6778qOdyUiIiKi+5PdbsfevXtRVVUlxVQqFeLi4nrciuKqmpoanDlzRhZLTU3F5MmTe1WwA31ctKtUKowdOxbR0dGy+J9//il7XHCnlpYWfPLJJ9i4cSPa2tr+l6hCgZCQECxcuBC//PKL1BfP3nUiIiIi0uv1OH78uKw1Zvjw4Zg/fz6GDRvmsTwcDgc+/fRTaV8ncHvROTExEWFhYb2+bp924wuCgLCwMKSnp+Py5cvSivm1a9dw/vx5p5ntHR0dKCsrQ35+vmwl3svLCxMnTsQzzzyDp556ChERESzWiYiIiAjA7Rry2LFjuHLlihRTKBSIiYnBo48+6tFcjEYj9u3bJ4vpdDrExcXBz8+v19ft812bgYGBmDx5smz0ot1uR15enqww7+joQFVVFbZs2YKysjKpwBcEAZGRkVi1ahVWrlyJqKgobjYlIiIiIonZbEZpaSn++ecfKabRaDB37lyMHDnSo7lcuHABDQ0N0mtBEJCcnIz09HSXptf0efXr7e2N+Ph4pxaZ33//HceOHZNed3R0oLi4GCdOnEBra6sU12q1yMzMxIwZM3rdA0REREREQ9fNmzdRWVkpmzTo7++P+fPne3Sx1+Fw4NixYzCbzVJMq9UiOTnZqRbuqT7/FQqFAlOmTMHs2bOh0WikuMlkws6dO6Xdve3t7SguLkZtba3sswkJCXjxxRcxevToXp2kSkRERERDV+d0wn/PZo+NjUVsbKxHc7FYLNLkw06hoaFISEhw+cBPj9x6BAcH49FHH8W4ceOkmMPhwMmTJ2E0GgHcbpkxGAyyI2f9/Pwwd+5cTJgwgQU7ERERETmx2+2oqKjAjRs3ZPHp06fD19fXo7lUVlaisrJSOlBJEASMGjUKEyZMcHk/pkeK9s4V87Fjx8rizc3NqK+vB3C7QM/JycGsWbOgVCrh5+eH1157DS+88AJ8fHw8kSYRERERDTIWiwVVVVWwWCxSTKFQ4OGHH/b44JIjR47AYDBIr5VKJcLDwxEZGenytT3W5KPRaLp8LND5GEOpVCI+Ph7vvfcekpKS8NVXXyEnJwdhYWGcFENEREREXaqvr0d5ebm0ug0Aw4YNQ3x8vEfzaG1txd9//y3rZw8MDERaWhoCAgJcvn6fjny8kyAITsW3KIqyE6s6d9cWFxd7Ki0iIiIiGsSMRiPKy8tlsTFjxmD48OEezcNkMkGv18vms+t0OqSkpLjl+h5daffz85P1pre3t8tG8xARERER3auOjg4YDAZZSwoAxMfHe7yfva2tTTa9BgDUajV0Op1bru+xot3X1xdRUVHQarVSrLW1FefPn4fD4fBUGkREREQ0RNjtdtTW1qKxsVGKCYKAhx56aMCc6+OuNm+P/Rq1Wo2xY8ciMDBQilmtVpw7d072GIGIiIiI6F60trbi2rVraGtrk2IajQYPPPDAgNkTeecYSld4rGgXBAHx8fEIDQ2VYna7HXq9ni0yRERERNRjFosFFy9elBXGwcHBiIyMHBBFuyAIblvx9+hzg4iICISEhEjJi6KIW7duQa/XezINIiIiIhrkRFFEQ0MDKioqZPGoqCiPb0K9m0HXHgMAAQEBiIqKko1+bGxsRFlZmSfTICIiIqJBThRFNDU1yfrZAWDSpEmyPZSe0t2kxH9vTu0tjxbt3t7eiI2Nle3mNZvNqKiokB33SkRERER0N6Iooq6uDnV1dbL4mDFjujwbyBP5dNW/PijbYwBg4sSJ8PPzk17b7XYYjUZuRiUiIiKieyaKYpf1o4+Pz4DoZwcGcU87AIwaNQoajUZ6bbPZUFtbi+bmZk+nQkRERERDjEqlGjBFuyiKbhtt7vGiXa1WO91xiKIoO3qWiIiIiOi/uGucort0dbMw6EY+duruzmeg3BERERER0cAnimKXeyL781Clfxfog7o9pqvE3fnogIiIiIiGvo6ODty4cUMW8/f3R3BwMJRKZT9l5WxQjnwEBt5jDCIiIiIafNrb21FaWiqLBQQEICQkpF+K9u5GPrqrBXxAFO3ufHRARERERENfc3Oz01k/I0eORHBwcL/Uld2NfBy0K+1ERERERK5qamrCrVu3ZLH4+HgEBQX1U0bOBnVPe3d3G2ybISIiIqJ7ZTQanQ5WGjFiBHx8fPopo64NqekxDoeDG1GJiIiI6J51NTlGo9H02ybU7nraB+2c9q4SVygU7GknIiIiIpcolcp+GyPeVU/7oG6P6Q7ntBMRERGRKxwOx4BrueZGVCIiIiK6b6lUKqeYzWZz24jFgYZFOxERERENOjqdDsHBwbKY0WiE1Wrtl3yG3Jx2hULh9IMcDseQvSsiIiIiIvcLDAx0Gu9YVlYGk8nUL/kMuTntXfUacSMqEREREfVEYGAgYmNjZbHq6mr8888/A2YqITeiEhEREdF9zcvLC8nJybLYrVu3UFtbO6A6ONy1Mfb/AXknEo9/J7r5AAAAAElFTkSuQmCC;" vertex="1" parent="9MfvhquQHnC2zTjQO_8x-18">
          <mxGeometry width="749" height="248" as="geometry" />
        </mxCell>
        <mxCell id="9MfvhquQHnC2zTjQO_8x-5" value="" style="rounded=0;whiteSpace=wrap;html=1;fillColor=none;strokeWidth=2;strokeColor=#B85450;" vertex="1" parent="9MfvhquQHnC2zTjQO_8x-18">
          <mxGeometry x="19" y="100" width="720" height="140" as="geometry" />
        </mxCell>
        <mxCell id="9MfvhquQHnC2zTjQO_8x-6" value="" style="endArrow=none;html=1;rounded=0;exitX=0.25;exitY=1;exitDx=0;exitDy=0;entryX=0.25;entryY=0;entryDx=0;entryDy=0;strokeWidth=2;strokeColor=#B85450;" edge="1" parent="9MfvhquQHnC2zTjQO_8x-18" source="9MfvhquQHnC2zTjQO_8x-5" target="9MfvhquQHnC2zTjQO_8x-5">
          <mxGeometry width="50" height="50" relative="1" as="geometry">
            <mxPoint x="89" y="170" as="sourcePoint" />
            <mxPoint x="139" y="120" as="targetPoint" />
          </mxGeometry>
        </mxCell>
        <mxCell id="9MfvhquQHnC2zTjQO_8x-7" value="" style="endArrow=none;html=1;rounded=0;exitX=0.75;exitY=1;exitDx=0;exitDy=0;entryX=0.75;entryY=0;entryDx=0;entryDy=0;strokeWidth=2;strokeColor=#B85450;" edge="1" parent="9MfvhquQHnC2zTjQO_8x-18" source="9MfvhquQHnC2zTjQO_8x-5" target="9MfvhquQHnC2zTjQO_8x-5">
          <mxGeometry width="50" height="50" relative="1" as="geometry">
            <mxPoint x="549" y="240" as="sourcePoint" />
            <mxPoint x="549" y="100" as="targetPoint" />
          </mxGeometry>
        </mxCell>
        <mxCell id="9MfvhquQHnC2zTjQO_8x-8" value="&lt;font style=&quot;font-size: 15px;&quot;&gt;&lt;span style=&quot;color: rgb(184, 84, 80);&quot;&gt;MIDDLE&lt;/span&gt;&lt;/font&gt;" style="text;html=1;align=center;verticalAlign=middle;resizable=0;points=[];autosize=1;strokeColor=none;fillColor=none;" vertex="1" parent="9MfvhquQHnC2zTjQO_8x-18">
          <mxGeometry x="324" y="248" width="80" height="30" as="geometry" />
        </mxCell>
        <mxCell id="9MfvhquQHnC2zTjQO_8x-9" value="&lt;font style=&quot;font-size: 15px; color: rgb(184, 84, 80);&quot;&gt;TARGET&lt;/font&gt;" style="text;html=1;align=center;verticalAlign=middle;resizable=0;points=[];autosize=1;strokeColor=none;fillColor=none;" vertex="1" parent="9MfvhquQHnC2zTjQO_8x-18">
          <mxGeometry x="609" y="248" width="80" height="30" as="geometry" />
        </mxCell>
        <mxCell id="9MfvhquQHnC2zTjQO_8x-10" value="&lt;span style=&quot;color: rgb(184, 84, 80);&quot;&gt;&lt;font style=&quot;font-size: 15px;&quot;&gt;SOURCE&lt;/font&gt;&lt;/span&gt;" style="text;html=1;align=center;verticalAlign=middle;resizable=0;points=[];autosize=1;strokeColor=none;fillColor=none;" vertex="1" parent="9MfvhquQHnC2zTjQO_8x-18">
          <mxGeometry x="54" y="248" width="90" height="30" as="geometry" />
        </mxCell>
        <mxCell id="9MfvhquQHnC2zTjQO_8x-19" value="" style="group" vertex="1" connectable="0" parent="1">
          <mxGeometry x="51" y="780" width="749" height="278" as="geometry" />
        </mxCell>
        <mxCell id="9MfvhquQHnC2zTjQO_8x-20" value="" style="shape=image;verticalLabelPosition=bottom;labelBackgroundColor=default;verticalAlign=top;aspect=fixed;imageAspect=0;image=data:image/png,iVBORw0KGgoAAAANSUhEUgAAAu0AAAD4CAYAAABYOthmAAAABHNCSVQICAgIfAhkiAAAIABJREFUeJzs3Xl4VOXdPvB79kxmSSb7HhKykA3CvgpYBFFAX0X7olDrbq1L3/5sa9VXxfWtrWtta7UudalWqQtVUXZUZGmAsCRAEpKQfTJZZpJMMpn1/P6w5zRjEg2QZZLcn+vKJTlzMvMMxJl7nvN9vo9MEAQBREREREQUsOQjPQAiIiIiIvpuDO1ERERERAGOoZ2IiIiIKMAxtBMRERERBTiGdiIiIiKiAMfQTkREREQU4BjaiYiIiIgCHEM7EREREVGAY2gnIiIiIgpwDO1ERERERAGOoZ2IiIiIKMAxtBMRERERBTiGdiIiIiKiAMfQTkREREQU4BjaiYiIiIgCHEM7EREREVGAY2gnIiIiIgpwDO1ERERERAGOoZ2IiIiIKMAxtBMRERERBTiGdiIiIiKiAMfQTkREREQU4BjaiYiIiIgCHEM7EREREVGAY2gnIiIiIgpwDO1ERERERAGOoZ2IiIiIKMAxtBMRERERBTiGdiIiIiKiAMfQTkREREQU4BjaiYiIiIgCHEM7EREREVGAY2gnIiIiIgpwDO1ERERERAGOoZ2IiIiIKMAxtBMRERERBTiGdiIiIiKiAMfQTkREREQU4BjaiYiIiIgCHEM7EREREVGAY2gnIiIiIgpwDO1ERERERAGOoZ2IiIiIKMAxtBMRERERBTjlSA+AiGi88fl8sNvtsFqtEAQBJpMJRqMRMplspIdGREQBiqGdiGiALBYLnE4nIiMjERQUdMY/7/P5cOrUKfzlL3/B9u3b0dLSAgCIiIjAtGnTsHbtWkyfPh0Gg2Gwh05ERKOcTBAEYaQHQUQUiARBgM1mw0cffYQvv/wS7777LuRyOVJTU3HRRRfhyiuvRE5ODrRabb8/7/V64XA4YDab8dJLL+Gtt95CU1MTfD4fxJdfmUwGmUwGpVKJ6OhoXHrppVi7di1ycnKg0+kgl7OSkYhovGNoJyLqR11dHV566SX86U9/QnNzc6/bjUYjXnnlFaxevbpXaYvdbsfp06dx9OhR/OMf/8DWrVtht9sH/Njh4eFYu3Ytfv7znyM5OZmlM0RE4xzLY4iI+tDZ2Ym3334bL730ElpbW/s8p6OjA/v27cPChQsRFRUFAPB6vaipqcHGjRvx6quvori4GF6v94wf32q14u9//zuSk5Nx4403wmg0ntPzISKi0Y2hnYjoWwRBwLFjx7Bx40aYzebvPLegoABmsxmRkZGw2+3YsWMHNmzYgE8//RQ2m63Pn1EqlYiNjUV6ejpUKhWqq6tRUVEBp9MpnePz+WCxWPCHP/wB4eHhWLNmDTQazaA+TyIiGj1YHkNE1IPP58Px48fx2GOPYePGjXA4HNJtJpMJqampaG5uRn19PSIjI/H73/8eS5cuxZ49e/Dxxx9j27ZtKC0t7fO+ZTIZTCYTli1bhosuugj5+flQq9WoqKjAkSNHUFhYiO3bt/vN7MvlcmRnZ+Pjjz/GhAkThvrpExFRgGJoJyLqwe12Y8OGDfjJT36Cjo4Ov9sefvhhXHDBBbDZbDCbzQgJCYFOp8OuXbvw6aefoqioCP29pKanp+Pyyy/H1KlTMXPmTCQlJUGp/M/FTpfLhdraWmzZsgW/+93vUFFRId2mVCrxy1/+Eo8//vjQPGkiIgp4DO1ERP8mCAIOHDiAH/3oRygrK4PP5wMAKBQKTJs2DR999BHi4uIgCAK6urqwYcMGvPjiiyguLobdbu8zsOfn5+Pmm2/GrFmzkJqaCqPRCIVC0e8Y2tvb8Yc//AEPPfQQXC6XdDw6OhrPPPMMrrrqqsF/4kREFPDYR4yI6N88Hg+Ki4tRUlIiBXYACAsLw0MPPYSYmBgA35S5BAUFobKyEoWFhejo6OgV2MPCwnDXXXfh7bffxvXXX4/p06fDZDJ9Z2AHAIPBgPPPPx9TpkzxO9diseDZZ589ow40REQ0djC0ExHhm1n2zs5O1NfX97rtnnvuwaJFi/z6pW/ZsgUbNmyA2+2WjikUCoSGhmLBggV47bXX8PjjjyMrK+uMFpDKZDLMmTMH69evR0ZGht/4SkpKsGHDhn5LcIiIaOxiaCciwjd91R955BE8/PDDfsd1Oh0SExOhVqv9ji9duhT33HMPEhMToVKpEB0djYsuughvvvkmNm/ejEsuuaTXzwyUTCbDD37wA1x66aV+Gzd1dHTgjTfeQF1d3VndLxERjV5s+UhEBMBms+G9997za7sol8sxb948pKWl9dqVVKlU4vzzz8fatWtRV1eH8847D1deeeWg9VMPCgrCsmXLsHXrVhQWFsLn88Hn86G4uBgffPABbrvttu8ttSEiorGDoZ2ICMDnn3+OxsZG6XuZTIZp06ZhzZo1iIuL63NH0oSEBDzyyCPwer1QKpWDvmvp/PnzsWrVKpSXl0s9361WK77++musW7cOYWFhg/p4REQUuFgeQ0TjnsPhwIYNG+DxeKRjOp0Ol112GdasWYOoqKh+A7lcLodKpRr0wA4AarUal1xyCRISEqT7F3dc7dkSkoiIxj6GdiIa97766isUFxf7LfDMycnBwoULERQUNIIjAzIzM5GVlSWVwgiCgJqaGhQVFfl1uCEiorGNoZ2IxrXu7m688847aGlpkY4pFArk5uYiLy+vVy37cNNqtZg7d67fh4empiYcP34c3d3dIzgyIiIaTgztRDSuNTY24tSpU34bGSUkJOD8888ftEWl50Imk2Hx4sV+Y3E6nSgoKMDJkydHcGRERDScGNqJaFwrKChAbW2tVBqjUCgwZcoUXHzxxUNSp3420tLSEB8f73esoKAA27ZtQ1dX1wiNioiIhhNDOxGNW263G0VFRbBardIxnU6H/Pz8gJhlFxkMBtx6661QqVTSsc7OTmzcuBHHjx/nZktEROMAQzsRjVsOhwO1tbVwOBzSMYPBgOnTpwdcD/QrrrgCU6ZM8Tt25MgRFBUV+e3KSkREYxNDOxGNW11dXbBYLH717EFBQUhISBjBUfXNYDDg+uuv9/sw0d3djZKSEnR2do7gyIiIaDgwtBPRuOV2u+H1ev2OyeXyEW/z2J8FCxYgPDxc+t7r9aKoqAjt7e0jOCoiIhoODO1ENG7Z7Xa/0hjgm9CuVqtHaETfLSIiAikpKX7HysvLYbVaWddORDTGMbQT0bhVUlKC2tpa6Xu5XI64uDi/2exAotPpMHnyZL9jNpsNbW1tDO1ERGMcQzsRjUtutxunTp1CU1OTdEypVCI3NxehoaEjOLL+qdVqTJo0ye+YxWJBTU1NrzIfIiIaWxjaiWhc6uzsRHl5OWw2m3RMo9HgwgsvDJj+7N8mk8mg1+v9jnm9XjgcDs60ExGNcQztRDQuuVwuOJ1Ov2NyuRwxMTEjNKLvJ5PJ+mxFGagfMoiIaPAwtBMR9aBUKkd6CERERL0wtBPRuCSTyfqcofb5fCMwmoEbjWMmIqJzx9BORNTDaKwNH41jJiKiM8PQTkTjkiAIfYZduTywXxZH45iJiOjc8ZWeiMal/spjRmPrRC5EJSIa+xjaiWjcGo2z1n2Nz+PxjMBIiIhoOAX2uxMR0RDprw480EN7X4tOA33MRER07vhKT0TjUn/lMS6XawRGc24Y2omIxj6+0hPRuKRWq2EwGPz6snu9XpjN5hEc1fdjpxgiovGJoZ2IxiWtVovExEQYDAbpmMfjwaFDhwK277kgCL12cQU4005ENB7wlZ6IxiWVSoWUlBRERERIxzweD4qLi9Hd3T2CI+uf2+1GdXW13zGDwYCIiAgGdyKiMY6v8kQ0LslkMqSlpSEmJkY65vV6UV5ejtbW1hEcWf86Oztx4MABv2PR0dGIi4uDQqEYoVEREdFwYGgnonErJCQEOp1O+l4QBHR0dMBut4/gqPrX1NSEY8eO+R2bNGkSIiMj2audiGiMY2gnonFLoVD0OUMdqBsslZWV+V0FkMlkmDJlCkJCQkZwVERENBwY2olo3NJoNFCr1X6z1G63GzabbQRH1TdBELB161a/DxQ6nQ6ZmZl+VwuIiGhsYmgnonFLr9cjOTkZWq1WOtbZ2YkTJ04EXGvFrq4ubNmyxe/YhAkTMGHCBL+2lURENDYxtBPRuKXRaJCamgq9Xi8d6+joQEFBQZ+tFUfS7t27/TrHyGQy5OTkICEhgfXsRETjAEM7EY1bcrkcU6dORVRUlBR8nU4niouLUVFRMcKj+4+jR4/i8ccfh9vtlo5pNBrk5OQgMjJyBEdGRETDhaGdiMa1zMxMxMTESKFdEASUlpZi8+bNfiF5pDidTvzxj3/0a/Uol8uRmpqKKVOm+JX2EBHR2MXQTkTjmslkwsKFC/0Wc7a2tmLz5s04efLkCI7sG4cPH8bu3bvhcDikYyaTCVdeeSUWLFjA/uxEROMEQzsRjWtKpRLr1q3DxIkTpdl2r9eLf/3rX9i1a9eIzrY7HA68++67qKqqkhbGyuVyzJw5E9deey3CwsJGbGxERDS8GNqJaNxLTk7GunXr/GatbTYbDh8+jKamphEb13vvvYf3338fXV1d0jGTyYRly5YhOTl5xMZFRETDj6GdiMY9uVyO6667DuHh4dIxsS/64cOHh7X9o9vtRmNjI1544QU8+OCDqK6ulh5fqVTi/PPPx0033cSOMURE4wxDOxERgLCwMFx88cV+xxoaGrB//360t7cPyxh8Ph+Ki4tx9dVX46c//Smqqqqk22QyGWJjY3HDDTf4tagkIqLxgaGdiOjf1q1bB7VaLX3v8Xjwxhtv4P333/dbCDpUzGYz3n33Xezdu7fXbTKZDJdffjmWLFky5OMgIqLAw230iIj+LScnBzNmzMC+ffvg8/kAAFVVVVi/fj0AYO3atdBoNIP+uG63G9u3b8dHH32EF198sdft8fHxWLFiBX76059CpVIN+uMTEVHgU6wX342IiMa5oKAghIWFoaCgAFarVTre3t6Ow4cPo7a2FsHBwYiLixu0Vovd3d34+OOP8cADD2DTpk1+t8lkMiQmJuL//b//h7vvvhtxcXGD8phERDT6cKadiOjflEolli1bhqqqKjz22GNobW2Vbquursaf/vQnWCwW5OXlwWQynfPj7du3D6+99hp27tyJioqKXgteV61ahRtvvBHnnXcejEbjOT8eERGNXpxpJyLqQa1Ww2Qy4fjx4ygrK/O7TRAEVFVV4dChQ9BoNJgwYcJZlas4nU5s27YNDz30ED755BNYLBa/wK5Wq3HFFVfg0UcfxZw5cxAcHHzOz4uIiEY3zrQTEfUgk8mQkZGB1157DW+99Raeeuop1NfXA/gmtLe3t2PLli2IjIzE/PnzodVqpZ/rjxjIzWYztmzZgldffRXHjh1DR0cHPB5Pr8dPSUnB5ZdfjtTUVO54SkREAACZMJwNiImIRhGXy4VXXnkFL7zwAk6ePNlrd9SoqChcfvnlWLhwIYxGIwRBgCAIkMv/05jL4/HAbDbjs88+w5YtW76zC01UVBR+9rOf4a677hqSBa9ERDR6MbQTEX2PyspKXHXVVSgoKJC6ygymkJAQTJw4ETfeeCNuvfXWQb9/IiIa/VgeQ0T0PSIiInDrrbciKioKW7ZsgdPpHJT7VSgUSEhIwJo1a3DnnXeyOwwREfWLM+1ERANUXl6O2267DV9//TXsdvtZ3YdMJoPBYEBOTg4mT56MBQsWYOXKlQgNDR3k0RIR0VjC0E5ENEAOhwPHjh3D7t278dVXX+HgwYMwm829at37otfrkZmZiTlz5iA3Nxf5+fnIzMxESEiIXw08ERFRXxjaiYjOUHd3N2pqalBZWYmqqiq0trbC6/VCJpP16rUuk8mgVquRkJCA1NRUJCcnIywsDEolqxOJiGjgGNqJiM6Sz+eD2+2Gx+OBz+frt+2jXC6HWq1mUCciorPG0E5EREREFOBYSElEREREFOAY2omIiIiIAhxDOxERERFRgGNoJyIiIiIKcAztREREREQBjqGdiIiIiCjAMbQTEREREQW4fnf68Hq9EAQBcrmcW2wTEREREY2gPtO41+vFbbfdhtzcXNx///3o6OgY7nEREREREdG/9Zppdzqd+Prrr/Hhhx/CYrHgpZdeQlBQEH72s5/BaDSOxBiJiIiIiMa1XjPtNTU1uPPOO2GxWAAAzc3N+Oijj3D06NFhHxwREREREfUR2k+ePAm73e53zGw2o6SkBIIgDNvAiIiIiIjoG36h3eVyYceOHWhubvY7qbOzExaLBW63e1gHR0REREREPUK7x+PBli1bsHXrVnR1dfmd5HK50NHRAa/XO+wDJCIiIiIa76TQ3tnZic2bN6O0tLRXGYzJZEJiYiJbPxIRERERjQCl1+vFiRMn8OSTT+KDDz6Ay+XqdZLBYEBUVBRkMtkIDJGIaPQZiTVA4mN++79utxsejwdutxtutxtOpxNdXV1wOp3weDzw+XwDfgy5XA5BEAb0/GQyGWQy2YDv/0zvOygoCDqdDkFBQQgKCoJarYZCoYBSqZTer8QxnA2+5xFRIFF6vV4UFhZi48aN/fZjj4+PR35+PtRq9TAPj4ho+PUMjuKffT6f35fX65X+6/V64XQ64XK54Ha74XK50N3dja6uLjgcjjMOxsA3AXagPyOOo6OjA21tbWhvb4fNZoPNZkNLSwtsNhs6OjrgcDikcYplj06n84z/fgKFVquFwWCARqOBTqdDSEgIQkJCEBUVhfDwcERERCAqKgqhoaFQqVQDCuFqtRoGgwFarRZarRZBQUFQqVTQarVQKBS9vuRyufTB4Fw+IBARfR+lzWbDnj17YLPZ+jxBpVIhLi4OYWFhwzw0IqJzIwbunsFbDNler1eage45C+1yueBwOKRg63Q60d3dDbvdjvb2drS3t8Nut6OjowPt7e3o6OiA1WpFe3s7Ojs70d3dLYV3t9sNu93ORfxDxOFwwOFwDOp9KpVK6YOARqOBwWBAcHAwIiIiEB4ejpCQEERERCA0NBShoaEwGo3Q6/UIDg6WvtRqtd+XSqWSAv63Qz4R0UApq6ursXnz5j5vlMlkiImJwcKFC6HVaod5aERE/yHOcPcM398O22LIFr/EmW5xdtnpdMLhcEhhu7OzE11dXejs7ERHRwfsdjva2trQ1dXlF749Hg+cTic6OztH+q+BhpjH44HVah3QuWq1GsHBwQgKCkJwcDD0ej1CQkIQFhaGkJAQGI1GhIaGwmQyISQkRDpPq9UiODgYOp0OGo1G+l4M+UqlEkqlEnK5HAqFYoifMRGNFso9e/agurq6zxtDQkJw4403YsGCBVAqe22eSkR0VnqWlvh8PikUu91uOBwOdHd3o7u7W/pzZ2cnOjs7pe97hnJxhlucde3q6pKCuDjzLQZ7cVZdDPFE50L8oPh9xGCuUCgQFBQkhXSDwQCdTgeDwYCQkBAEBwfDZDJJs/t6vR4GgwFGo9HvmPhBQQz4DPdE44Ns1qxZwr/+9a9eNygUCixbtgxvvvkmwsPDR2BoRBToetZ4i4FYDDJieP52iG5ra+szgIuz3OIxsS68Z3h3uVzS4/QM+2daLz5W6XQ6qFQqaaZWrVZLgdFoNEKn00lfYr22WLYxUIIgDLisQ1wXcCbnD+RcsdzJ4/FIvzdiPb9Yu+9wOKQrMF1dXaPid0Qmk0Gj0UglNeK/nU6ng16vlxbeGo1GKdyLoT8iIgIRERFSXX9oaKhUm8/Ob0Rjg0ytVgt9zRTMmDEDr7zyCnJycvgJnmgcEgRBCjxtbW1SILJarejo6JBCklhOIs5qd3d3S7f3LF3puUDT7XZLdeU9Q3+g137LZDKpW4lSqewVrMQgZTAYoNfrodPpEBwcfFbBWHy8gZLL5VIwDwoKksKfWq2WAvq366zFLiujsbZaLJMSf6fEtQidnZ1+pVEOhwM2m21AM+Li72FnZyesViva2tpgtVphtVpht9tht9v9PmR6PJ5heKa9yeVyqFQq6d9Q/DcWZ+CDgoIQEhKC2NhYJCcnIy0tDZmZmYiJiUFoaKj0+0tEo4sMgF9vLaVSiaSkJLz22mtYuHDhCA2LiIaTWK/d0tKC06dPo6KiAhUVFaivr0dDQwMsFgscDoff4k2xplyc9RYDuCAI0p8DmUqlgl6vh0aj6RW+e9Yli7XJYpmC+GcxBKtUKqjVar9yBbHt4Le7iwy1/hY7jsZQfra+vfBY/N0cSBtJ8ed6/p6LJVvif8USrLa2NjQ3N6O5uRk2mw2NjY2wWCzSh9quri4p6I/ExoRisNdoNFIpTkxMDMLDw5GSkoLs7GxkZGQgJiYGRqNRqqkXF80SUeDxC+1KpRLXX389Lr74Ylx44YUICgoawaER0bn6dvcUsc1fa2sramtrcfLkSZSUlKCiogKNjY2w2+0wm81SKO85Ez6ceobMb/+5Z/9t8b9i+YdYDiIu+DMajQgPD4fJZILJZEJYWBiMRqNfEBcXA4qBRQzhPcNvXyH422F4PAXj8ejbLUD7awMqlneJob2trQ02mw1msxkWiwUtLS2wWCxobW2VFkQ7nU7YbDZ0dnb22W70249/tsTfY7F8SqlUSleI9Ho9jEYjwsLCEBUVhdjYWISHhyMyMhKxsbGIjY1FaGgogoOD2QGHaIRIod1oNOKxxx7DzTffzH7sRKNIz8DQs0WhzWZDa2srampqcOrUKZSWlqK6uhq1tbWwWCzo6uoa0nH1FXbFICyXy/0W0PU8FhISAr1eL81ei7PfRqMRkZGRMJlMCA0NlYK32HJPr9dDq9X6dd8QZ7uJAknPNSA9y22sViuamprQ0tKC5uZmmM1mNDU1SaU6drtdCvc9r3T19SF7MDf3kslkCAsLQ3x8PDIyMpCXl4dJkyYhKSlJ+kAslmSJ/18zzBMNPhkAQavVYsWKFXjwwQeRm5s70mMioj70XHgp1u6KM3ktLS1obGxEVVUVysrKUF1dDYvFItWWD8YGOuLldjF8i4FYnJ3uOUutVCqlutrg4GCp57VWq5Xa4on13+KMt9gpo2eva/FSvRjAGQRovOnZ1lRcOyJumtXS0iKVr4llOW1tbWhtbZX+3+/o6EB3d/egrxkRO9mEh4dj4sSJyMnJQWpqKhISEhAVFSVd1dLpdNJOtUR0bmQymUyYOnUqfve73+EHP/jBSI+HaNwTZ9B6zr6Jb9Ktra2wWCyoqqpCbW0tGhoa0NzcLL1JD0YZi1arhVKplEpOxFltcSMZcaGb2IEkJCRECt16vR6hoaHSbVqtVqoZF0O++EVEg6PnngXd3d1ob29HU1OTtD6lrq4OTU1NqK+vR3Nzs7Sw1uFwDGrpm0KhQEhICGJiYjBx4kSkpaVh4sSJiImJQWxsLKKjo2EymaQuR+xqQ3RmZCaTSbjllluwfv16aDSakR4P0bghtqwTw3lzczMsFgvq6+ulRW0WiwVmsxmNjY1oaWlBR0cHXC7XoGzyI5fLpbITo9GIiIgIREZGIjk5GSaTCREREYiOjkZ0dDSioqJgMBj8uo6IZS0KhYIz4EQBSnyNsdlsaGpqQm1trfSBv7GxUQrw4p4H4p97tl09lyt1Yq18TEwMUlJSEB8fj4SEBMTHxyMpKQlxcXGIiIiAVquFSqUaxGdONPbIbrjhBuGuu+5CVlbWSI+FaExzuVyw2+1obW1FdXU16urqpBkw8RK3WMva3t6Orq6uQWkp13Mzl/DwcMTHxyM+Ph4xMTGIiopCZGQkwsLCpK/Q0FCpNpwz4kRjj7j+pef+CT1L7sTuN2IpTnNzM+rq6lBVVYWGhgZpN+GzKbcRJwtCQ0Ol16CUlBTExsZiwoQJSEtLQ3x8vPQ6xNl4ov+QlZaWCunp6SM9DqIxQxAEaRfPnnXmFRUVUq252PNcrDd3Op2D0hZOq9VKQVzs0ZycnIy4uDiYTCaEh4f7lbOIM+dcOEZEAHq1yhRn6tvb29Ha2oqmpiY0NzejpqYG5eXlKCsrQ1VVFcxm81nPyPfsLR8WFobw8HAkJCQgJSUFOTk5yMjIQHx8vPSaRTReyXw+n8A3a6Kz5/V6YbfbUV9fj9LSUhw5cgQlJSUwm83SYrGuri7pMvO5hnO5XI6wsDAEBwcjMjJSmp1KS0tDXFwcoqKi+txkh7XkRHSuxC41Ypeqrq4uNDc3o76+HhUVFTh27BiKioqkMr+BbGr1bTKZTGrfKm5SJk4+5OTkID8/H2lpaYiMjIRer+eEA40bMmEw+0IRjXE9d2E0m80oLCzEzp07sWfPHlRVVcHpdPptONSzz/L3Ed94evYGV6vViIyMlOpAMzIykJ2djQkTJiAiIgJGo1FaOPrtjXWIiIaD+Loozsx3dXXBarWiqqoKx48fx549e3DixAlUV1ejq6vLry3lQF8fxfUzYscqnU6HxMREZGRkYN68ecjLy8OECROkHV/5WkhjEUM7UT/ENyKx1ZrNZkNNTQ2+/vprfPHFFzh8+DAsFstZ3bfYxlCcTVKr1YiOjkZYWBhSU1ORmZmJSZMmITU1FRERETAYDNBoNHwDIqJRRxAEabF9WVkZCgsLcfToUdTW1qKmpkbqZONyueB2u8+qx7xSqURMTAzi4uIwefJkTJ06VSqrCQ8P9+tkxddRGq0Y2okAv82JxC4K4tbkVVVVOHToEA4ePIiamhq0tLSc0eyQ2Lv8251aEhISkJycjNTUVKSmpvotvlIqlUP8jImIRo7b7UZHR4dUVlhYWIiKigrU1NSgtbVVWvcjluGcDY1Gg4SEBKmkJisrC4mJiYiMjERoaKhUI8/XWxotGNppXBIEQbqEK25M1NTUBIvFgsrKSlRUVEidEmw224Dr0BUKhdTb/NstE8WAPmHCBISFhUmbjrA7AhGNd+Jrss1mQ21tLcrKylBeXg6z2YzKykrp9bmtrQ2dnZ1n3F9eoVDAYDBIVzMnTZoktaCMi4tDTEwMTCaTFOT5ukyBiKGdxhWHw4HKykoUFhbi+PHjqKmpkVovtrQ5IqSyAAAgAElEQVS0oLu7G3a7fcD3p1QqpR7EaWlpUreWxMRExMfHIzY2FiaTSdrhk5dliYgGxu12w+FwoLm5GbW1taisrERNTY3UZ76mpgaNjY1Sf/kzpVKpYDKZEBsbi5SUFCQkJCApKQkxMTFISkpCfHw8IiIipM2giEYaQzuNeS6XC9XV1Thw4AAKCwtRWFiIEydOoLGx8az7DMfFxSEzMxN5eXnIysrChAkTkJKSgsjISL7AExENAUEQ4HQ60dnZiZaWFpjNZtTX18NsNqO8vFzaAdZsNqOtre2MO3UpFAro9XoYDAbpCmlMTAzS09ORnp4u9ZA3mUwsqaERwdBOY5LD4UBjYyMOHDiA3bt34+jRo9Il1rPZTVSj0WDChAmYOnUqZs+ejezsbCQkJCAyMhJGo5Gz6EREI0Bci9TR0SFtBNXY2IiamhqcPHkSRUVFqKioQFtb21nNxosljyaTCVFRUUhMTERSUhKysrKQl5cn7SDN/vE0HBjaaUzo7u5GQ0MDSkpKUFBQgEOHDuHUqVNoaWlBW1sburu7B1wDGRYWBr1ej8TERGRlZSEnJwfp6elISkpCREQEQkJCpJZiREQUOARBgNfrhdvtlnZ7NZvNOHXqFA4fPixdabVYLGe847RMJpO6fgUHB0Ov1yM0NFRa6Cp2rImKimKI/zeHw4E77rgDZrMZq1evxpo1a6DVakd6WKMWQzuNGmJPX6/Xi87OTtTX16OoqAh79+7FkSNHUFdXh8bGRnR3d8Pj8XznpVGxh69arUZUVBTS09ORk5ODKVOmICMjA3FxcTAYDAgODpZ6A7PnLxHR6CO+b3g8HnR3d6O1tRXV1dU4fvw49u/fj+LiYqkZgdhDXuwj/31kMpnUwlen0yEqKgpJSUmYNm0a5syZg8zMTERHR0vvJePpfUQQBBw/fhzTpk2D1+tFXFwc/vd//xfXXnstP9ScJYZ2CliCIMDj8cDhcKC9vR1NTU04efIk9uzZg6+++golJSVn1ApMoVAgKCgIJpMJkyZNwsKFC7Fs2TJMnDgRoaGhrFEkIhqHOjs70dzcLM3GHzlyBKdOnYLZbIbdbkdXVxdcLhe8Xu8Zd63RarXIysrClClTMGPGDOTk5CA+Ph4hISFSgwKlUjkmg3x1dTVycnL8ypLi4uLw29/+FldeeSWD+1lgaKeA4/F4YLPZcPr0aZSUlODYsWMoKChAWVkZGhoazuiSpkwmg16vR3R0NNLS0jB16lQsX74cU6dOhcFgGMJnQUREo5Hb7YbdbofZbEZxcTEKCwtRXl6O+vp61NfXSz3kXS7XGW0EpVKpEBoaiujoaCnIT5w4EUlJSX694zUazZgovzxy5Ajmz5/vt45MJpPhqquuwk033YSZM2dCp9ON4AhHH4Z2Cghij97q6mocO3YMe/bswY4dO3Dy5Mkz6vCi0WgQFBSEsLAwaXe8zMxMzJ8/H9OmTUNUVNSYeDEkIqLhIQiCtBFUeXk5SkpKUFpaKpVkNjQ0SGunzrQjmUajQVJSEiZOnIhJkyYhPT0diYmJiI2NRWxsLMLCwkZtDXhLSwvOO+88nDhxwu+4TCZDamoq/vd//xdr1qxBUFDQCI1w9GFopxHl8XhgsVhw+PBh7Nu3T9p51Gw2D+jn5XK51CddfOFLTk5GSkoKUlJSpJX9bMFIRESDwev1wuFwwGq1orq6WtqMr6qqCuXl5VIf+c7OzjOaiRfr4kNDQ5GQkICJEydiwoQJmDt3LvLz8xERETGqyjg7Ojpw//334/nnn++zrCg1NRVr167FihUrMG3aNL5PDwBDO40Ij8eD0tJSfPbZZ9i3bx9OnDiB8vLyAdWom0wmxMfHIzs7GxkZGUhKSkJSUhLi4uIQFRWF0NBQaDSaYXgWREQ03gmCgO7ublitVjQ2NqKurg7V1dWoqanBqVOncPLkSak+/kzWYQGAWq1Geno68vLyMGfOHCxYsACZmZnQ6XQBXwfvdruxd+9e3HbbbTh+/HifwV2lUuGiiy7CjTfeiCVLliA4OHgERjp6MLTTsHI6nTh+/Djeffdd7Ny5E+Xl5Whtbf3O2QiFQoG4uDippVZeXh4SEhKkbae1Wi1UKlXAv4AREdHY5/P5pN1crVYrmpqaUFdXh/LychQVFeH48eMoLy+HzWYb8MJWhUKBsLAwJCQkYPLkybjoooswf/78gG8v6XK5sHXrVvzyl7/sVSYDfFMqExwcjBUrVuDZZ59FbGzsCIxydHA6nQztNPR8Ph/a29tRWFiIt956C19++aU06/BdjEYjLrzwQqxcuRK5ubmIjo6GwWCAVqsds6vtiYho7BHbTXZ1daGtrQ2NjY2oqqpCYWEh9u/fj9OnT8NqtQ5o8z+NRgOTyYSIiAjk5+dj8eLFmDFjBiZMmAC9Xg+FQjEMz2jgnE4n/vGPf+Cee+5BfX19n+2YDQYDZs2ahTvvvBMXX3zxqCoDGkpOpxMNDQ344osv8M9//pOhnQaXIAjw+XxwuVxoaWnBsWPH8Nlnn2H79u2ora1FV1dXv91fFAoFVCoVsrOzcfXVV2P58uVISkqCVquFQqFgSCciojFB7AXv8XjgcrlgsVhQWlqKgwcP4l//+heOHDmC5uZmqdVkf5RKJVQqFYKDg5GamoopU6Zg0aJFyM/PR1xcnBTiR7o/fHNzM7788ku89dZbOHHiBFpbW9Hc3Ox3pUEulyM3NxcPPPAAli1bBr1eP+7e971eL2w2G6qrq7F582Zs2bIFx44dQ2dnJ1wuF0M7nRtx0wrxMmBDQwOKiorw+eefY//+/aipqfnOn1coFDAYDIiIiMDcuXNxzTXXYPbs2WzHSERE45Lb7UZbWxuOHDmC9957D1u2bJHaTA605bFGo0FGRgbmz5+PBQsWYNKkSYiMjJT6w4/k1er29na8/vrrePPNN3H48OE+O+4sWrQIzzzzDCZPnhxwVw6GgtihaOPGjXj66adRVFTU5781QzudFafTCZvNhvr6elRWVuLw4cPYvXs3CgsL0dbW9r0r5hUKBWJjYzFp0iRceOGFWLVqFVJTU7l6nIiI6N88Hg8qKyuxdetWbNu2DSdOnEBdXR3sdvuAO9OI77dpaWmYOXMmJk+ejEmTJiEtLQ0hISEjFt4tFgtWrVqFgoKCPp/L9OnTcf/992Pq1KmIj48fk+FdDOtFRUX45z//iTfeeAMNDQ39ns/QTmfEbrejuLgYBQUFKC4uxsGDB1FaWoq2trYB/bxSqURqaipmzpyJ5cuXY+HChYiLi2P9GhERUT98Ph9sNhsKCwulPUxqa2tRW1sLm82Grq6uAd+XSqVCTk4Oli9fjvPPPx9TpkxBRETEsIdip9OJjz/+GO+88w52794Ni8XS6xy1Wo1bb70VDz/8MIxG47COb6g5nU4cO3YMW7Zsweuvv47S0tJ+z5XL5d98wGJop+/j9XrR0tKCwsJCfPHFF9i5cycOHToEl8s1oJ/X6XRISkpCZmYm0tPTMW/ePCxatAgmk2mIR05ERDS2uFwutLa2oqKiAiUlJSgvL0dpaanUL761tXXAXWkyMjKwePFizJ8/H3PnzkViYiI0Gs2wzr43NTXhL3/5C1588UVUV1f73SaTyZCYmIhf//rXWLt27ZgI7k6nEwcPHsT27duxbds2HDhwoN8PXYmJicjOzkZqaioyMjIY2ql/Xq8XDQ0N2LVrF7Zt2ybNqg8krOt0OkyaNAnTpk1Dbm4uMjMzMXHiRMTGxiI4OHjcLS4hIiIabD6fD11dXWhubkZNTQ0qKipQWVmJ0tJSFBcXo66uDi0tLd95H2Jb5dzcXGRnZ2P69OmYNm0aEhIShu392mq1YufOnfjoo4/w6aeforW11e/22NhYrF69GqtXr8bcuXNH5V4sbrcbJSUl+Pjjj/HJJ5/g0KFD/fbtT0tLw7p16zB58mSkp6cjLi4ORqORoZ36VlJSgnfeeQe7du1CZWUlzGbz94b16OhoTJ48GfPnz0dubi6Sk5MRHx8Pk8k07J/ciYiIxhOxMURXV5ffRk9Hjx5FYWEhDh061G/LReCbWW2tVovIyEhER0dj0qRJmD17NpYsWYLk5GQEBQUN6fi9Xi+qqqrw9NNP429/+xtsNpvf7UFBQcjJycGaNWuwdu1axMTEjJpccfr0afzlL3/B9u3bUVZW1m+PfqVSiXnz5uFXv/oVFi5c2KuDDkM7SZxOJ06cOIG//e1v+PDDD2GxWL5zsYtMJkNkZCTOO+88XHDBBZgyZQoSEhIQGhrKNo1EREQjqGd3t46ODjQ2NuLo0aPYsGEDdu3a9b094TUaDfR6PUwmE7Kzs3HzzTdjyZIlQxreBUGQynGvu+461NXV+d0u1nZnZ2fjpptuwrp16wJ6garP50NxcTEefPBBbN26FZ2dnX1mKo1Gg3nz5uH666/HvHnzkJiY2GdjDob2cc7j8aC9vR0HDx7Eq6++iu3bt8Nms/XZggn45jKaRqPBnDlzcMMNN2D+/PkIDw9HUFAQQzoREVGAEkO83W7HsWPH8MYbb+Af//gHOjs7+33PFykUCoSGhmLJkiX4yU9+ghkzZkCn00Eulw/JWH0+H06dOoWLL74YlZWVvWalFQoFsrOzsWnTJiQkJAzJGM6Vy+XCT3/6U7z77rtwOBy9rnDIZDJoNBqkpKTgzjvvxBVXXIHQ0NDvbMzB0D4O+Xw+dHZ2or6+Hlu3bsWrr76Ko0ePfu8ls/DwcCxatAjXXXcd5s6dC61WO8wjJyIiosFSUVGBF154AZ9//jlaW1vR0dGBrq6u79zQyWAwYMWKFbjuuuswefJkREZGDslsd1dXF9577z38+c9/lrrUfTu8z5s3Dx9//DHCwsIG/fHPltfrhdlsxrPPPosnn3yyz3P0ej3y8vJwxx13YNWqVdDr9QO6b4b2ccTr9aK1tRUnTpzAtm3b8OGHH6KoqKjf8xUKBSIiIpCSkoLZs2djzZo1mDZtGtRq9TCOmoiIiIaKz+dDc3OztN/KoUOHUFVVhcbGRrS2tvYb4FUqFVauXImf/OQnyMvLQ1RU1JCE9+bmZrz99tt45513cOTIETgcDuk2jUaDW265BXfccQcmTpw4olf7fT4f6uvrceTIETz99NP48ssve22QpNfrkZGRgeXLl+P2229HbGzsGT0GQ/s44PV6UV1djf3792Pv3r3YtGkTTp069Z0/M3HiROTn52Px4sVYtmwZUlJSuPERERHRGObxeNDW1obS0lLs378fBw8exOHDh1FWVgan09nrfJlMhri4OKxcuRLLly/HjBkzEBsbO+jh3ePx4NChQ3juueewadMmv0WqwcHBWL58Oe666y5MnTp12KsABEGAzWbDgQMH8Pe//x0ffvghrFZrr/NCQ0OxevVq/M///A+ysrLO6u+IoX0M8/l8MJvN+PLLL/Hxxx9j+/btsFgs/S4sVSgUSEtLw6JFi3DhhRdi1qxZiImJ4cZHRERE44zP50NHRwf27t2LLVu2SJs69RXelUolkpKSMH/+fCxYsADnnXceUlNTB70148mTJ3HPPfdg06ZNfh3tNBoNpk6dijVr1uCyyy5DYmLisMy6u91u7N27F5988gk+//xzlJSU9Oq0p1KpMHXqVPz3f/83LrnkEqSlpZ314zG0j0FerxdNTU3Ytm0bNm3ahP3796O6urrXZRqRwWDAzJkzsXjxYsyaNQvTp09HRETEMI+aiIiIAo0gCLBarSgsLMQnn3yCDz74ADU1NX1OAMpkMkRFRSE3Nxdz587FihUrkJeXB51ONyhj8fl82LNnD+677z7s2bOnV66JjIzE7NmzsXr1alxyySVDXuteX1+Pm266CTt37vQr2xEFBQXhiiuuwC233ILZs2efc8WCzO12C5xJHf3cbjdaWlpw9OhR7Ny5E/v27UNFRQUaGhr6XRVuMBiwbNkyrFixAjNmzMCECRN69QQlIiIiEmvfi4uLsWXLFrz77rs4ffp0v1fvDQYDUlJSkJ6ejksvvRRLly5FVFTUOXec8Xq9eOmll3Dffff1WYYCAJMmTcLbb7+N/Pz8Ic001113Hd57770+dzTVarW49tprcffddyMpKWlQxiH7xS9+ITz88MPsBDIKeb1eWCwW7Nu3D5s3b0ZBQQHMZjPa29v77QUKAGq1GldeeSVuuOEGZGVlwWQyQa1WM6wTERHRdxLLZioqKvDWW2/hr3/9a68dTHtSKpUwmUyYOHEiLr/8clx22WWYMGHCOZXetre34/Tp03j44Yfx/vvv97pdoVAgOTkZW7ZswcSJE8/6cb7LK6+8gjvuuKPXDLvRaMRll12Ga6+9Fnl5eQgPDx+0x5SpVCohOzsb9913Hy699FJ2BhkFBEFAc3MzHn30UWzYsEHqq+71evu9XKVUKhEVFYUrr7wSN998M1JSUqBWq4esxyoRERGNXYIgwOVy4cSJE3j66afx6aefwm63w+1295tFVCoVdDodVq5cibvuuguTJk06p7p3u92Ozz77DPfffz/Kysp6tYSMiYnB9ddfj7vuumvQSmVcLhfuv/9+vPzyy34fVpRKJbKysvDQQw9h6dKlCA4OHvSMpfD5fOutVitUKhWmT5+OkJAQzrgGsM7OThQWFuKmm27Ce++9B7vdDo/H0+d2uDKZDEFBQUhNTcWPfvQjPPXUU7j66qsRHR0NpVLJf2ciIiI6K+KEYExMDFatWoUrr7wScXFx6OjogNPphMvl6pVNvF4vuru7cfToUbz33ntoa2tDYmIi1Gr1WV3xV6vVyMzMxPTp09HY2Ijm5ma/me/Ozk60tLRg4cKFiI6OPqcQLQgC2tra8MYbb+D5559HU1OTdJtCocB5552H559/HhdccMGQVS8oAKz3er04evQozGYz8vLyEBYWxkAXYDweDyorK/H222/jxhtvRGlpab/n6nQ6JCQkIDs7GxdeeCHuv/9+XHPNNYiNjeXMOhEREQ0quVyOsLAwzJ07F6tWrUJaWhoEQYBKpUJXV1evjioA4HA4sGfPHnz++ecICgpCdnb2Wc26y+VyJCUlYeXKldBoNCgqKkJnZ6d0e1NTEw4ePIicnBzExcWdVatFQRBQVVWFZ555Bk8//TQsFovf46enp+Ouu+7C0qVLhzRnKQCsF78pLi6G1WpFUFAQoqKiEBQUNGQPTAPjdrtRXl6Ozz//HM899xxefvlldHR09DpPp9MhMzMTs2bNwooVK3Dttdfi9ttvxw9/+EOkpKQMyYYHRERERCKZTAa9Xo8pU6Zg5cqVmDVrFsLCwqTw3teCzba2NtTV1UGpVMLj8UCn00Gj0Zzx5LFGo0FWVhbMZjNOnjzp90HBbDajpKQEOp0OoaGh0Ov1Aw7XdrsdO3bswO9//3u8/vrraGtr87vdaDTi+uuvxy233DLk+9nIAPgVHsnlcmRkZOCtt97C9OnTh/TBqX8OhwNlZWX48ssvsXXrVuzevbvPhR4GgwHz5s3DokWLMHXqVGRnZ/MDFxEREQUEp9OJiooKfPXVV9i9ezd2796N6urqXjutarVa5ObmYtasWcjPz8fcuXORmZl5RgtWnU4nDh06hM2bN+O5557z24RJJpMhPj4ejz32GH74wx8OKCcJgoCioiJcd911OHjwYK/bk5KScOutt+Kiiy7C5MmTh7xKRXHLLbes7zkQsR9nfX09lixZMmi9NWlgxFqvP/7xj3j55ZexYcMGFBYW9tn/Mzo6Gj//+c9x5513YtWqVcjIyEBoaCg3QyIiIqKAoFQqERkZifz8fMyePRuTJk2SZtd79ln3eDyor6/HwYMHsX//fhw4cADl5eXQ6/WIjIwcUMWAUqlEYmIiZsyYgbCwMGzdutWvrt5ut6OhoQG5ubmIj4//3tl2u92ORx99FNu3b+/VEz4vLw+//e1v8eMf/xhxcXHDUlaueP/999e7XC4UFhZKT0wQBJSVlaGsrAw/+MEPGNyHgdfrxRdffIFHH30UL7/8MjZv3oyysrI+LyUBwLJly/DEE0/g8ssvR1JSEhQKBdchEBERUUCSy+UwGo3IyMjAnDlzMGPGDHz99de9co4gCOjs7MTp06dx5MgRHDlyBHK5HFlZWQMuP1Gr1cjLy0NERAR27NghzeoLgoDa2locOHAA06dPR3x8fL/ZSRAEvPTSS3j22Wd7jfGiiy7Cb37zG1xwwQXDOlGq+M1vfrNenP5vbm72a9NTXl6OgoIChIaGIjU1lXXRQ8RqteLFF1/EI488gq+++gp1dXV9LtoAvtld66qrrsLzzz+PKVOmIDg4eJhHS0RERHR2FAoFIiIikJycDLlcjuPHj8Nut/d5rtPpRF1dHQoKCnDq1CnExsYOuAuMSqWC0WjE0aNHUVtb6zfjbrFYsH37djQ0NGDBggV9fhh44okn8OSTT/qVJstkMmRlZeGJJ57AvHnzhj0XKx555JH1aWlpuOyyy2C1WlFUVCQ9MZ/Ph/r6eiiVSixZsoR10oNI3Jxg165duP322/HXv/4VFoulV42XXC6HRqNBcnIy7rjjDjz33HO45pprEBYWxk4wRERENCppNBrMmTMHa9euRWZmJmw2G9rb2+Hz+fwCtiAIsNvtKCoqwt69exEREYGUlJQBzbqHh4fjsssuQ1xcHHbu3OlX4mKz2XDs2DGo1WpMnjzZr01jfX09fvWrX6GyslI6XyaTYdGiRfjjH/+IOXPmjMhEtmL9+vXr5XI5DAYD5s+fD4vFgpMnT0pPzOv1orW1FbGxscjNzWVQPEderxc2mw379u3D7bffjkceeQRVVVW9wrpMJkN4eDimTZuGn//853j00UdxySWXIDo6eshXJxMRERENJZlMBoVCAaPRiOnTp2Pt2rVYtWoV9Ho9Wltb0d7e7peNvF4vGhsb8emnnyI/Px9paWnfm0nF/Wpyc3MRHh6OAwcO+K0RdDqd2L17N0pLS5GWlga9Xg+r1YqbbroJ+/fvlz48yGQypKam4t5778WSJUtGLAsr1q9fv178Jjg4GPPmzcOBAwdQVVUllcrY7XZ4vV5MnToVERERrJ0+C16vF01NTdi/fz/+/Oc/48EHH0RxcXGf58bGxmL+/Pm4/fbb8fDDD2Px4sUIDQ3lByYiIiIak5RKJaKjo7Fw4ULk5eXB6/WioaEBDofDr3Tb4/EgOTkZkydPhsFgGNB9q1Qq5ObmQhAEHDp0CN3d3X73V1xcjE2bNkGv1+Pzzz/HBx984BfujUYjbrzxRtxwww1Qq9WD96TPkF9oB755YlqtFgUFBVKrHEEQ0NDQAIVCgZycHBgMBgb3ARIEAWazGVu3bsXrr7+Op59+Gtu2betzgaler8d5552HW2+9FY888gjmzZvHmnUiIiIaNxQKBVJSUrB06VKo1Wo0NzejqanJr2Tm66+/xsKFC5Genj7gPCpWlQQHB6OpqQk2m83vw0B7ezvKy8tx7Ngxv82TjEYjVq1ahR/96EeYMGHCoD3Ps9ErtCsUCmRlZcHn82HHjh3SX5LL5UJFRQVyc3ORkZHBRakD4Ha7cfjwYfzhD3/A73//e+zYsQNWq9XvlwT45hcpNTUVP/7xj3H33Xfjwgsv5PoBIiIiGrfUajXy8/ORmZkJg8EAi8UiTSZffPHFWL16NWJiYs4otMfFxWHRokVITU1FW1sbTp065XdOS0sL2trapJymUqmwdOlSPProo8PSh/37yIRvJ8h/a21txSWXXIKvv/76PyfLZJgzZw6eeeYZzJw5k+Ua36GlpQV/+9vfpD7rPbfUFSkUCkycOBErV67E+eefjzlz5iA8PHzEfymIiIiIAoEgCGhpaZGqFYKCgvDiiy9i0aJF57TGr7i4GDfddBP27t3b7zmZmZl4/fXXMXv27LN+nMHUb2gXBAEbN27ENddcg46ODr/bJk+ejLfeegt5eXnDMsjRxOPx4O2338arr76KEydO+F1i6Sk2NhZXX301LrnkEmRnZ7MbDBEREVE/WlpaUFpaCoVCgezsbOj1+nO+z6NHj2LHjh148sknUVdX53ebUqnExRdfjJdeegnR0dHn/FiDoVd5jEhccVtWVoaKigq/FbyNjY3YuXMn1Go1srOz2c3k3+rr6/HQQw/hueeeQ3FxcZ+z68A3l3VefPFFXHbZZUhPT4dOp+PsOhEREVE/goODkZiYiPj4+EFbDBoVFQWj0YitW7fCbDb73ebz+VBeXo4vv/wSgiAgIyMDGo1mUB73bPU70w58M9ve1taG1157Dffee6/faluZTIZp06bh008/DZhPICPB6/XCarXik08+wVNPPeXXLlMkfgBavHgx7rvvPkydOhVarZZBnYiIiEY9n88HQRAgl8tHVbaxWq1Yt24dPvvss17rDUUKhQJLly7Fs88+i5SUlMDqHtOTGDbFtjoHDhzwC+7t7e2Qy+VYsGDBuFuYKggC2tvbsXnzZtxyyy144YUXYLFY/FY3A98spMjJycEDDzyA9evXIz09HSqValT9UhMRERF9myAIqKioQEFBAY4fP46uri4IgiD1YA/0st9du3bh//7v//wmW00mExQKBdxuN4BvnmN5eTk2btwItVqNzMzMEWsW8p2hXaRWq5Gbmwur1YojR45IT87j8aClpQVTpkxBUlLSuAmiLpcLx44dw6uvvoqHH34YpaWlvc6Ry+VIS0vD8uXLce+99+K//uu/oNVqR2C0RERERIOvra0Nl19+OZ544gm8++67+Oc//4kDBw6gtrYWVqsVDocDMpkMHo8HLpcroGbjKysrsW7dOr+1hwqFAqtXr0ZsbCxOnz7tVxre3t6O48ePQxAEGAwGhIaGQqlUDuuYv7M8piePx4OvvvoKDzzwAPbt2ycFd41Gg5UrV+Lxxx9HRkbGkA52JAmCgI6ODhQXF6OgoAB///vf+11xbDKZsGzZMqxbtw4XXHAB2zcSERHRmNLd3Y3nn38ev/71r3tVGQNxNxsAABStSURBVADf7D2TkZGBmTNnwmQyQalUIiwsDMnJycjMzERiYiJ0Ot2IVGoUFxfjt7/9Ld58802pLEYulyMpKQnPPfccBEHApk2b8Oabb/ptsiRasmQJ7r77bixevHhY1nX6fD5UVlYOPLSLP7Rhwwb86le/QnV1tXTcZDLh3nvvxZ133jmitT5Dwev1oqWlBQcPHsQXX3yBXbt2obCwEC6Xq8/zs7KycO211+Kaa65BTEzMMI+WiIiIaOhVVFQgPz+/V4fB76JWqxEdHY2cnBxkZmYiJycHWVlZSElJQVhYGDQazZCX1LhcLvziF7/Aa6+9BrvdLh2Pj4/HzTffjJtvvhkxMTFobm7GmjVrsH379l73YTAYMH/+fLzzzjsIDQ0dsrEKgoCmpiZs2bIFH3744ZmFdgDo6OjAL3/5S7z22mtScJXJZJg7dy6efPJJzJ07d0gGPhJaWlqwYcMGbN++HSdOnEB5eblfTX9PqampWL16NZYuXYr58+dzJ1MiIiIas6qqqpCXl3dGob0nhUKByMhIJCQkIC4uDsnJyZg8eTJycnIQEREhlZ5otVoYjUYEBQUNSqDfsWMH7rjjDpw4cUKaZddqtVi3bh3Wr1+PuLg4AN9skHno0CFs3rwZr776KqqqqvzuJygoCE899RRuuOGGIesq4/F4sHPnTtx+++0oLS3FGRfjGAwG3Hbb/2/v3oOiqt8/gL/P7rILLAisICIXBYUUVKS4KamNUIramI3TWDnpOGVNP8cZbSqaMm8zdplpssbSoKmmi+ZYpFkjoeUtbyAmo3lBhAUR2WblsuzCLgt7fn84nK+nBRN2WS6+X//ts+zZZ/Wf53zO83k+/4eCggLpB4iiiJKSEuTl5SE8PBxRUVFuT9zTLl68iE2bNuHw4cNdbjDtpNVqMWfOHKxYsQLJyckICgoaEL1aRERERH0lICAAGRkZKCgo6NXnOzo6UFdXh7q6OmnwSWBgIHQ6nWzCnkajQWRkJBISEvDQQw8hIiJCaklRKBQQRVEqvgVBgCAIUs125/ud7+3YsQMVFRWytpjU1FSsWrUKZrMZZWVlUh9+fX09DAaDtCn1TlarFVu3bkVcXBymT5/u9sLdbDZj/fr1OHjwICoqKgCg50U7AMTHx+OJJ57Atm3bpNV2m82G/Px8BAYG4o033kBISIj7Mvcgs9mMvLw8bN26FTU1Nd22wQiCgPDwcKxatQrPPvssRowY4fENCURERET9QaVSITMzE0VFRaivr4eXlxeefvppzJ49GwaDAUePHsXJkydhMBj+81qiKKK1tRWtra24efOm7D1BEKBSqfDrr7/C19cXarXapcVRu90u65oYNmwY9Ho95s+f75RTW1sbmpubu+2yuH79Os6cOYOHH3641/l0xWq1Yt26ddi+fTtaWlqkeI/bYzrZbDasXr0an332mWwVOjg4GPn5+cjIyBjwo36A2/8p7e3taGhowK5du7BlyxZcv369y7sqlUoFb29vJCUlYfXq1cjIyIBOp2OxTkRERPcdo9GI3bt346effoLVasXGjRsxY8YMOBwOOBwONDY24vr16zCbzTCZTCguLsb+/ftRUVEBq9UKu92O9vb2bmekD3QqlQrz5s3D7t273bIhtbW1Fd9//z02btyImpoa2ShKQRB6X7QDQE1NDRYvXowTJ07I/sHfeOMNvPXWWwO2r9vhcMBqtaKxsREGgwElJSX49ttvcfr06S7vpjQaDUJDQzF16lQ8//zzmDZt2oD9bUREREQDVUtLC6qrq3Hq1CkcPXoUpaWlqK+vR3NzMywWC9ra2rptSR5okpOTcfDgQfj7+7u0UN15mOnFixexbt06HD582OmgTp1O51rR3tHRgYMHD2Lx4sVobGyU4tHR0SgsLMS4ceN6/QP6Sm1tLUpLS3HlyhUcPXoUJSUluHHjhmwWZyelUomwsDDMmjULy5cvx9SpU4fcdBwiIiKi/mC329HQ0IDy8nKUlJTgwoULqKqqgtlshiiKcDgcaGtrQ319Perr62GxWLqs1/qKIAjw9fVFSEgIgoODZYdjajQaLF++HEuWLHHpO0RRhMFgQG5uLrZt2waDwSBbCFer1YiJiUF2drZrRTsA6PV6rF69Gnv27JHF33//fbz66quuXNqt7HY7/v77b3z++ef48ccfnf5R/k2j0SAtLQ1Lly7FwoULERQU5MFsiYiIiO4foijCZrPBZDLBYrFI7cvNzc24evUqLl++jOrqajQ1NUkr8Z0bTO92zc73//zzTxiNRum9mJgYTJ48+a45eXt7Izo6GomJiRg/fjy0Wq10vWHDhrm8f9NsNuP06dP4+eefsXv3bqd+fi8vL6SkpODNN9/EY4895nrRbrPZsGPHDqxZs0a22v7AAw+guLgY/v7+rlzeJZ2PG86fP4+jR4/ijz/+wKlTp2RN/f/m4+OD1NRUzJo1C7Nnz0ZycnK/DP4nIiIiotv1nN1uR0tLC1paWnpctG/atAm5ubmy995++2288MIL3X4GuF20BwQE9NkBShcvXsSyZctQXFzs9J6fnx9WrlyJrKwszJw5EyqVqnfTY+6kVquRnJyMtLQ0/Pbbb1K8oqICn3zyCXJyclz9il5pb2/Hrl27sH//fly+fBmXL1+GxWLp9u+9vLyQmJiIRYsWISsrCwkJCTzJlIiIiKifCYIAtVoNtVrdo8OMRFHEmTNnnMZSRkREYOHChYiIiHB3qvekubkZ+fn5yM/PR2lpaZd/k5mZiTVr1shW810u2gVBQHR0NNLS0nDkyBFpI6fdbkdubi4SExORnZ3t6tf0SGNjIz788EN8+eWXqK2t7bb/Sa1WIzExETNnzsSDDz6I8ePHY9y4cfDz8+OsdSIiIqJBzG63o6ioCDU1NbL4vHnzMHr06H7KCmhqasLHH3+Mc+fOOW26HT9+PF555RXMmDEDOp1O9p5bZhVqtVrMnDkT+/fvR0lJiZRAdXU1NmzYAKVSiccee8wdX9Utm82Gq1ev4ptvvsGvv/4qbWToTlZWFjZs2IDw8HAEBQXBx8cHKpWKxToRERHREGAymbBz505ZYaxWq5GZmdlv7dsGgwErVqzA+fPnZXkJgoDY2Fhs2LABjz/+OHx8fJw+65aiXRAEPPLII3jzzTeRk5ODK1euQBRFdHR04K+//sL333+PadOmwc/Pzx1fB+B/Q+9NJhNOnTqFjz76CKdOnYLVau1yZV2hUMDHxwdBQUF45plnsHbtWtmGAiIiIiIaOoqLi3Hy5ElZLCMjA4mJiR4/Y8dsNuPbb7/Fli1bUF5eLqtV1Wo1li5dinXr1iEsLKzb8ZFuy1ihUGDevHm4cOECPvjgAzQ0NAAA2tracPr0aRw5cgTZ2dkuH7jkcDhgMplQVVWFgoICfPfdd7h06ZLTPMtOKpUKI0aMwKRJk7B48WLMnj0boaGhg+LgJyIiIiLqufb2dmzfvt1plX3+/Pke7WUXRRHNzc0oKyvDgQMHnAp2rVaL6dOnY86cOdDpdHetT916m6FSqbBq1SocP34chYWFUlLXrl3Dnj17kJSUhFGjRrn0HRaLBXl5efj000+h1+vv+re+vr5ITU3FypUrMXfu3C4fNRARERHR0KLX63Ho0CFZLD4+HikpKR6tB9va2lBYWIi33noLV69eld1EaLVaLFmyBJs3b3bqX++K258N+Pv7Y+nSpTh79iwMBgOA2/3mBQUFyMrKwqJFi3o1QtFut+PSpUs4fvw4cnNzUV1d3eXfKRQKjBw5EklJSZg0aRKefPJJpKSkuPSbiIiIiGhwcDgc2LNnj2zEt0KhQHp6OuLi4jzWGt3S0oKioiLk5+ejvLxcVrArlUqkpqZi7dq191SwA31QtAPAggULUFhYiC+++EKK1dbWYt++fUhPT+/xjt329nYUFRXho48+QmFhIUwmk9PBSEqlErGxscjMzERqaioyMjIQGRnJE0yJiIiI7iNGoxE//PCDrEgOCQlBcnIyhg8f7rE8DAYD3nvvPRw4cEDWEuPl5YXnn38eCxYs6NHhnX1StHt7e+PFF1/Ejh07pBGQDocDBQUFSEhIwMsvv4yAgID/vI4oirh58yb27duHXbt2oaioyGnWuo+PDx588EFkZ2cjNTUVSUlJGD58ODeYEhEREd2HDh48iPLyctkCb2JiIqZOnerRDag3btzA6dOnZQW7UqnExIkTsWLFCkyZMqVH1+uzzCdPnox58+Zh79690ibR+vp6fP3118jOzkZiYuJ/nmJVUVGBzZs348CBA7h586bTZtOoqCi88847SEpKQkREBLRaLTeYEhEREd2nWlpa8NNPP8FkMkkxf39/pKWlISYmxqO5HDp0CE1NTdJrhUKBl156Cc899xzi4uJ6fL0+K9q9vb2xceNGVFZW4uzZswBuF+J6vR5lZWWYOHHiXe926urqsGzZMpw5cwY2m82pHSY4OBhz585FVlYWRowY0Vc/g4iIiIgGiUuXLuHKlSuw2+1SLDo6GllZWR496d5ut6OwsFDWoqPT6TB9+nQkJSXBy8urx9fs02Xp2NhYvP7667J/JKvVigMHDsBms3X5GVEUcevWLXz11VcoKiqC1WqVFexeXl6IiYnB+vXr8e6778qOdyUiIiKi+5PdbsfevXtRVVUlxVQqFeLi4nrciuKqmpoanDlzRhZLTU3F5MmTe1WwA31ctKtUKowdOxbR0dGy+J9//il7XHCnlpYWfPLJJ9i4cSPa2tr+l6hCgZCQECxcuBC//PKL1BfP3nUiIiIi0uv1OH78uKw1Zvjw4Zg/fz6GDRvmsTwcDgc+/fRTaV8ncHvROTExEWFhYb2+bp924wuCgLCwMKSnp+Py5cvSivm1a9dw/vx5p5ntHR0dKCsrQ35+vmwl3svLCxMnTsQzzzyDp556ChERESzWiYiIiAjA7Rry2LFjuHLlihRTKBSIiYnBo48+6tFcjEYj9u3bJ4vpdDrExcXBz8+v19ft812bgYGBmDx5smz0ot1uR15enqww7+joQFVVFbZs2YKysjKpwBcEAZGRkVi1ahVWrlyJqKgobjYlIiIiIonZbEZpaSn++ecfKabRaDB37lyMHDnSo7lcuHABDQ0N0mtBEJCcnIz09HSXptf0efXr7e2N+Ph4pxaZ33//HceOHZNed3R0oLi4GCdOnEBra6sU12q1yMzMxIwZM3rdA0REREREQ9fNmzdRWVkpmzTo7++P+fPne3Sx1+Fw4NixYzCbzVJMq9UiOTnZqRbuqT7/FQqFAlOmTMHs2bOh0WikuMlkws6dO6Xdve3t7SguLkZtba3sswkJCXjxxRcxevToXp2kSkRERERDV+d0wn/PZo+NjUVsbKxHc7FYLNLkw06hoaFISEhw+cBPj9x6BAcH49FHH8W4ceOkmMPhwMmTJ2E0GgHcbpkxGAyyI2f9/Pwwd+5cTJgwgQU7ERERETmx2+2oqKjAjRs3ZPHp06fD19fXo7lUVlaisrJSOlBJEASMGjUKEyZMcHk/pkeK9s4V87Fjx8rizc3NqK+vB3C7QM/JycGsWbOgVCrh5+eH1157DS+88AJ8fHw8kSYRERERDTIWiwVVVVWwWCxSTKFQ4OGHH/b44JIjR47AYDBIr5VKJcLDwxEZGenytT3W5KPRaLp8LND5GEOpVCI+Ph7vvfcekpKS8NVXXyEnJwdhYWGcFENEREREXaqvr0d5ebm0ug0Aw4YNQ3x8vEfzaG1txd9//y3rZw8MDERaWhoCAgJcvn6fjny8kyAITsW3KIqyE6s6d9cWFxd7Ki0iIiIiGsSMRiPKy8tlsTFjxmD48OEezcNkMkGv18vms+t0OqSkpLjl+h5daffz85P1pre3t8tG8xARERER3auOjg4YDAZZSwoAxMfHe7yfva2tTTa9BgDUajV0Op1bru+xot3X1xdRUVHQarVSrLW1FefPn4fD4fBUGkREREQ0RNjtdtTW1qKxsVGKCYKAhx56aMCc6+OuNm+P/Rq1Wo2xY8ciMDBQilmtVpw7d072GIGIiIiI6F60trbi2rVraGtrk2IajQYPPPDAgNkTeecYSld4rGgXBAHx8fEIDQ2VYna7HXq9ni0yRERERNRjFosFFy9elBXGwcHBiIyMHBBFuyAIblvx9+hzg4iICISEhEjJi6KIW7duQa/XezINIiIiIhrkRFFEQ0MDKioqZPGoqCiPb0K9m0HXHgMAAQEBiIqKko1+bGxsRFlZmSfTICIiIqJBThRFNDU1yfrZAWDSpEmyPZSe0t2kxH9vTu0tjxbt3t7eiI2Nle3mNZvNqKiokB33SkRERER0N6Iooq6uDnV1dbL4mDFjujwbyBP5dNW/PijbYwBg4sSJ8PPzk17b7XYYjUZuRiUiIiKieyaKYpf1o4+Pz4DoZwcGcU87AIwaNQoajUZ6bbPZUFtbi+bmZk+nQkRERERDjEqlGjBFuyiKbhtt7vGiXa1WO91xiKIoO3qWiIiIiOi/uGucort0dbMw6EY+duruzmeg3BERERER0cAnimKXeyL781Clfxfog7o9pqvE3fnogIiIiIiGvo6ODty4cUMW8/f3R3BwMJRKZT9l5WxQjnwEBt5jDCIiIiIafNrb21FaWiqLBQQEICQkpF+K9u5GPrqrBXxAFO3ufHRARERERENfc3Oz01k/I0eORHBwcL/Uld2NfBy0K+1ERERERK5qamrCrVu3ZLH4+HgEBQX1U0bOBnVPe3d3G2ybISIiIqJ7ZTQanQ5WGjFiBHx8fPopo64NqekxDoeDG1GJiIiI6J51NTlGo9H02ybU7nraB+2c9q4SVygU7GknIiIiIpcolcp+GyPeVU/7oG6P6Q7ntBMRERGRKxwOx4BrueZGVCIiIiK6b6lUKqeYzWZz24jFgYZFOxERERENOjqdDsHBwbKY0WiE1Wrtl3yG3Jx2hULh9IMcDseQvSsiIiIiIvcLDAx0Gu9YVlYGk8nUL/kMuTntXfUacSMqEREREfVEYGAgYmNjZbHq6mr8888/A2YqITeiEhEREdF9zcvLC8nJybLYrVu3UFtbO6A6ONy1Mfb/AXknEo9/J7r5AAAAAElFTkSuQmCC;" vertex="1" parent="9MfvhquQHnC2zTjQO_8x-19">
          <mxGeometry width="749" height="248" as="geometry" />
        </mxCell>
        <mxCell id="9MfvhquQHnC2zTjQO_8x-21" value="" style="rounded=0;whiteSpace=wrap;html=1;fillColor=none;strokeWidth=2;strokeColor=#B85450;" vertex="1" parent="9MfvhquQHnC2zTjQO_8x-19">
          <mxGeometry x="19" y="100" width="720" height="140" as="geometry" />
        </mxCell>
        <mxCell id="9MfvhquQHnC2zTjQO_8x-22" value="" style="endArrow=none;html=1;rounded=0;exitX=0.25;exitY=1;exitDx=0;exitDy=0;entryX=0.25;entryY=0;entryDx=0;entryDy=0;strokeWidth=2;strokeColor=#B85450;" edge="1" parent="9MfvhquQHnC2zTjQO_8x-19" source="9MfvhquQHnC2zTjQO_8x-21" target="9MfvhquQHnC2zTjQO_8x-21">
          <mxGeometry width="50" height="50" relative="1" as="geometry">
            <mxPoint x="89" y="170" as="sourcePoint" />
            <mxPoint x="139" y="120" as="targetPoint" />
          </mxGeometry>
        </mxCell>
        <mxCell id="9MfvhquQHnC2zTjQO_8x-23" value="" style="endArrow=none;html=1;rounded=0;exitX=0.75;exitY=1;exitDx=0;exitDy=0;entryX=0.75;entryY=0;entryDx=0;entryDy=0;strokeWidth=2;strokeColor=#B85450;" edge="1" parent="9MfvhquQHnC2zTjQO_8x-19" source="9MfvhquQHnC2zTjQO_8x-21" target="9MfvhquQHnC2zTjQO_8x-21">
          <mxGeometry width="50" height="50" relative="1" as="geometry">
            <mxPoint x="549" y="240" as="sourcePoint" />
            <mxPoint x="549" y="100" as="targetPoint" />
          </mxGeometry>
        </mxCell>
        <mxCell id="9MfvhquQHnC2zTjQO_8x-24" value="&lt;font style=&quot;font-size: 15px;&quot;&gt;&lt;span style=&quot;color: rgb(184, 84, 80);&quot;&gt;MIDDLE&lt;/span&gt;&lt;/font&gt;" style="text;html=1;align=center;verticalAlign=middle;resizable=0;points=[];autosize=1;strokeColor=none;fillColor=none;" vertex="1" parent="9MfvhquQHnC2zTjQO_8x-19">
          <mxGeometry x="324" y="248" width="80" height="30" as="geometry" />
        </mxCell>
        <mxCell id="9MfvhquQHnC2zTjQO_8x-25" value="&lt;font style=&quot;font-size: 15px; color: rgb(184, 84, 80);&quot;&gt;TARGET&lt;/font&gt;" style="text;html=1;align=center;verticalAlign=middle;resizable=0;points=[];autosize=1;strokeColor=none;fillColor=none;" vertex="1" parent="9MfvhquQHnC2zTjQO_8x-19">
          <mxGeometry x="609" y="248" width="80" height="30" as="geometry" />
        </mxCell>
        <mxCell id="9MfvhquQHnC2zTjQO_8x-26" value="&lt;span style=&quot;color: rgb(184, 84, 80);&quot;&gt;&lt;font style=&quot;font-size: 15px;&quot;&gt;SOURCE&lt;/font&gt;&lt;/span&gt;" style="text;html=1;align=center;verticalAlign=middle;resizable=0;points=[];autosize=1;strokeColor=none;fillColor=none;" vertex="1" parent="9MfvhquQHnC2zTjQO_8x-19">
          <mxGeometry x="54" y="248" width="90" height="30" as="geometry" />
        </mxCell>
        <mxCell id="9MfvhquQHnC2zTjQO_8x-27" value="" style="rounded=0;whiteSpace=wrap;html=1;fillColor=none;strokeWidth=2;strokeColor=#66CC00;" vertex="1" parent="9MfvhquQHnC2zTjQO_8x-19">
          <mxGeometry x="289" y="30" width="101" height="90" as="geometry" />
        </mxCell>
      </root>
    </mxGraphModel>
  </diagram>
</mxfile>
